<svg width="160" height="303" viewBox="0 0 160 303" fill="none" xmlns="http://www.w3.org/2000/svg">
<path d="M65.3015 87.7495C62.8688 81.7444 59.8554 78.8516 56.2611 79.0712C53.8514 78.2284 48.2142 80.7248 39.3494 86.5606C37.4671 87.1883 35.9787 87.0612 34.8848 86.179C33.3669 84.7711 32.8597 83.5058 33.3629 82.3835C33.4732 81.527 35.2078 78.9704 38.5666 74.7137C39.2222 73.4676 39.5049 72.402 39.4145 71.5168C38.9827 68.0618 37.0076 65.6459 33.4889 64.2688L15.9498 66.1632L5.71865 63.2798C3.16523 63.889 1.38243 65.801 0.370313 69.016C-0.0585439 69.8373 0.438177 71.876 1.86045 75.1323C1.16789 79.7705 1.07061 82.7695 1.56856 84.1295C1.52041 85.4264 3.47459 88.3622 7.43132 92.9367L8.07223 103.455C8.36862 105.074 9.21983 106.833 10.6257 108.73C13.571 112.524 16.9794 115.315 20.8506 117.102C23.5961 118.732 29.1288 119.595 37.4492 119.691C39.1421 120.266 40.042 121.229 40.149 122.578C40.7605 133.938 41.245 140.012 41.603 140.8C41.4316 141.566 42.9873 146.267 46.2707 154.905C46.7939 156.77 47.0361 158.778 46.9977 160.927C47.0297 162.66 46.356 166.24 44.9772 171.667C40.9134 184.522 38.595 193.359 38.0215 198.177C36.449 214.061 36.1022 223.843 36.9811 227.524C39.2249 234.463 45.7738 227.559 56.6279 206.811C61.9934 198.801 70.8701 178.902 83.258 147.114L65.3015 87.7495Z" fill="#1E1E1E"/>
<path d="M54.3752 155.603C55.9736 160.234 55.446 167.366 52.7925 176.999C52.8217 178.863 49.0745 186.37 41.551 199.519C38.3654 206.409 35.3704 215.038 32.5665 225.406C31.6936 230.978 31.1667 236.172 30.9863 240.99C32.1571 257.465 32.4018 265.542 31.7203 265.221C31.3757 267.364 30.8251 269.478 30.069 271.563C26.8726 277.247 24.3287 283.543 22.4369 290.451C22.6552 292.017 23.4603 292.846 24.8524 292.937C25.1542 293.255 26.6778 291.935 29.4228 288.977C30.1745 288.62 30.4913 288.706 30.3728 289.235C29.4864 290.958 28.2807 292.02 26.7556 292.419C24.9474 293.104 22.1493 292.828 18.3612 291.591C17.3782 291.744 16.8076 292.311 16.6495 293.294C16.7797 299.007 20.4835 302.177 27.7605 302.802C35.6605 301.899 41.405 298.015 44.9938 291.151C53.1368 262.961 57.7961 247.931 58.9714 246.063C61.1446 238.47 63.5301 224.996 66.1279 205.641C66.4081 204.145 66.9752 202.328 67.8296 200.188C69.0925 197.106 70.1211 195.189 70.9154 194.439C77.96 188.987 83.713 183.071 88.1749 176.693C90.4589 174.059 94.0489 167.327 98.9444 156.497L54.3752 155.603Z" fill="#1E1E1E"/>
<path d="M96.7098 130.784C100.14 129.803 102.581 127.97 104.034 125.284L107.331 110.221C107.978 108.046 109.517 105.105 111.95 101.399C112.076 100.405 116.707 95.1464 125.843 85.6226C129.304 77.0881 133.431 70.9072 138.222 67.0796L139.547 57.5795L142.746 50.4482C142.728 49.0244 142.485 47.7818 142.016 46.7205C139.279 43.332 138.245 41.4377 138.913 41.0377C139.441 37.4742 141.23 35.387 144.28 34.7762C149.335 33.9438 153.33 36.7307 156.264 43.137C159.034 49.5035 159.858 56.4523 158.736 63.9835C158.074 68.3533 155.964 73.7992 152.403 80.3216C152.564 81.3666 145.395 92.2302 130.895 112.912C127.444 119.147 125.014 124.68 123.607 129.512C122.693 132.197 122.087 134.73 121.789 137.112C121.317 149.103 120.764 155.444 120.129 156.136C119.944 158.204 117.177 162.308 111.828 168.449C111.25 169.413 110.919 170.317 110.834 171.16C111.624 175.29 111.899 180.16 111.661 185.769L115.244 195.956C115.402 197.552 114.897 199.196 113.732 200.889C113.383 202.439 109.763 203.252 102.869 203.328C95.7146 207.649 90.0425 210.175 85.853 210.908C84.995 211.327 82.3393 210.049 77.8856 207.075C73.9905 207.2 70.52 206.605 67.4738 205.287C65.5646 204.516 64.2625 203.612 63.5677 202.574C61.2251 197.381 60.4904 191.302 61.3636 184.338L67.5013 137.47L96.7098 130.784Z" fill="#1E1E1E"/>
<path d="M55.5091 87.3887C56.139 82.8748 57.7856 79.2284 60.4488 76.4495C61.2518 75.6586 62.1679 75.0838 63.197 74.7253C67.5976 74.4467 70.2441 73.8319 71.1362 72.8805C73.5749 70.0556 77.2454 66.8121 82.1482 63.15C82.9613 62.4379 83.4176 61.3397 83.5176 59.8553C83.6256 57.6584 83.0084 55.9067 81.666 54.6003L73.1799 48.7731C72.6588 48.6808 70.8947 46.2288 67.8872 41.4171L62.4304 37.7253C61.6884 37.4951 61.5325 34.9076 61.9626 29.9626C61.8197 28.7661 61.5013 27.6373 61.0076 26.5764C60.4375 24.4734 57.5099 20.5827 52.2244 14.9043C51.5446 13.1941 52.7743 12.3685 55.913 12.4271L66.6792 15.6487C66.7843 13.0859 63.8569 9.19101 57.8976 3.96411C57.5057 2.94119 58.0929 2.01876 59.6594 1.19656C63.7182 -0.334661 67.9768 1.03054 72.4352 5.29196C74.4119 7.29943 76.1163 9.712 77.5486 12.5295C77.675 11.9757 79.1235 16.8117 81.8945 27.0373C82.6551 29.0056 83.5121 30.5331 84.4651 31.6195C85.8457 33.2969 87.513 34.6828 89.4667 35.7773C100.127 39.8206 106.87 43.1627 109.696 45.8036C113.082 48.2845 115.537 52.5588 117.063 58.6268C118.948 66.1484 118.664 73.0155 116.212 79.228C114.47 84.8114 109.293 93.5527 100.679 105.452C99.5746 107.392 98.9429 109.035 98.7835 110.381C98.5609 112.045 98.8087 113.74 99.5269 115.465C105.713 124.659 108.573 129.871 108.106 131.1C108.941 135.37 108.112 139.549 105.62 143.637C97.4455 154.775 88.3944 160.613 78.4664 161.152C70.3419 158.275 66.7793 151.11 67.779 139.659L55.5091 87.3887Z" fill="#1E1E1E"/>
<ellipse cx="1.69149" cy="2.25532" rx="1.69149" ry="2.25532" transform="matrix(1 0 0 -1 78.0298 205.823)" fill="#FBD300"/>
<ellipse cx="1.69149" cy="1.69149" rx="1.69149" ry="1.69149" transform="matrix(1 0 0 -1 85.9235 200.185)" fill="#FBD300"/>
</svg>
