<svg width="533" height="141" viewBox="0 0 533 141" fill="none" xmlns="http://www.w3.org/2000/svg">
<path fill-rule="evenodd" clip-rule="evenodd" d="M0.789734 29.514V0.60083H141.596C141.596 0.60083 173.724 16.9547 177.25 28.5225C177.25 28.5225 170.773 33.4189 155.689 34.8511C155.689 34.8511 164.847 36.9688 181.634 31.7664C181.634 31.7664 202.755 50.495 203.893 75.589C203.893 75.589 196.547 77.4007 181.058 76.8131L175.573 67.51L177.96 76.3969C177.96 76.3969 136.943 77.2293 114.671 71.6107C114.671 71.6107 110.447 66.9592 105.929 48.6344L107.631 69.6277C107.631 69.6277 100.15 69.9092 98.3254 66.3838C96.5011 62.8584 91.4198 42.9913 91.4198 42.9913L93.3911 65.2576C93.3911 65.2576 36.3831 53.7389 0.789734 29.514Z" fill="#4D9B44"/>
<path fill-rule="evenodd" clip-rule="evenodd" d="M529.082 0.60083C529.082 0.60083 540.346 38.5478 523.609 62.5157C523.609 62.5157 502.341 27.4086 499.965 21.3983C497.59 15.3879 490.684 19.5866 494.137 25.0705C497.59 30.5545 516.703 59.076 515.601 73.251C514.499 87.4261 494.137 95.7867 494.137 95.7867C494.137 95.7867 478.673 54.8896 472.869 50.6909C467.066 46.4923 465.952 50.5195 466.123 53.4329C466.294 56.3463 488.162 82.7133 486.681 96.8883C486.681 96.8883 486.877 104.527 476.885 109.264C466.894 114.001 458.887 118.359 455.618 117.257C452.348 116.156 451.247 112.532 450.512 106.522C449.777 100.512 441.61 78.3678 437.607 77.5966C433.603 76.8254 434.338 83.6069 435.611 86.5202C436.884 89.4336 449.949 113.218 446.471 119.24C445.294 120.286 443.965 121.076 442.484 121.609C441.002 122.142 439.474 122.381 437.901 122.325C432.636 122.154 429.538 99.7894 429.538 99.7894C429.538 99.7894 428.803 97.6962 427.346 98.5653C425.889 99.4344 426.807 102.397 427.273 103.927C427.738 105.457 430.542 120.305 428.167 122.129C425.791 123.953 400.715 124.504 388.704 95.199C388.704 95.199 390.161 87.1934 399.614 83.5457C409.066 79.8979 411.454 76.6417 410.707 73.3734C409.96 70.1051 403.63 76.2868 401.254 77.9271C398.879 79.5673 386.708 87.7198 384.333 87.7198C381.958 87.7198 375.26 76.6295 373.24 55.3424C373.24 55.3424 375.799 46.2474 400.716 37.5441C400.716 37.5441 403.446 35.0959 401.536 33.174C399.626 31.2522 379.423 41.7427 372.346 49.0873C372.346 49.0873 364.339 42.1589 365.6 27.8002C365.6 27.8002 369.432 20.0884 386.61 16.4284C403.789 12.7683 397.336 10.8098 397.336 10.8098C394.334 10.5344 391.428 10.9424 388.618 12.0339C383.721 13.8577 368.257 18.7541 366.236 18.0197C364.216 17.2853 359.625 0.60083 359.625 0.60083H529.082Z" fill="#4D9B44"/>
<path fill-rule="evenodd" clip-rule="evenodd" d="M360.678 0.60083H374.66L396.846 25.7805C396.846 25.7805 369.652 12.3522 360.678 0.60083ZM371.514 78.0372C366.506 50.7888 336.128 0.60083 336.128 0.60083H317.652C335.602 45.6231 371.514 78.0372 371.514 78.0372ZM336.937 112.606C333.753 94.1341 306.033 0.60083 306.033 0.60083H297.584C299.176 75.9562 336.937 112.606 336.937 112.606ZM299.69 110.77C297.584 48.9894 280.7 0.60083 280.7 0.60083H274.1C275.692 99.9975 299.69 110.77 299.69 110.77ZM134.396 0.60083C151.317 7.87196 195.384 12.3155 207.554 12.5848C219.725 12.8541 225.504 17.0649 225.504 17.0649C225.504 17.0649 202.803 16.8079 173.491 17.0649C144.179 17.322 85.0652 30.7871 85.0652 30.7871C122.005 37.385 203.318 26.8577 203.318 26.8577C203.318 26.8577 162.913 50.593 153.423 55.8566C143.934 61.1202 109.884 100.218 109.884 100.218C126.756 97.5861 194.869 45.0723 194.869 45.0723C163.708 74.622 150.534 112.9 150.534 112.9C174.801 97.586 214.411 30.7871 214.411 30.7871C179.54 99.6915 180.874 140.601 180.874 140.601C180.874 140.601 214.937 52.7107 219.161 39.7597C223.386 26.8088 228.393 20.2599 228.393 20.2599L223.912 45.8435C215.966 98.1002 227.585 135.043 227.585 135.043C232.593 112.606 233.107 34.7532 233.634 24.4463C234.16 14.1394 249.465 6.23169 249.465 6.23169C240.895 67.0938 259.077 82.2971 265.052 136.108C274.725 110.855 252.624 45.9169 261.085 0.60083H247.09L242.866 4.67706C240.49 8.75328 228.883 9.16951 228.883 9.16951C207.26 2.30234 178.989 0.60083 178.989 0.60083H134.396Z" fill="#1D3E1E"/>
<path d="M422.714 122.313C424.124 122.386 425.312 122.329 426.212 122.202C426.661 122.139 427.031 122.058 427.317 121.971C427.612 121.881 427.783 121.793 427.862 121.733C428.022 121.61 428.202 121.315 428.344 120.762C428.482 120.227 428.563 119.531 428.594 118.712C428.657 117.077 428.518 115.03 428.288 112.974C427.827 108.853 427.014 104.794 426.795 104.073C426.565 103.318 426.203 102.147 426.091 101.049C426.036 100.499 426.038 99.9323 426.171 99.427C426.306 98.9128 426.585 98.4373 427.091 98.136C427.555 97.8587 428.013 97.7937 428.434 97.9075C428.837 98.0164 429.144 98.2722 429.363 98.5208C429.584 98.7716 429.745 99.0466 429.847 99.2512C429.899 99.355 429.939 99.4451 429.966 99.51C429.979 99.5426 429.989 99.5698 429.997 99.5891C430 99.5986 430.003 99.6067 430.006 99.6125C430.007 99.6153 430.008 99.6175 430.008 99.6194C430.009 99.6204 430.009 99.6216 430.009 99.6223V99.6233L429.538 99.7893L430.009 99.6243L430.026 99.6711L430.033 99.7209V99.7219C430.033 99.7225 430.034 99.7237 430.034 99.7249C430.034 99.7274 430.034 99.7316 430.035 99.7366C430.036 99.747 430.039 99.7629 430.042 99.7834C430.048 99.8251 430.057 99.887 430.069 99.968C430.093 100.131 430.128 100.37 430.175 100.674C430.27 101.283 430.411 102.154 430.596 103.199C430.968 105.292 431.517 108.079 432.229 110.869C432.943 113.665 433.813 116.438 434.822 118.513C435.327 119.552 435.854 120.389 436.394 120.965C436.936 121.544 437.444 121.81 437.917 121.825H437.919C439.429 121.879 440.893 121.651 442.314 121.139C443.709 120.637 444.96 119.898 446.073 118.923C446.417 118.287 446.581 117.386 446.555 116.236C446.529 115.052 446.307 113.656 445.934 112.115C445.188 109.031 443.853 105.432 442.362 101.909C440.872 98.3908 439.233 94.9663 437.885 92.2366C436.547 89.526 435.478 87.4633 435.153 86.7209C434.487 85.1962 433.967 82.69 434.132 80.637C434.214 79.6151 434.471 78.626 435.042 77.9368C435.647 77.206 436.544 76.883 437.701 77.1057C438.376 77.2357 439.037 77.7802 439.656 78.4836C440.293 79.2083 440.963 80.1909 441.64 81.343C442.997 83.6499 444.427 86.7018 445.748 89.9036C448.383 96.2911 450.632 103.384 451.008 106.461C451.375 109.461 451.828 111.808 452.573 113.531C453.309 115.234 454.312 116.29 455.777 116.783C456.457 117.013 457.456 116.974 458.799 116.653C460.126 116.334 461.716 115.758 463.537 114.99C467.183 113.451 471.658 111.189 476.672 108.812C481.563 106.492 483.928 103.482 485.079 101.083C485.656 99.8796 485.931 98.8214 486.062 98.0696C486.128 97.694 486.157 97.3953 486.171 97.1936C486.177 97.0927 486.179 97.0156 486.18 96.9661C486.181 96.9415 486.181 96.9233 486.181 96.9124C486.181 96.9071 486.18 96.9035 486.18 96.9016V96.8684L486.213 96.5139C486.474 93.1544 485.433 89.0651 483.655 84.717C481.825 80.2416 479.24 75.5517 476.594 71.1975C473.949 66.8441 471.253 62.8422 469.199 59.7346C468.174 58.1841 467.305 56.8499 466.686 55.8108C466.377 55.2917 466.126 54.8364 465.947 54.4592C465.778 54.1022 465.641 53.7506 465.624 53.4622C465.579 52.6999 465.617 51.851 465.802 51.0696C465.986 50.2943 466.327 49.5345 466.929 49.0159C467.552 48.4795 468.39 48.2565 469.432 48.4465C470.454 48.6328 471.683 49.2147 473.163 50.2854C473.971 50.8705 474.89 52.042 475.87 53.5637C476.861 55.1033 477.949 57.0613 479.086 59.2805C481.359 63.7202 483.842 69.2381 486.139 74.6165C488.437 79.9964 490.554 85.2445 492.095 89.1467C492.866 91.098 493.494 92.7135 493.928 93.8411C494.139 94.3871 494.303 94.8192 494.418 95.1194C494.529 95.0699 494.66 95.0128 494.806 94.9456C495.358 94.6924 496.15 94.3137 497.104 93.8157C499.015 92.8186 501.571 91.3434 504.159 89.4319C509.36 85.5899 514.569 80.0722 515.102 73.2122C515.369 69.7748 514.41 65.4149 512.726 60.6819C511.047 55.9603 508.666 50.9176 506.135 46.135C501.075 36.5692 495.448 28.0907 493.715 25.3372C491.863 22.3961 492.741 19.6496 494.603 18.4983C495.522 17.9304 496.665 17.7721 497.751 18.2004C498.837 18.629 499.799 19.6167 500.43 21.2141C501.009 22.6779 502.763 25.9663 505.097 30.1135C507.423 34.2457 510.302 39.1944 513.108 43.9573C515.914 48.7198 518.647 53.2945 520.677 56.679C521.693 58.3711 522.532 59.7662 523.118 60.7375C523.322 61.0756 523.494 61.3628 523.633 61.593C531.519 49.8374 532.832 34.8201 532.123 22.5989C531.762 16.3867 530.882 10.9181 530.091 7.00317C529.695 5.04646 529.322 3.47891 529.049 2.40161C528.912 1.86314 528.8 1.44685 528.722 1.16626C528.716 1.14363 528.71 1.12169 528.704 1.10083H375.767L385.806 12.4954C386.849 12.1409 387.748 11.825 388.437 11.5686V11.5676C391.319 10.4483 394.303 10.0294 397.382 10.3118L397.432 10.3167L397.481 10.3313H397.482H397.483L397.485 10.3323C397.487 10.3328 397.489 10.3335 397.491 10.3342C397.496 10.3357 397.502 10.3376 397.509 10.3401C397.525 10.3451 397.545 10.3525 397.571 10.3616C397.622 10.3796 397.693 10.4057 397.775 10.4407C397.937 10.5093 398.158 10.6165 398.367 10.7659C398.57 10.9109 398.805 11.1271 398.932 11.427C399.072 11.7567 399.056 12.128 398.85 12.4924C398.659 12.8313 398.314 13.1506 397.822 13.4641C397.323 13.7817 396.637 14.1169 395.714 14.4729C394.25 15.0373 392.157 15.6642 389.209 16.3577L397.221 25.4504L396.625 26.2288L396.624 26.2278C396.623 26.2273 396.621 26.2267 396.62 26.2258C396.616 26.2241 396.611 26.2223 396.604 26.219C396.591 26.2124 396.572 26.2017 396.546 26.1887C396.493 26.1627 396.415 26.1244 396.314 26.0735C396.112 25.9717 395.814 25.8209 395.432 25.6252C394.669 25.2339 393.568 24.6625 392.22 23.9397C389.557 22.5114 385.925 20.4928 382.009 18.1116C376.211 19.8377 372.402 22.0133 369.967 23.8831C368.447 25.051 367.459 26.1019 366.856 26.8518C366.555 27.2267 366.349 27.5271 366.22 27.7297C366.16 27.8244 366.117 27.8977 366.089 27.9475C365.492 34.9693 367.147 40.1624 368.943 43.5969C369.846 45.324 370.787 46.609 371.498 47.4592C371.841 47.8692 372.131 48.1779 372.337 48.386C376.014 44.7288 382.653 40.4175 388.643 37.2151C391.742 35.5587 394.69 34.1859 396.993 33.3469C398.142 32.9285 399.15 32.6356 399.946 32.511C400.343 32.4489 400.709 32.425 401.024 32.4583C401.33 32.4907 401.655 32.5844 401.89 32.8215C402.456 33.3908 402.698 34.025 402.714 34.6545C402.729 35.2681 402.531 35.8406 402.286 36.3108C402.04 36.7834 401.731 37.1825 401.489 37.4602C401.367 37.5999 401.26 37.7117 401.182 37.7893C401.143 37.8282 401.111 37.8587 401.089 37.8801C401.077 37.8908 401.068 37.8994 401.061 37.9055C401.058 37.9084 401.055 37.9106 401.053 37.9124C401.052 37.9133 401.051 37.9147 401.05 37.9153H401.049V37.9163L400.975 37.9827L400.881 38.0159L399.733 38.4231C388.044 42.6279 381.545 46.8763 377.967 50.0793C376.122 51.732 375.054 53.1066 374.451 54.054C374.149 54.5277 373.964 54.8958 373.855 55.1389C373.803 55.2553 373.769 55.3431 373.748 55.4006C374.758 65.9505 376.921 73.9605 379.116 79.3245C380.218 82.0174 381.324 84.0311 382.287 85.3616C382.769 86.0278 383.206 86.5087 383.577 86.8176C383.963 87.1393 384.214 87.2198 384.333 87.22C384.525 87.22 384.896 87.1279 385.459 86.9026C386.001 86.6853 386.665 86.368 387.414 85.9768C388.91 85.195 390.717 84.132 392.531 83.0129C396.158 80.7754 399.788 78.3325 400.97 77.5159C401.544 77.1198 402.363 76.4437 403.314 75.675C404.253 74.9162 405.305 74.0796 406.31 73.3958C407.299 72.7234 408.308 72.1516 409.152 71.9846C409.581 71.8998 410.036 71.9061 410.429 72.1282C410.836 72.3578 411.08 72.7615 411.194 73.262C411.611 75.0874 411.127 76.8888 409.338 78.6711C407.578 80.4242 404.539 82.1806 399.794 84.012C395.183 85.7914 392.535 88.6261 391.038 91.0061C390.288 92.1981 389.826 93.2784 389.551 94.0569C389.414 94.446 389.324 94.7595 389.269 94.9729C389.251 95.0447 389.237 95.1054 389.226 95.1536C395.181 109.582 404.319 116.637 412.238 119.874C416.217 121.501 419.894 122.166 422.714 122.313ZM366.776 17.594C366.973 17.5975 367.223 17.5833 367.524 17.551C368.126 17.4865 368.896 17.3519 369.794 17.1614C371.587 16.7807 373.85 16.1849 376.211 15.5061C376.586 15.3982 376.963 15.2865 377.341 15.175C370.792 10.9052 364.165 5.88723 360.434 1.10083H360.284C360.291 1.12744 360.299 1.15474 360.307 1.18286C360.436 1.63918 360.623 2.29239 360.853 3.07837C361.314 4.65099 361.95 6.75452 362.648 8.87915C363.347 11.0061 364.104 13.1442 364.81 14.7913C365.164 15.6162 365.498 16.3037 365.799 16.801C365.95 17.05 366.086 17.239 366.203 17.3704C366.261 17.4354 366.309 17.481 366.347 17.511C366.366 17.5257 366.382 17.536 366.392 17.5422C366.401 17.5473 366.406 17.5496 366.407 17.55C366.456 17.5679 366.57 17.5903 366.776 17.594ZM378.604 14.7991C380.791 14.1399 382.947 13.4539 384.78 12.843L374.434 1.10083H361.717C365.568 5.7478 372.138 10.6319 378.604 14.7991ZM370.719 76.6106C367.883 63.1707 359.419 44.7005 351.499 29.3303C347.393 21.3619 343.443 14.2429 340.519 9.11646C339.057 6.55333 337.852 4.48842 337.012 3.0647C336.593 2.35301 336.265 1.80139 336.042 1.42798C335.963 1.2969 335.898 1.18723 335.846 1.10083H318.393C327.341 23.2556 340.612 42.3175 351.701 55.886C357.301 62.7386 362.341 68.1865 365.98 71.9202C367.799 73.7868 369.268 75.225 370.281 76.1956C370.438 76.3456 370.585 76.483 370.719 76.6106ZM336.133 111.041C334.024 100.478 326.747 74.1345 319.81 49.8137C316.147 36.9692 312.583 24.7014 309.934 15.6448C308.61 11.1165 307.515 7.39046 306.751 4.79712C306.369 3.50046 306.069 2.48656 305.865 1.79712C305.779 1.50625 305.71 1.27315 305.659 1.10083H298.097C298.969 38.4362 308.737 66.1936 318.301 84.6311C323.106 93.8924 327.858 100.803 331.407 105.396C333.181 107.692 334.655 109.409 335.682 110.549C335.843 110.728 335.994 110.891 336.133 111.041ZM299.155 109.853C298.041 79.3811 293.352 52.2261 288.918 32.6282C286.678 22.7299 284.505 14.7607 282.891 9.26782C282.085 6.52153 281.418 4.39418 280.954 2.95435C280.722 2.23443 280.539 1.68623 280.416 1.3186C280.388 1.23702 280.363 1.16455 280.341 1.10083H274.609C275.44 50.445 281.81 77.7821 287.955 92.7688C291.037 100.285 294.059 104.688 296.29 107.201C297.405 108.458 298.323 109.244 298.954 109.711C299.024 109.763 299.092 109.809 299.155 109.853ZM181.88 136.618C182.819 134.19 184.167 130.706 185.797 126.486C189.056 118.044 193.446 106.653 197.967 94.8577C207.014 71.2576 216.579 46.0646 218.686 39.6047C220.809 33.0975 223.129 28.1941 224.923 24.9133C225.819 23.273 226.584 22.0381 227.127 21.2112C227.398 20.7977 227.614 20.4859 227.762 20.2766C227.837 20.1721 227.894 20.0927 227.933 20.0393C227.953 20.0126 227.969 19.9927 227.979 19.9788C227.984 19.9721 227.988 19.9669 227.991 19.9631C227.992 19.9613 227.994 19.9593 227.995 19.9583L227.996 19.9573V19.9563L228.885 20.3459L224.404 45.9299C220.441 72.0006 221.358 94.2504 223.265 109.98C224.219 117.845 225.42 124.08 226.382 128.345C226.821 130.295 227.211 131.833 227.505 132.927C229.74 120.968 231.016 97.4291 231.791 75.178C232.61 51.6517 232.871 29.574 233.134 24.4211C233.409 19.0434 237.518 14.3691 241.425 11.0911C243.394 9.4395 245.344 8.11519 246.8 7.20435C247.529 6.74862 248.136 6.39514 248.561 6.15552C248.774 6.03576 248.942 5.94489 249.056 5.88306C249.114 5.85219 249.158 5.82868 249.188 5.81274C249.203 5.80477 249.215 5.79835 249.223 5.79419C249.227 5.79219 249.23 5.7904 249.232 5.78931C249.233 5.78875 249.234 5.78865 249.235 5.78833V5.78735H249.236L250.095 5.34302L249.961 6.30103C245.685 36.6642 248.082 55.6185 252.291 73.7004C256.383 91.2804 262.219 108.142 265.29 133.822C267.044 127.814 267.34 119.898 266.824 110.682C266.246 100.357 264.657 88.4775 263.027 75.9426C259.799 51.123 256.407 23.738 260.487 1.10083H247.292L243.257 4.99341C242.571 6.11807 241.304 6.94348 239.877 7.55786C238.408 8.19016 236.695 8.63244 235.078 8.94263C233.458 9.25343 231.915 9.43465 230.779 9.53833C230.211 9.59019 229.743 9.62322 229.417 9.64282C229.253 9.65263 229.125 9.65919 229.038 9.66333C228.994 9.6654 228.96 9.66726 228.937 9.66821C228.926 9.66869 228.917 9.66896 228.911 9.66919H228.901L228.814 9.67212L228.732 9.64575C217.962 6.2253 205.522 4.0882 195.762 2.80591C190.885 2.16511 186.683 1.73825 183.7 1.47192C182.209 1.33879 181.023 1.24556 180.21 1.18579C179.803 1.15591 179.489 1.13443 179.278 1.12036C179.173 1.11334 179.092 1.10813 179.039 1.10474C179.012 1.10305 178.992 1.10166 178.978 1.10083H143.621C144.474 1.55655 145.597 2.16444 146.915 2.90063C147.898 3.44993 148.989 4.07171 150.158 4.7522C157.134 6.30183 165.054 7.63377 172.826 8.7229C187.468 10.7748 201.507 11.9511 207.565 12.0852C213.707 12.2211 218.25 13.3517 221.265 14.4563C222.773 15.0084 223.898 15.554 224.65 15.9641C225.026 16.1691 225.31 16.3397 225.501 16.4612C225.596 16.5218 225.668 16.5709 225.717 16.6047C225.742 16.6217 225.762 16.6353 225.775 16.6448C225.782 16.6494 225.787 16.6528 225.791 16.6555C225.793 16.6569 225.794 16.6585 225.796 16.6594L225.798 16.6604L225.504 17.0647L225.799 16.6604L227.063 17.5823L225.498 17.5647H225.482C225.471 17.5646 225.454 17.564 225.432 17.5637C225.389 17.5632 225.323 17.5627 225.237 17.5618C225.064 17.5599 224.805 17.5572 224.466 17.554C223.789 17.5474 222.788 17.5386 221.495 17.5286C218.909 17.5085 215.157 17.4851 210.488 17.469C201.15 17.4369 188.149 17.4362 173.496 17.5647C172.105 17.5769 170.647 17.6197 169.131 17.6887C169.608 18.0941 170.074 18.5011 170.526 18.9084C174.043 22.0761 176.804 25.3446 177.728 28.3762L177.831 28.7112L177.551 28.9211L177.251 28.5227C177.552 28.9212 177.552 28.9219 177.551 28.9221H177.55L177.549 28.9231C177.548 28.9241 177.546 28.9254 177.544 28.927C177.54 28.9301 177.534 28.9345 177.527 28.9397C177.512 28.9505 177.49 28.966 177.463 28.9856C177.407 29.0248 177.326 29.0813 177.218 29.1526C177.197 29.1669 177.174 29.1811 177.15 29.1965C181.942 28.7452 186.28 28.3016 189.982 27.9026C194.08 27.4609 197.398 27.0758 199.692 26.801C200.839 26.6636 201.73 26.5532 202.334 26.4778C202.635 26.4401 202.866 26.4115 203.02 26.3918C203.098 26.382 203.156 26.3744 203.195 26.3694C203.215 26.3669 203.229 26.3648 203.239 26.3635C203.244 26.3629 203.247 26.3629 203.25 26.3625C203.251 26.3624 203.252 26.3617 203.253 26.3616H203.254L203.571 27.2893L203.563 27.2932C203.558 27.2961 203.551 27.3004 203.542 27.3059C203.522 27.3173 203.493 27.3342 203.455 27.3567C203.378 27.4018 203.264 27.4693 203.115 27.5569C202.817 27.732 202.378 27.9899 201.816 28.3196C200.693 28.9789 199.077 29.9266 197.109 31.0803C194.371 32.6856 190.947 34.6866 187.218 36.8674C188.888 38.7955 190.81 41.1891 192.748 43.9827C193.058 44.43 193.367 44.8889 193.677 45.3567C193.718 45.3253 193.758 45.2952 193.797 45.2659C194.048 45.0735 194.24 44.9257 194.369 44.8264C194.433 44.7768 194.483 44.7393 194.515 44.7141C194.531 44.7017 194.543 44.6921 194.551 44.6858C194.556 44.6826 194.559 44.6805 194.561 44.679C194.562 44.6782 194.563 44.6774 194.563 44.677L194.564 44.676L195.214 45.4348C194.907 45.7253 194.604 46.0187 194.301 46.3108C195.89 48.7814 197.45 51.512 198.853 54.4631C202.138 49.5003 205.051 44.9601 207.42 41.1975C209.464 37.949 211.105 35.2816 212.234 33.427C212.799 32.4998 213.235 31.7756 213.531 31.2834C213.679 31.0374 213.791 30.8494 213.867 30.7229C213.904 30.66 213.933 30.6123 213.952 30.5803C213.961 30.5645 213.969 30.5522 213.973 30.5442C213.976 30.5403 213.978 30.5374 213.979 30.5354C213.98 30.5344 213.98 30.533 213.98 30.5325C213.981 30.5322 213.991 30.5387 214.411 30.7874L213.981 30.5325L214.857 31.0129C209.556 41.488 205.095 51.3153 201.338 60.4475C202.996 65.1157 204.148 70.1943 204.392 75.5667L204.411 75.9758L204.013 76.0745H204.012L204.01 76.0754C204.009 76.0757 204.008 76.0759 204.006 76.0764C204.001 76.0775 203.995 76.0784 203.987 76.0803C203.971 76.0841 203.948 76.09 203.918 76.0969C203.857 76.1107 203.768 76.1308 203.65 76.1555C203.413 76.2051 203.06 76.2744 202.589 76.3557C201.646 76.5184 200.232 76.7283 198.334 76.9192C197.333 77.0198 196.198 77.115 194.926 77.1956C190.158 90.6941 187.063 102.242 185.055 111.638C183.047 121.037 182.127 128.284 181.709 133.175C181.545 135.087 181.46 136.639 181.415 137.82C181.556 137.454 181.711 137.053 181.88 136.618ZM146.427 3.77368C144.897 2.91871 143.631 2.23612 142.749 1.76782C142.307 1.5337 141.962 1.35266 141.727 1.23071C141.62 1.17484 141.535 1.13157 141.475 1.10083H137.029C139.811 2.11405 143.113 3.06824 146.755 3.95825C146.644 3.89623 146.535 3.834 146.427 3.77368ZM132.949 74.1213C136.148 70.7634 139.337 67.5036 142.268 64.6506C146.785 60.2544 150.74 56.7732 153.181 55.4192C157.92 52.7906 170.387 45.5443 181.676 38.9514C183.029 38.1615 184.363 37.3784 185.667 36.6165C185.288 36.1918 184.928 35.7929 184.586 35.425C183.593 34.3583 182.77 33.5354 182.196 32.9797C181.909 32.702 181.684 32.4907 181.532 32.3499C181.523 32.342 181.515 32.3348 181.507 32.3274C173.203 34.8742 166.765 35.6382 162.38 35.759C160.163 35.8201 158.472 35.7174 157.33 35.5979C156.759 35.5382 156.325 35.4745 156.032 35.425C155.886 35.4004 155.774 35.3787 155.698 35.3635C155.66 35.3559 155.63 35.3503 155.61 35.3459C155.6 35.3438 155.592 35.3414 155.587 35.3401C155.584 35.3395 155.581 35.3395 155.58 35.3391L155.577 35.3381L155.688 34.8508L155.576 35.3381L155.641 34.3538C163.136 33.6422 168.48 32.0711 171.94 30.6858C171.949 30.6822 171.958 30.6787 171.967 30.675C167.589 31.0626 162.921 31.4445 158.08 31.7952C133.139 33.6018 103.517 34.591 84.9772 31.2795L84.9538 30.2991L85.0651 30.7874C84.9547 30.3025 84.9543 30.2992 84.9548 30.2991H84.9567C84.9586 30.2987 84.9619 30.2979 84.9655 30.2971C84.9728 30.2955 84.9837 30.2925 84.9977 30.2893C85.0264 30.2828 85.0694 30.2737 85.1257 30.261C85.2387 30.2354 85.4065 30.1971 85.6266 30.1477C86.0673 30.0489 86.7179 29.9045 87.5554 29.72C89.2303 29.351 91.6556 28.8232 94.6569 28.1897C100.66 26.9227 108.97 25.2306 118.196 23.5305C133.906 20.6356 152.306 17.7126 166.503 16.8303C163.777 14.671 160.778 12.5707 157.827 10.6428C155.005 8.79955 152.231 7.11767 149.788 5.6936C143.672 4.32935 138.264 2.79236 134.298 1.10083H1.28973V29.2493C18.9966 41.2451 41.9791 50.1146 60.5886 55.9934C69.927 58.9435 78.1549 61.1376 84.0475 62.594C86.9935 63.3221 89.3553 63.8663 90.9802 64.2278C91.785 64.4068 92.4092 64.5412 92.8337 64.6311L90.9216 43.0354L91.904 42.8674V42.8684C91.9041 42.869 91.9047 42.8702 91.905 42.8713C91.9056 42.8737 91.9067 42.8775 91.9079 42.8821C91.9103 42.8916 91.9139 42.9056 91.9186 42.9241C91.9283 42.9617 91.9428 43.018 91.9616 43.0911C91.9992 43.2372 92.0546 43.4522 92.1257 43.7268C92.268 44.2764 92.4741 45.0658 92.7263 46.0237C93.2308 47.9399 93.9222 50.531 94.6706 53.2317C95.4192 55.9333 96.2231 58.7419 96.9538 61.093C97.6898 63.4612 98.3373 65.3187 98.7692 66.1536C99.1588 66.9064 99.8673 67.487 100.769 67.929C101.67 68.3701 102.726 68.6546 103.75 68.8352C104.77 69.0152 105.738 69.0893 106.453 69.1174C106.698 69.1271 106.913 69.1306 107.089 69.1321L105.43 48.675L106.415 48.5149C108.668 57.6521 110.843 63.3638 112.447 66.7815C113.249 68.4901 113.908 69.6248 114.361 70.3264C114.587 70.677 114.763 70.9194 114.879 71.0715C114.906 71.1079 114.931 71.139 114.952 71.1653C120.179 72.4716 126.435 73.4263 132.949 74.1213ZM382.153 17.0266C383.501 16.6369 384.95 16.2714 386.507 15.9397C386.793 15.8786 387.073 15.8152 387.346 15.7551L385.496 13.6555C383.793 14.2272 381.783 14.8752 379.713 15.5081C380.532 16.0273 381.348 16.5343 382.153 17.0266ZM388.102 16.6135C387.657 16.7134 387.195 16.8149 386.715 16.9172C385.52 17.1717 384.392 17.448 383.326 17.7375C386.917 19.8979 390.223 21.733 392.693 23.0579C393.458 23.4681 394.143 23.8291 394.731 24.136L388.102 16.6135ZM87.6989 30.7131C106.195 33.4927 134.178 32.5243 158.008 30.7981C163.914 30.3702 169.562 29.8947 174.742 29.4202C175.132 29.2208 175.47 29.0378 175.755 28.8752C176.16 28.6438 176.459 28.455 176.657 28.3245C175.716 25.6584 173.211 22.6718 169.857 19.6506C169.156 19.0191 168.42 18.3899 167.658 17.7629C153.4 18.553 134.504 21.5422 118.377 24.5139C109.161 26.2121 100.86 27.9025 94.863 29.1682C91.8647 29.801 89.4426 30.3281 87.7702 30.6965C87.7463 30.7018 87.7226 30.7079 87.6989 30.7131ZM152.288 75.5139C154.342 74.0983 156.391 72.6731 158.416 71.2493C167.979 64.5242 177.017 57.8807 183.664 52.9182C186.987 50.4371 189.713 48.3761 191.607 46.9358C192.086 46.5715 192.511 46.2458 192.881 45.9641C192.562 45.4833 192.244 45.0116 191.925 44.552C189.964 41.7236 188.019 39.3094 186.341 37.3811C184.985 38.1745 183.593 38.9904 182.181 39.8147C170.896 46.4051 158.416 53.659 153.666 56.2942C151.362 57.5722 147.502 60.9518 142.966 65.3665C140.208 68.0502 137.219 71.0983 134.207 74.2512C140.259 74.8637 146.49 75.2608 152.288 75.5139ZM183.61 76.3909C186.203 72.8644 188.736 69.3069 191.162 65.8157C193.638 62.252 196.003 58.7573 198.209 55.4377C196.794 52.3899 195.199 49.5705 193.568 47.0208C186.876 53.5648 181.047 60.4911 176.029 67.3L181.349 76.3235C182.124 76.3516 182.877 76.3742 183.61 76.3909ZM168.842 75.925C174.32 67.4991 181.081 58.5124 189.229 49.9905C187.787 51.0791 186.118 52.3338 184.262 53.719C177.611 58.685 168.565 65.3353 158.991 72.0676C157.324 73.2401 155.638 74.412 153.948 75.5813C154.195 75.5911 154.441 75.6023 154.686 75.6116C160.05 75.8149 164.943 75.8962 168.842 75.925ZM184.833 76.4124C188.502 76.4671 191.621 76.385 194.206 76.2375C195.987 71.2257 197.998 65.9497 200.267 60.4192C199.782 59.0818 199.254 57.779 198.694 56.5129C196.584 59.6812 194.334 63.0024 191.983 66.386C189.684 69.6948 187.286 73.064 184.833 76.4124ZM195.294 76.1682C196.38 76.0948 197.36 76.012 198.234 75.9241C200.109 75.7355 201.5 75.529 202.419 75.3704C202.829 75.2995 203.145 75.2376 203.369 75.1917C203.113 70.4902 202.152 66.0158 200.763 61.8508C198.736 66.8367 196.92 71.6117 195.294 76.1682ZM171.205 75.9387C173.299 75.9436 174.986 75.9339 176.149 75.9221C176.627 75.9173 177.017 75.9117 177.31 75.9075L175.274 68.3293C173.412 70.8926 171.665 73.4358 170.031 75.9319C170.435 75.9339 170.827 75.9378 171.205 75.9387ZM151.528 111.643C157.234 107.714 163.744 101.112 170.371 93.2864C174.565 88.333 178.795 82.9011 182.885 77.3713C182.283 77.3551 181.667 77.3366 181.039 77.3127L180.766 77.302L180.628 77.0667L177.008 70.9309L178.443 76.2668L178.609 76.884L177.97 76.8967H177.963C177.958 76.8968 177.95 76.8975 177.94 76.8977C177.92 76.8981 177.89 76.898 177.851 76.8987C177.773 76.9001 177.655 76.9022 177.502 76.9045C177.195 76.9093 176.743 76.9162 176.16 76.9221C174.993 76.9339 173.301 76.9436 171.202 76.9387C170.625 76.9374 170.018 76.9319 169.383 76.928C166.345 81.6286 163.709 86.148 161.456 90.3049C157.87 96.9205 155.257 102.615 153.54 106.653C152.681 108.672 152.047 110.276 151.628 111.375C151.592 111.468 151.56 111.557 151.528 111.643ZM111.26 99.4055C113.12 98.9027 115.454 97.9573 118.162 96.6428C121.62 94.9643 125.65 92.7051 130.022 90.0627C136.506 86.1439 143.728 81.3898 150.928 76.4514C145.254 76.1851 139.204 75.7807 133.336 75.1672C131.701 76.8858 130.065 78.6271 128.462 80.3518C123.615 85.5646 119.064 90.6136 115.725 94.3596C114.056 96.2323 112.69 97.7791 111.741 98.8577C111.566 99.0562 111.406 99.2396 111.26 99.4055Z" stroke="#1D3E1E"/>
</svg>
