<svg width="321" height="404" viewBox="0 0 321 404" fill="none" xmlns="http://www.w3.org/2000/svg">
<mask id="path-1-inside-1_170_105" fill="white">
<path fill-rule="evenodd" clip-rule="evenodd" d="M250.541 0.201782C283.425 9.82562 318.7 47.4548 318.7 47.4548V67.8958C318.7 67.8958 311.269 60.0909 298.364 45.1836C285.459 30.2762 250.541 0.201782 250.541 0.201782ZM239.169 34.3183C239.169 34.3183 278.173 59.0323 290.509 77.5197C302.846 96.007 318.7 95.1986 318.7 95.1986V81.0323C318.7 81.0323 302.913 70.167 292.533 61.0821C282.153 51.9972 257.625 35.81 239.169 34.3183ZM318.7 121.221V106.555L239.92 68.9256C239.92 68.9256 268.959 99.0001 318.7 121.221ZM230.244 102.407C230.244 102.407 278.115 139.276 318.652 145.069H318.324L317.697 152.499C310.556 151.065 266.097 142.173 251.197 140.306C235.015 138.285 224.384 137.293 224.384 137.293C224.384 137.293 277.248 157.243 293.217 162.315C300.782 164.825 308.515 166.608 316.416 167.666V167.993L318.7 168.166L320.579 145.252L318.7 145.069V132.433L230.244 102.407ZM314.796 187.029L314.71 188.117L318.565 188.434L318.661 187.26V187.164L319.904 172.459L318.661 172.353H318.652L316.117 172.141V172.276L225.232 169.581C225.232 169.581 283.83 184.671 314.796 187.029ZM235.256 203.909C235.256 203.909 277.344 211.358 312.58 213.889L312.503 214.775L318.584 215.266L320.435 193.766L314.324 193.237L314.247 194.199L235.256 203.909ZM276.245 248.901C287.687 249.213 298.931 247.872 309.978 244.878L309.409 251.673L317.794 252.346L320.001 226.044L311.606 225.332L311.346 228.46C298.603 233.488 286.903 240.302 276.245 248.901Z"/>
<path fill-rule="evenodd" clip-rule="evenodd" d="M318.7 369.314C318.7 369.314 295.916 363.02 294.943 360.326C293.969 357.631 300.59 336.709 303.048 330.039C304.549 326.245 305.127 322.315 304.783 318.25C304.783 318.25 302.075 309.502 297.159 332.773C292.244 356.043 281.739 361.192 281.739 361.192C262.28 362.885 252.893 352.059 252.893 352.059C262.762 342.483 277.064 315.171 274.462 312.601C271.86 310.031 268.535 313.688 268.535 313.688C256.729 347.372 244.44 350.846 244.44 350.846C215.604 348.123 200.579 339.028 200.579 335.852C200.579 332.676 211.672 316.143 213.86 312.957C216.047 309.772 224.461 301.139 220.028 300.167C215.595 299.195 211.161 302.38 206.246 315.171C201.331 327.961 190.469 329.934 190.469 329.934C150.79 313.688 151.551 279.736 154.009 276.56C156.467 273.384 176.552 277.147 178.662 277.763C180.773 278.379 184.686 279.601 185.929 277.666C187.173 275.732 184.301 274.693 184.301 274.693C184.301 274.693 154.009 270.506 153.768 263.385C153.699 261.263 154.027 259.204 154.752 257.208C155.476 255.212 156.546 253.421 157.96 251.836C166.095 247.169 198.362 264.867 202.294 266.599C206.227 268.331 215.354 269.323 214.38 263.895C213.407 258.467 183.327 247.409 175.193 246.437C167.059 245.465 162.134 243.983 160.649 239.527C159.165 235.071 165.083 224.283 171.482 210.762C177.882 197.24 188.242 197.49 188.242 197.49C207.451 195.517 243.178 225.043 247.129 225.284C251.081 225.525 256.517 224.033 250.84 216.151C245.163 208.269 189.727 187.395 189.727 187.395C189.727 187.395 201.051 159.832 220.269 158.35C239.487 156.868 278.192 182.689 285.565 187.395C292.938 192.101 298.615 182.689 290.519 179.513C282.423 176.337 234.803 147.504 234.803 147.504C267.35 124.859 318.7 140.103 318.7 140.103L318.7 369.314Z"/>
<path fill-rule="evenodd" clip-rule="evenodd" d="M318.7 377.908L296.07 403.565H281.806C290.962 391.584 318.7 377.908 318.7 377.908ZM237.906 403.565H256.758C256.758 403.565 287.743 352.367 292.851 324.65C292.851 324.65 256.228 357.698 237.906 403.565ZM217.455 403.565H226.08C226.08 403.565 254.348 308.29 257.606 289.456C257.586 289.456 219.064 326.787 217.455 403.565ZM200.251 403.565C200.251 403.565 217.455 354.253 219.594 291.303C219.594 291.303 195.114 302.303 193.485 403.565H200.251ZM168.446 397.791C168.446 397.791 152.814 389.707 152.293 379.236C151.773 368.766 151.233 289.427 146.125 266.57C146.125 266.57 134.242 304.199 142.338 357.438L146.906 383.538C146.906 383.538 141.798 376.802 137.48 363.665C133.162 350.528 98.4374 260.931 98.4374 260.931C98.4374 260.931 97.0689 302.602 132.642 372.769C132.642 372.769 92.2307 304.719 67.4808 289.119C67.4808 289.119 80.9159 328.105 112.701 358.218C112.701 358.218 43.2225 304.719 26.0094 302.034C26.0094 302.034 60.7054 341.829 70.43 347.266C80.1545 352.703 121.327 376.811 121.327 376.811C121.327 376.811 38.3843 366.032 0.690857 372.769C0.690857 372.769 61.0138 386.483 90.9007 386.753C120.788 387.022 143.957 386.753 143.957 386.753C143.957 386.753 138.01 391.054 125.645 391.324C113.28 391.593 68.2711 396.155 51.0195 403.565H96.5388C96.5388 403.565 125.375 401.824 147.436 394.837C147.436 394.837 159.281 395.25 161.7 399.408L166.018 403.565L180.282 403.565C171.656 357.371 194.208 291.236 184.33 265.502C178.238 320.329 159.695 335.814 168.437 397.791H168.446Z"/>
</mask>
<path fill-rule="evenodd" clip-rule="evenodd" d="M250.541 0.201782C283.425 9.82562 318.7 47.4548 318.7 47.4548V67.8958C318.7 67.8958 311.269 60.0909 298.364 45.1836C285.459 30.2762 250.541 0.201782 250.541 0.201782ZM239.169 34.3183C239.169 34.3183 278.173 59.0323 290.509 77.5197C302.846 96.007 318.7 95.1986 318.7 95.1986V81.0323C318.7 81.0323 302.913 70.167 292.533 61.0821C282.153 51.9972 257.625 35.81 239.169 34.3183ZM318.7 121.221V106.555L239.92 68.9256C239.92 68.9256 268.959 99.0001 318.7 121.221ZM230.244 102.407C230.244 102.407 278.115 139.276 318.652 145.069H318.324L317.697 152.499C310.556 151.065 266.097 142.173 251.197 140.306C235.015 138.285 224.384 137.293 224.384 137.293C224.384 137.293 277.248 157.243 293.217 162.315C300.782 164.825 308.515 166.608 316.416 167.666V167.993L318.7 168.166L320.579 145.252L318.7 145.069V132.433L230.244 102.407ZM314.796 187.029L314.71 188.117L318.565 188.434L318.661 187.26V187.164L319.904 172.459L318.661 172.353H318.652L316.117 172.141V172.276L225.232 169.581C225.232 169.581 283.83 184.671 314.796 187.029ZM235.256 203.909C235.256 203.909 277.344 211.358 312.58 213.889L312.503 214.775L318.584 215.266L320.435 193.766L314.324 193.237L314.247 194.199L235.256 203.909ZM276.245 248.901C287.687 249.213 298.931 247.872 309.978 244.878L309.409 251.673L317.794 252.346L320.001 226.044L311.606 225.332L311.346 228.46C298.603 233.488 286.903 240.302 276.245 248.901Z" fill="#1D3E1E"/>
<path fill-rule="evenodd" clip-rule="evenodd" d="M318.7 369.314C318.7 369.314 295.916 363.02 294.943 360.326C293.969 357.631 300.59 336.709 303.048 330.039C304.549 326.245 305.127 322.315 304.783 318.25C304.783 318.25 302.075 309.502 297.159 332.773C292.244 356.043 281.739 361.192 281.739 361.192C262.28 362.885 252.893 352.059 252.893 352.059C262.762 342.483 277.064 315.171 274.462 312.601C271.86 310.031 268.535 313.688 268.535 313.688C256.729 347.372 244.44 350.846 244.44 350.846C215.604 348.123 200.579 339.028 200.579 335.852C200.579 332.676 211.672 316.143 213.86 312.957C216.047 309.772 224.461 301.139 220.028 300.167C215.595 299.195 211.161 302.38 206.246 315.171C201.331 327.961 190.469 329.934 190.469 329.934C150.79 313.688 151.551 279.736 154.009 276.56C156.467 273.384 176.552 277.147 178.662 277.763C180.773 278.379 184.686 279.601 185.929 277.666C187.173 275.732 184.301 274.693 184.301 274.693C184.301 274.693 154.009 270.506 153.768 263.385C153.699 261.263 154.027 259.204 154.752 257.208C155.476 255.212 156.546 253.421 157.96 251.836C166.095 247.169 198.362 264.867 202.294 266.599C206.227 268.331 215.354 269.323 214.38 263.895C213.407 258.467 183.327 247.409 175.193 246.437C167.059 245.465 162.134 243.983 160.649 239.527C159.165 235.071 165.083 224.283 171.482 210.762C177.882 197.24 188.242 197.49 188.242 197.49C207.451 195.517 243.178 225.043 247.129 225.284C251.081 225.525 256.517 224.033 250.84 216.151C245.163 208.269 189.727 187.395 189.727 187.395C189.727 187.395 201.051 159.832 220.269 158.35C239.487 156.868 278.192 182.689 285.565 187.395C292.938 192.101 298.615 182.689 290.519 179.513C282.423 176.337 234.803 147.504 234.803 147.504C267.35 124.859 318.7 140.103 318.7 140.103L318.7 369.314Z" fill="#4D9B44"/>
<path fill-rule="evenodd" clip-rule="evenodd" d="M318.7 377.908L296.07 403.565H281.806C290.962 391.584 318.7 377.908 318.7 377.908ZM237.906 403.565H256.758C256.758 403.565 287.743 352.367 292.851 324.65C292.851 324.65 256.228 357.698 237.906 403.565ZM217.455 403.565H226.08C226.08 403.565 254.348 308.29 257.606 289.456C257.586 289.456 219.064 326.787 217.455 403.565ZM200.251 403.565C200.251 403.565 217.455 354.253 219.594 291.303C219.594 291.303 195.114 302.303 193.485 403.565H200.251ZM168.446 397.791C168.446 397.791 152.814 389.707 152.293 379.236C151.773 368.766 151.233 289.427 146.125 266.57C146.125 266.57 134.242 304.199 142.338 357.438L146.906 383.538C146.906 383.538 141.798 376.802 137.48 363.665C133.162 350.528 98.4374 260.931 98.4374 260.931C98.4374 260.931 97.0689 302.602 132.642 372.769C132.642 372.769 92.2307 304.719 67.4808 289.119C67.4808 289.119 80.9159 328.105 112.701 358.218C112.701 358.218 43.2225 304.719 26.0094 302.034C26.0094 302.034 60.7054 341.829 70.43 347.266C80.1545 352.703 121.327 376.811 121.327 376.811C121.327 376.811 38.3843 366.032 0.690857 372.769C0.690857 372.769 61.0138 386.483 90.9007 386.753C120.788 387.022 143.957 386.753 143.957 386.753C143.957 386.753 138.01 391.054 125.645 391.324C113.28 391.593 68.2711 396.155 51.0195 403.565H96.5388C96.5388 403.565 125.375 401.824 147.436 394.837C147.436 394.837 159.281 395.25 161.7 399.408L166.018 403.565L180.282 403.565C171.656 357.371 194.208 291.236 184.33 265.502C178.238 320.329 159.695 335.814 168.437 397.791H168.446Z" fill="#1D3E1E"/>
<path fill-rule="evenodd" clip-rule="evenodd" d="M250.541 0.201782C283.425 9.82562 318.7 47.4548 318.7 47.4548V67.8958C318.7 67.8958 311.269 60.0909 298.364 45.1836C285.459 30.2762 250.541 0.201782 250.541 0.201782ZM239.169 34.3183C239.169 34.3183 278.173 59.0323 290.509 77.5197C302.846 96.007 318.7 95.1986 318.7 95.1986V81.0323C318.7 81.0323 302.913 70.167 292.533 61.0821C282.153 51.9972 257.625 35.81 239.169 34.3183ZM318.7 121.221V106.555L239.92 68.9256C239.92 68.9256 268.959 99.0001 318.7 121.221ZM230.244 102.407C230.244 102.407 278.115 139.276 318.652 145.069H318.324L317.697 152.499C310.556 151.065 266.097 142.173 251.197 140.306C235.015 138.285 224.384 137.293 224.384 137.293C224.384 137.293 277.248 157.243 293.217 162.315C300.782 164.825 308.515 166.608 316.416 167.666V167.993L318.7 168.166L320.579 145.252L318.7 145.069V132.433L230.244 102.407ZM314.796 187.029L314.71 188.117L318.565 188.434L318.661 187.26V187.164L319.904 172.459L318.661 172.353H318.652L316.117 172.141V172.276L225.232 169.581C225.232 169.581 283.83 184.671 314.796 187.029ZM235.256 203.909C235.256 203.909 277.344 211.358 312.58 213.889L312.503 214.775L318.584 215.266L320.435 193.766L314.324 193.237L314.247 194.199L235.256 203.909ZM276.245 248.901C287.687 249.213 298.931 247.872 309.978 244.878L309.409 251.673L317.794 252.346L320.001 226.044L311.606 225.332L311.346 228.46C298.603 233.488 286.903 240.302 276.245 248.901Z" stroke="#1D3E1E" stroke-width="2" mask="url(#path-1-inside-1_170_105)"/>
<path fill-rule="evenodd" clip-rule="evenodd" d="M318.7 369.314C318.7 369.314 295.916 363.02 294.943 360.326C293.969 357.631 300.59 336.709 303.048 330.039C304.549 326.245 305.127 322.315 304.783 318.25C304.783 318.25 302.075 309.502 297.159 332.773C292.244 356.043 281.739 361.192 281.739 361.192C262.28 362.885 252.893 352.059 252.893 352.059C262.762 342.483 277.064 315.171 274.462 312.601C271.86 310.031 268.535 313.688 268.535 313.688C256.729 347.372 244.44 350.846 244.44 350.846C215.604 348.123 200.579 339.028 200.579 335.852C200.579 332.676 211.672 316.143 213.86 312.957C216.047 309.772 224.461 301.139 220.028 300.167C215.595 299.195 211.161 302.38 206.246 315.171C201.331 327.961 190.469 329.934 190.469 329.934C150.79 313.688 151.551 279.736 154.009 276.56C156.467 273.384 176.552 277.147 178.662 277.763C180.773 278.379 184.686 279.601 185.929 277.666C187.173 275.732 184.301 274.693 184.301 274.693C184.301 274.693 154.009 270.506 153.768 263.385C153.699 261.263 154.027 259.204 154.752 257.208C155.476 255.212 156.546 253.421 157.96 251.836C166.095 247.169 198.362 264.867 202.294 266.599C206.227 268.331 215.354 269.323 214.38 263.895C213.407 258.467 183.327 247.409 175.193 246.437C167.059 245.465 162.134 243.983 160.649 239.527C159.165 235.071 165.083 224.283 171.482 210.762C177.882 197.24 188.242 197.49 188.242 197.49C207.451 195.517 243.178 225.043 247.129 225.284C251.081 225.525 256.517 224.033 250.84 216.151C245.163 208.269 189.727 187.395 189.727 187.395C189.727 187.395 201.051 159.832 220.269 158.35C239.487 156.868 278.192 182.689 285.565 187.395C292.938 192.101 298.615 182.689 290.519 179.513C282.423 176.337 234.803 147.504 234.803 147.504C267.35 124.859 318.7 140.103 318.7 140.103L318.7 369.314Z" stroke="#1D3E1E" stroke-width="2" mask="url(#path-1-inside-1_170_105)"/>
<path fill-rule="evenodd" clip-rule="evenodd" d="M318.7 377.908L296.07 403.565H281.806C290.962 391.584 318.7 377.908 318.7 377.908ZM237.906 403.565H256.758C256.758 403.565 287.743 352.367 292.851 324.65C292.851 324.65 256.228 357.698 237.906 403.565ZM217.455 403.565H226.08C226.08 403.565 254.348 308.29 257.606 289.456C257.586 289.456 219.064 326.787 217.455 403.565ZM200.251 403.565C200.251 403.565 217.455 354.253 219.594 291.303C219.594 291.303 195.114 302.303 193.485 403.565H200.251ZM168.446 397.791C168.446 397.791 152.814 389.707 152.293 379.236C151.773 368.766 151.233 289.427 146.125 266.57C146.125 266.57 134.242 304.199 142.338 357.438L146.906 383.538C146.906 383.538 141.798 376.802 137.48 363.665C133.162 350.528 98.4374 260.931 98.4374 260.931C98.4374 260.931 97.0689 302.602 132.642 372.769C132.642 372.769 92.2307 304.719 67.4808 289.119C67.4808 289.119 80.9159 328.105 112.701 358.218C112.701 358.218 43.2225 304.719 26.0094 302.034C26.0094 302.034 60.7054 341.829 70.43 347.266C80.1545 352.703 121.327 376.811 121.327 376.811C121.327 376.811 38.3843 366.032 0.690857 372.769C0.690857 372.769 61.0138 386.483 90.9007 386.753C120.788 387.022 143.957 386.753 143.957 386.753C143.957 386.753 138.01 391.054 125.645 391.324C113.28 391.593 68.2711 396.155 51.0195 403.565H96.5388C96.5388 403.565 125.375 401.824 147.436 394.837C147.436 394.837 159.281 395.25 161.7 399.408L166.018 403.565L180.282 403.565C171.656 357.371 194.208 291.236 184.33 265.502C178.238 320.329 159.695 335.814 168.437 397.791H168.446Z" stroke="#1D3E1E" stroke-width="2" mask="url(#path-1-inside-1_170_105)"/>
</svg>
