<svg width="648" height="620" viewBox="0 0 648 620" fill="none" xmlns="http://www.w3.org/2000/svg">
<path d="M346.456 159.936C363.322 164.719 417.33 181.786 445.904 211.35C445.904 211.35 474.299 236.57 468.191 243.873C477.563 255.045 516.325 301.97 506.848 303.13C508.253 307.064 509.319 310.954 509.739 315.24C509.938 317.275 510.476 321.039 507.922 321.746C506.347 322.184 505.01 321.246 503.77 320.103C503.774 322.292 503.424 324.301 502.396 325.743C499.872 329.28 497.472 327.632 495.177 324.974C492.722 322.138 490.519 318.994 488.025 316.13C488.486 317.34 488.767 318.567 488.705 319.808C485.063 315.536 479.82 313.587 475.425 310.289C472.495 308.092 469.809 305.002 466.787 302.921C467.431 304.566 468.191 306.169 468.44 307.755C464.192 306.2 455.406 297.851 450.763 296.292C447.793 298.635 443.39 296.86 440.567 294.876C437.903 292.994 436.244 291.082 433.692 290.396C432.143 292.589 430.219 294.084 426.971 293.308C425.154 292.874 423.447 291.192 421.677 290.659C422.779 294.941 422.184 299.176 416.151 297.659C413.58 297.01 410.139 294.518 407.947 292.221C400.601 295.87 390.017 291.481 383.448 286.192C384.103 289.666 386.332 300.754 389.737 309.358C389.737 309.358 406.708 345.772 415.871 358.409C415.871 358.409 420.381 364.347 420.069 370.029C420.069 370.029 421.346 380.583 422.86 386.915C422.86 386.915 436.284 433.786 440.469 445.604C440.469 445.604 451.137 477.36 457.778 488.683C458.605 488.894 459.522 488.987 460.212 489.287C461.399 489.801 462.426 490.547 463.486 491.321C465.484 492.743 467.564 494.268 469.514 495.772C473.56 498.894 477.992 501.432 482.476 503.618C483.245 503.987 485.475 504.181 485.903 504.941C486.834 506.618 484.699 506.751 483.611 506.788C481.014 506.9 477.838 506.234 475.708 505.075C473.685 503.965 471.954 502.431 469.919 501.302C468.783 500.681 467.687 500.189 466.512 499.658C465.726 499.294 464.904 499.079 464.074 498.889C464.247 501.829 464.976 505.514 463.475 507.714C461.657 510.375 458.275 509.889 455.72 510.726C455.305 511.431 454.924 512.16 454.636 512.936C454.087 514.379 453.99 515.991 453.453 517.452C452.46 520.235 450.887 522.587 448.555 524.499C446.451 526.212 444.394 528.263 441.994 529.55C440.124 530.574 433.91 531.003 437.386 528.111C439.376 526.442 441.171 524.766 442.69 522.695C443.417 521.71 445.601 519.146 446.186 517.434C443.23 516.781 440.612 517.488 437.585 518.366C432.227 519.918 426.035 520.069 420.422 519.49C417.424 519.181 414.371 518.958 411.344 518.626C409.518 518.433 403.329 519.092 404.455 515.895C407.789 514.875 410.311 515.268 413.955 515.281C417.391 515.309 420.843 514.918 424.206 514.743C429.733 514.463 434.587 513.332 439.162 510.014C441.326 508.443 447.193 504.82 448.761 502.035C447.195 498.965 446.247 492.794 446.247 492.794C445.632 487.062 439.087 467.395 439.087 467.395L414.513 393.256C412.331 385.599 409.874 382.89 409.874 382.89C404.105 376.137 404.149 368.604 404.149 368.604C403.483 356.991 376.841 306.998 376.841 306.998C371.439 296.832 360.901 286.621 356.925 282.969C355.238 282.842 353.569 282.632 351.976 282.206C350.648 281.849 349.395 281.29 348.145 280.713C346.442 285.556 341.918 298.153 339.949 301.292L339.862 301.287C339.297 308.78 338.118 324.568 337.837 329.67C337.837 329.67 336.069 358.432 336.988 368.78C336.988 368.78 338.531 374.564 334.11 380.566C334.11 380.566 328.14 387.588 323.354 396.885L301.595 437.412C301.595 437.412 277.483 487.013 278.969 493.712C278.969 493.712 280.148 495.373 280.308 497.228C281.547 498.693 283.81 500.325 285.024 501.254C287.102 502.871 289.129 504.418 291.491 505.467C292.681 506.002 293.875 506.44 295.177 506.771C296.304 507.065 298.495 507.076 299.417 507.697C302.893 510.052 295.377 510.058 294.07 509.986C290.155 509.771 287.641 508.383 284.346 506.738C282.008 505.568 279.674 504.14 277.167 503.405C273.747 504.348 272.046 507.273 269.57 509.974C267.671 512.033 264.935 513.005 262.413 514.077C260.012 515.114 257.245 516.49 254.815 516.818C250.227 517.472 253.368 513.284 255.154 511.744C255.661 511.289 258.299 509.49 259.516 508.275C256.999 506.337 247.628 507.152 245.469 507.49C239.672 508.395 233.738 508.268 227.74 508.539C224.703 508.669 221.508 508.451 218.445 508.587C216.155 508.686 211.52 509.393 209.571 508.066C209.512 504.968 218.442 504.471 220.526 504.282C223.589 504.001 226.39 503.385 229.349 503.12C232.275 502.844 235.211 503.014 238.13 502.268C240.851 501.579 243.357 500.773 246.219 500.74C248.904 500.709 250.909 499.939 253.271 499.476C251.758 498.656 250.008 498.17 248.468 497.693C246.663 497.128 242.642 494.066 246.73 494.527C251.474 495.059 255.746 497.242 260.665 497.656C261.715 497.349 262.671 496.889 263.742 496.178C265.067 491.169 271.317 480.61 271.317 480.61L290.995 440.699L314.486 392.359C316.634 387.142 316.906 382.194 316.906 382.194C317.478 374.173 321.191 368.822 323.552 366.191C325.383 356.292 329.077 319.815 329.077 319.815C329.696 308.558 329.265 298.931 329.014 294.937C326.719 289.459 324.697 280.973 324.697 280.973C323.958 276.873 321.388 271.731 319.688 268.644C317.051 266.792 314.251 265.161 311.718 263.435C307.847 260.8 305.685 257.633 303.292 254.368C296.131 252.459 287.42 250.045 282.683 244.696C282.69 245.954 282.991 247.266 283.482 248.331C281.148 247.669 280.382 244.532 279.06 243.02C279.242 244.02 279.238 245.324 279.474 246.277C277.321 244.947 275.889 242.968 274.597 240.911C268.297 248.22 251.317 245.509 251.317 245.509C220.835 236.383 222.487 206.48 225.215 192.107C212.102 205.71 184.223 227.482 184.223 227.482C158.96 247.052 142.248 253.484 142.248 253.484C143.203 249.497 151.144 240.369 151.144 240.369C167.573 222.456 206.826 163.131 215.821 149.437C216.698 146.107 219.084 139.506 225.076 133.958C225.076 133.958 240.559 119.55 257.887 129.325C257.887 129.325 275.22 137.171 270.803 153.491C271.424 157.582 272.593 164.657 273.823 169.39C275.797 167.975 278.458 166.351 281.115 165.599C284.336 160.268 296.201 144.539 321.717 149.014C321.717 149.014 339.774 153.014 346.456 159.936Z" fill="#1E1E1E"/>
<path d="M230.249 152.854C229.058 155.528 229.867 158.487 232.056 159.463C234.246 160.438 236.987 159.061 238.179 156.387C239.371 153.712 238.562 150.753 236.372 149.777C234.182 148.802 231.441 150.179 230.249 152.854Z" fill="#FBD300"/>
</svg>
