<svg width="101" height="87" viewBox="0 0 101 87" fill="none" xmlns="http://www.w3.org/2000/svg">
<path d="M16.3756 37.2501C15.8799 38.2182 15.4222 39.0989 14.9737 39.9826C14.7627 40.3994 14.5657 40.8232 14.3596 41.2439C13.5026 42.9933 13.5207 44.7966 14.1067 46.6375C14.7255 48.5812 15.7647 50.2144 16.8971 51.7837C17.1749 52.1696 17.4679 52.5425 17.8187 53.0129C17.5565 52.9822 17.3869 52.9673 17.2192 52.9371C15.7455 52.6726 14.2652 52.4493 12.7806 52.3663C10.7991 52.261 8.81441 52.1913 6.83338 52.4543C5.58025 52.6223 4.34135 52.8273 3.12851 53.231C2.71639 53.3705 2.31778 53.5421 1.94343 53.7884C0.656725 54.6354 0.231972 56.0121 0.668326 57.7444C1.26396 60.1259 2.34602 62.2083 3.61108 64.1685C5.4326 66.9899 7.50948 69.5447 9.96644 71.6381C11.4413 72.893 13.0425 73.9079 14.7215 74.7574C17.6378 76.2336 20.709 77.0109 23.8378 77.5473C27.8836 78.2437 31.8426 79.3263 35.6351 81.145C36.5846 81.6019 37.5185 82.0968 38.4348 82.6452C39.3986 83.2236 40.1592 84.0728 40.9034 84.9552C41.4587 85.6126 42.0884 86.1104 42.8933 86.2386C43.3246 86.3092 43.7493 86.2518 44.1469 86.0455C45.4137 85.3768 45.5472 83.4427 44.4059 82.3482C44.1249 82.0824 43.8181 81.8717 43.4724 81.7437C43.2312 81.6539 42.9864 81.54 42.7374 81.5115C40.762 81.3054 39.255 80.0372 37.8327 78.5923C37.4513 78.2028 37.0548 77.8263 36.758 77.3447C36.4169 76.7976 36.5295 76.411 37.097 76.2495C37.9896 75.9963 38.9082 76.0264 39.8171 76.0486C42.1386 76.1039 44.4581 76.1745 46.7754 76.2307C47.8003 76.2539 48.7762 76.6307 49.7813 76.7774C50.5632 76.8954 51.3465 76.9385 52.1071 76.6078C52.4046 76.4769 52.6698 76.3029 52.9017 76.0511C53.7268 75.1597 53.5535 73.8014 52.5466 73.2219C51.7227 72.7441 50.8278 72.729 50.0095 73.0467C47.081 74.1865 44.1347 73.9461 41.1711 73.3956C40.716 73.3099 40.259 73.2396 39.7948 73.0663C39.8882 72.9475 39.9981 72.9647 40.0897 72.9459C42.1203 72.5582 44.1446 72.1569 46.1796 71.7981C47.0903 71.6357 47.9981 71.8473 48.9043 71.9646C49.8015 72.0788 50.6841 72.0417 51.5043 71.5395C52.2422 71.0891 52.6429 70.3695 52.559 69.6798C52.4706 68.9612 51.8683 68.3334 51.0808 68.122C50.2131 67.8922 49.3687 68.011 48.5828 68.4564C47.2958 69.189 45.944 69.6661 44.5333 69.9264C43.7697 70.0684 43.0061 70.2105 42.2326 70.2601C41.9355 70.2813 41.8686 70.1806 41.9594 69.8483C42.1113 69.2695 41.9602 68.8425 41.5333 68.4922C41.2436 68.2531 40.9133 68.1418 40.5682 68.0734C39.6788 67.8979 38.806 68.0275 37.9806 68.4113C36.6578 69.0219 35.2878 69.0995 33.894 68.9928C32.9612 68.9258 32.0298 68.8684 31.0973 68.7764C31.7318 68.7156 32.3664 68.6847 32.9903 68.5265C33.6356 68.3689 34.2709 68.1736 34.8682 67.8417C36.5771 66.8929 37.4627 65.0779 37.2864 62.8292C37.2566 62.4371 37.3845 62.3759 37.6631 62.3734C39.0238 62.3475 40.3899 62.3852 41.7458 62.2158C43.3884 62.0125 45.0112 61.7086 46.6203 61.2583C48.5136 60.7296 50.3489 60.0186 52.129 59.1149C55.0717 57.6187 57.8411 55.7748 60.2637 53.2904C60.4048 53.1468 60.5497 52.8034 60.693 52.8984C60.8788 53.0195 60.7219 53.3405 60.6836 53.5674C60.5145 54.6227 60.3396 55.6692 60.3896 56.7542C60.4556 58.1693 60.9838 59.2953 61.939 60.1543C62.9082 61.0203 64.0179 61.5986 65.1391 62.1396C67.7666 63.4114 70.4837 64.371 73.2753 65.0316C75.8135 65.6347 78.372 65.8652 80.9567 65.5926C81.7507 65.509 82.5341 65.328 83.3222 65.2058C84.7187 64.9933 86.1076 65.0113 87.4747 65.4769C88.5527 65.8477 89.4428 66.5059 90.0861 67.5983C90.3407 68.0288 90.5995 68.4585 90.9512 68.7944C91.5733 69.3833 92.2657 69.674 93.0409 69.2707C94.1501 68.6941 94.3935 67.0013 93.539 65.9026C93.1757 65.4346 92.7261 65.104 92.2124 64.9159C91.6625 64.7153 91.0984 64.5625 90.5424 64.3781C89.9593 64.1844 89.4766 63.8058 89.0897 63.268C88.5784 62.5617 88.6911 62.0358 89.4201 61.6668C89.9941 61.3795 90.5932 61.1717 91.1896 60.9744C92.2223 60.6276 93.2624 60.3291 94.288 59.9639C95.1391 59.6644 95.9813 59.6157 96.8507 59.8003C97.587 59.9575 98.3288 60.0937 99.0872 59.9179C100.244 59.6502 100.671 58.3726 99.9559 57.29C99.4024 56.448 98.3535 56.0713 97.4248 56.3966C97.1278 56.5025 96.8216 56.6053 96.5515 56.7754C95.654 57.3333 94.6782 57.519 93.6843 57.6139C92.5799 57.7165 91.481 57.8827 90.369 57.9073C90.078 57.9124 89.7904 57.9118 89.5057 57.8459C89.159 57.7678 89.0266 57.4914 89.1698 57.1085C89.2248 56.9628 89.3119 56.8304 89.3913 56.7045C89.9122 55.9005 89.9503 55.111 89.5044 54.4112C89.081 53.7466 88.1888 53.4969 87.4594 53.8062C86.8102 54.0791 86.4436 54.6573 86.1523 55.3345C85.861 56.0117 85.5045 56.6276 85.067 57.1905C84.1748 58.3447 83.0728 58.7157 81.7783 58.4442C80.3591 58.1437 79.0362 57.4898 77.7013 56.8981C75.2428 55.8056 72.8126 54.6177 70.2562 53.8391C69.6843 53.663 69.1092 53.5224 68.5303 53.4125C68.0264 53.317 68.0215 53.313 68.1413 52.7208C68.4876 51.0267 68.7975 49.3202 69.0769 47.61C69.1752 47.0173 69.2602 46.4223 69.3411 45.8282C69.3718 45.6079 69.4332 45.5604 69.6112 45.6582C71.9104 46.8879 74.3575 47.4003 76.8617 47.6122C77.1266 47.6324 77.3917 47.6824 77.6526 47.7333C78.1976 47.8452 78.6401 48.1575 78.9878 48.6634C79.3776 49.2205 79.7131 49.8435 80.3071 50.1644C81.0373 50.5618 81.9294 50.4182 82.3838 49.7971C82.8841 49.1117 82.8023 48.1827 82.1944 47.6307C82.1202 47.5663 82.0425 47.5076 81.9691 47.448C81.5206 47.0972 81.5094 46.7709 81.9583 46.3949C82.4307 46.004 82.9767 45.8419 83.5369 45.7168C84.8847 45.4098 86.2503 45.4724 87.6078 45.3974C88.6972 45.3377 89.7435 45.5009 90.7799 45.8801C91.4071 46.1096 92.0553 46.1107 92.6911 45.8904C93.1634 45.7236 93.5436 45.4313 93.632 44.8307C93.7205 44.23 93.5395 43.7197 93.1173 43.3435C92.541 42.8298 91.8793 42.712 91.1812 42.8057C90.8364 42.8517 90.4959 42.9267 90.17 43.0684C89.3341 43.4394 88.465 43.5086 87.5768 43.3976C86.4084 43.2495 85.2403 43.1313 84.0633 42.9552C84.9543 42.299 85.8456 41.6727 86.8946 41.4321C87.5872 41.2747 88.2985 41.2678 88.9867 41.0815C89.3491 40.9821 89.6981 40.8506 90.0205 40.63C90.7856 40.1043 90.8016 39.0854 90.0246 38.5781C89.2001 38.0408 88.2767 37.9519 87.5267 38.6039C86.587 39.4194 85.5985 39.9712 84.4684 40.2982C83.4733 40.5824 82.5079 41.0049 81.5252 41.3415C79.9149 41.8966 78.3289 41.6552 76.7373 41.181C75.496 40.809 74.2728 40.3586 73.0189 40.044C72.6889 39.9625 72.6464 39.797 72.8646 39.4833C73.1705 39.0421 73.5501 38.6902 73.9621 38.3815C74.5405 37.9539 75.1529 37.6089 75.7953 37.3474C77.1084 36.8135 78.2617 35.964 79.2094 34.8084C81.6092 31.8656 84.4807 29.707 87.5048 27.7609C90.9033 25.5686 94.0121 22.9132 96.7941 19.7475C97.2074 19.2792 97.5948 18.7813 97.9472 18.2509C99.073 16.5757 99.0811 14.747 98.5034 12.8198C98.1362 11.596 97.4204 10.7874 96.3964 10.3209C93.6713 9.08417 90.9024 8.01074 88.0347 7.30114C86.26 6.86458 84.9089 5.77342 84.0578 3.88249C82.9983 1.52663 81.2713 0.587432 79.0539 0.904025C77.5288 1.11806 76.442 2.17789 75.6879 3.70196C75.4818 4.12268 75.3093 4.56637 75.1911 5.02875C74.7338 6.81039 73.6528 7.73959 72.1386 8.08083C68.9854 8.78897 65.9649 9.97262 62.995 11.3749C60.6014 12.5043 58.103 13.257 55.5329 13.5963C52.8954 13.9445 50.2535 13.7859 47.6199 13.4015C44.7666 12.9826 41.9265 13.0439 39.1116 13.7472C38.0947 14.0012 37.0801 14.2695 36.1243 14.7548C35.8456 14.8968 35.7753 14.8017 35.7232 14.4888C35.4642 12.9341 34.7194 12.3007 33.3585 12.4661C31.7534 12.6617 30.26 13.3073 28.8186 14.0966C25.5589 15.877 22.6374 18.2699 19.7936 20.8062C17.8216 22.5608 15.9474 24.4496 14.1499 26.4471C12.7046 28.0536 11.295 29.6975 10.0944 31.5573C9.47013 32.527 8.9088 33.5435 8.6401 34.7337C8.09778 37.1103 9.55502 39.1206 11.6759 38.9582C13.2962 38.8341 14.8017 38.2955 16.1936 37.3223C16.2205 37.3019 16.2545 37.2999 16.3813 37.2589L16.3756 37.2501ZM15.2595 65.0787C20.1084 66.7897 24.9824 68.3562 30.1599 68.7352C30.0309 68.7617 29.9866 68.7808 29.9435 68.7797C27.774 68.7081 25.6101 68.8693 23.4429 68.8968C22.1537 68.913 20.8884 68.8048 19.6717 68.2286C18.0476 67.4574 16.7127 66.1638 15.2588 65.0738L15.2595 65.0787Z" fill="#1E1E1E"/>
<path d="M83.1106 3.77879C83.1106 4.48757 82.6153 5.06214 82.0043 5.06214C81.3933 5.06214 80.898 4.48757 80.898 3.77879C80.898 3.07001 81.3933 2.49543 82.0043 2.49543C82.6153 2.49543 83.1106 3.07001 83.1106 3.77879Z" fill="#FBD300"/>
<path d="M88.642 15.329C88.642 16.0378 88.1467 16.6124 87.5358 16.6124C86.9248 16.6124 86.4295 16.0378 86.4295 15.329C86.4295 14.6202 86.9248 14.0456 87.5358 14.0456C88.1467 14.0456 88.642 14.6202 88.642 15.329Z" fill="#FBD300"/>
</svg>
