<svg width="230" height="168" viewBox="0 0 230 168" fill="none" xmlns="http://www.w3.org/2000/svg">
<path d="M237.883 110.764C246.597 115.955 274.242 133.553 285.804 154.342C285.804 154.342 297.914 172.677 293.41 175.848C296.983 183.492 311.649 215.506 306.179 214.74C306.377 217.149 306.393 219.483 305.988 221.942C305.796 223.109 305.535 225.293 304.002 225.307C303.056 225.317 302.448 224.594 301.926 223.769C301.601 224.994 301.106 226.065 300.316 226.717C298.378 228.318 297.282 227.039 296.395 225.21C295.446 223.259 294.684 221.173 293.717 219.199C293.794 219.945 293.768 220.673 293.548 221.357C292.15 218.425 289.51 216.554 287.545 214.054C286.235 212.389 285.194 210.261 283.816 208.647C283.93 209.662 284.116 210.672 284.019 211.596C281.876 210.093 278.21 204.115 275.847 202.55C273.837 203.417 271.641 201.768 270.359 200.238C269.151 198.788 268.508 197.472 267.184 196.708C265.991 197.703 264.692 198.251 262.993 197.333C262.041 196.819 261.338 195.624 260.428 195.062C260.406 197.62 259.441 199.899 256.295 198.151C254.955 197.404 253.403 195.498 252.52 193.887C247.869 194.83 242.607 190.798 239.724 186.861C239.572 188.901 239.164 195.432 239.784 200.75C239.784 200.75 243.838 223.637 247.074 232.069C247.074 232.069 248.71 236.061 247.687 239.191C247.687 239.191 246.827 245.281 246.729 249.046C246.729 249.046 247.24 277.25 247.816 284.481C247.816 284.481 249.042 303.825 251.065 311.145C251.496 311.386 251.994 311.575 252.335 311.846C252.922 312.31 253.385 312.881 253.862 313.471C254.766 314.564 255.702 315.727 256.568 316.859C258.363 319.208 260.462 321.288 262.643 323.178C263.018 323.499 264.235 323.941 264.361 324.429C264.631 325.506 263.418 325.262 262.804 325.12C261.336 324.795 259.66 323.949 258.642 322.983C257.677 322.061 256.938 320.945 255.968 320.011C255.427 319.494 254.887 319.055 254.309 318.583C253.924 318.262 253.497 318.019 253.061 317.79C252.72 319.459 252.577 321.628 251.41 322.633C249.997 323.85 248.179 323.073 246.626 323.16C246.288 323.492 245.967 323.843 245.69 324.234C245.167 324.958 244.873 325.845 244.354 326.582C243.384 327.989 242.154 329.069 240.565 329.791C239.133 330.434 237.677 331.274 236.144 331.635C234.946 331.928 231.408 331.241 233.783 330.143C235.144 329.507 236.398 328.838 237.556 327.907C238.109 327.465 239.713 326.357 240.295 325.487C238.74 324.681 237.171 324.686 235.348 324.725C232.121 324.794 228.637 323.954 225.586 322.793C223.956 322.173 222.283 321.593 220.64 320.956C219.648 320.575 216.091 320.02 217.197 318.401C219.212 318.328 220.564 318.924 222.599 319.475C224.516 320.004 226.503 320.3 228.409 320.704C231.541 321.372 234.423 321.464 237.475 320.292C238.92 319.737 242.74 318.587 244.032 317.264C243.615 315.313 244.005 311.723 244.005 311.723C244.517 308.427 243.792 296.456 243.792 296.456L241.117 251.346C241.039 246.74 240.07 244.859 240.07 244.859C237.853 240.223 239.001 236.018 239.001 236.018C240.361 229.428 232.927 197.506 232.927 197.506C231.424 191.018 227.057 183.737 225.379 181.103C224.454 180.78 223.553 180.413 222.726 179.938C222.037 179.54 221.42 179.04 220.807 178.531C219.133 180.985 214.724 187.352 213.155 188.813L213.108 188.797C211.673 192.901 208.659 201.55 207.741 204.361C207.741 204.361 202.461 220.175 201.431 226.097C201.431 226.097 201.431 229.56 198.064 232.256C198.064 232.256 193.679 235.291 189.616 239.774L171.407 259.182C171.407 259.182 150.528 283.312 150.359 287.279C150.359 287.279 150.77 288.383 150.583 289.444C151.057 290.448 152.078 291.697 152.618 292.398C153.539 293.612 154.441 294.779 155.605 295.718C156.19 296.195 156.793 296.618 157.471 296.997C158.057 297.329 159.28 297.662 159.703 298.147C161.295 299.982 157.092 298.864 156.372 298.629C154.216 297.924 153.018 296.774 151.421 295.362C150.289 294.359 149.197 293.213 147.905 292.428C145.853 292.445 144.465 293.826 142.678 294.967C141.31 295.835 139.635 295.97 138.066 296.193C136.569 296.414 134.817 296.771 133.409 296.592C130.747 296.272 133.128 294.4 134.356 293.805C134.707 293.627 136.45 293.015 137.312 292.517C136.194 291.058 130.834 290.116 129.576 289.982C126.201 289.624 122.903 288.667 119.509 287.924C117.792 287.543 116.039 286.945 114.306 286.564C113.011 286.278 110.315 285.981 109.423 284.949C109.853 283.208 114.919 284.263 116.112 284.467C117.866 284.768 119.523 284.841 121.217 285.134C122.894 285.417 124.51 285.95 126.253 285.969C127.877 285.989 129.398 285.913 131.003 286.321C132.508 286.704 133.744 286.573 135.133 286.666C134.41 285.983 133.504 285.45 132.715 284.953C131.79 284.368 129.999 282.056 132.215 282.924C134.788 283.929 136.85 285.787 139.538 286.752C140.171 286.737 140.774 286.623 141.479 286.385C142.967 283.783 148.036 278.813 148.036 278.813L164.99 259.438L185.334 235.92C187.313 233.325 188.204 230.599 188.204 230.599C189.72 226.201 192.594 223.764 194.307 222.645C196.807 217.384 204.314 197.545 204.314 197.545C206.34 191.344 207.535 185.899 207.991 183.629C207.525 180.224 207.661 175.179 207.661 175.179C207.86 172.776 207.19 169.518 206.7 167.539C205.503 166.111 204.181 164.781 203.022 163.438C201.251 161.388 200.515 159.295 199.665 157.113C195.947 154.977 191.437 152.328 189.587 148.631C189.403 149.335 189.376 150.114 189.492 150.782C188.286 150.064 188.325 148.196 187.812 147.153C187.764 147.74 187.568 148.468 187.557 149.036C186.552 147.972 186.047 146.651 185.632 145.309C181.02 148.455 171.932 144.406 171.932 144.406C156.254 134.756 161.639 118.287 165.308 110.659C155.949 116.307 137.116 124.319 137.116 124.319C120.074 131.489 109.772 132.591 109.772 132.591C110.901 130.505 116.702 126.587 116.702 126.587C128.558 119.025 159.351 91.7182 166.423 85.4052C167.41 83.6745 169.729 80.3402 173.906 78.1332C173.906 78.1332 184.711 72.3886 192.939 80.4387C192.939 80.4387 201.458 87.4103 196.554 95.8744C196.291 98.2537 195.888 102.383 195.87 105.213C197.184 104.716 198.914 104.205 200.511 104.181C203.107 101.682 212.087 94.6593 225.683 100.968C225.683 100.968 235.18 105.898 237.883 110.764Z" fill="#1E1E1E"/>
<path d="M173.979 89.4676C172.914 90.7849 172.924 92.5597 174.003 93.4318C175.081 94.3039 176.819 93.943 177.884 92.6257C178.95 91.3084 178.939 89.5335 177.86 88.6614C176.782 87.7893 175.044 88.1503 173.979 89.4676Z" fill="#FBD300"/>
</svg>
