<svg width="333" height="140" viewBox="0 0 333 140" fill="none" xmlns="http://www.w3.org/2000/svg">
<mask id="path-1-outside-1_170_74" maskUnits="userSpaceOnUse" x="-1.72389" y="28.7056" width="61.0465" height="66.8432" fill="black">
<rect fill="white" x="-1.72389" y="28.7056" width="61.0465" height="66.8432"/>
<path d="M28.9072 51.8127C30.7938 56.6584 33.5382 63.8862 36.2266 70.7913C37.5709 74.2439 38.8915 77.6358 40.0854 80.5235C40.5894 81.997 40.4509 82.1775 39.7079 82.4151L39.0888 82.6132C38.57 82.711 38.3223 82.7902 38.1985 82.8298C38.0128 82.8892 35.4126 83.7209 34.9409 83.9399L34.2598 84.1577C33.5788 84.3755 33.3459 84.3138 32.718 82.8799C32.718 82.8799 31.7364 80.5374 21.478 54.189L12.8105 56.9613C12.0057 57.2187 11.9261 56.8355 11.3454 55.5227L7.33336 46.112C6.95604 45.1429 7.11818 45.0229 8.04684 44.7259C12.8139 43.2011 14.8422 42.6886 19.3233 41.3234C24.0049 39.7579 28.8487 38.0724 33.6158 36.5477C34.5444 36.2506 34.7537 36.2518 35.1311 37.2209L38.524 46.8296C38.9809 48.182 39.1843 48.5256 38.3795 48.783C37.442 48.8786 34.9037 49.6904 32.3034 50.5221C29.6413 51.3736 28.86 51.6916 28.9072 51.8127Z"/>
</mask>
<path d="M28.9072 51.8127C30.7938 56.6584 33.5382 63.8862 36.2266 70.7913C37.5709 74.2439 38.8915 77.6358 40.0854 80.5235C40.5894 81.997 40.4509 82.1775 39.7079 82.4151L39.0888 82.6132C38.57 82.711 38.3223 82.7902 38.1985 82.8298C38.0128 82.8892 35.4126 83.7209 34.9409 83.9399L34.2598 84.1577C33.5788 84.3755 33.3459 84.3138 32.718 82.8799C32.718 82.8799 31.7364 80.5374 21.478 54.189L12.8105 56.9613C12.0057 57.2187 11.9261 56.8355 11.3454 55.5227L7.33336 46.112C6.95604 45.1429 7.11818 45.0229 8.04684 44.7259C12.8139 43.2011 14.8422 42.6886 19.3233 41.3234C24.0049 39.7579 28.8487 38.0724 33.6158 36.5477C34.5444 36.2506 34.7537 36.2518 35.1311 37.2209L38.524 46.8296C38.9809 48.182 39.1843 48.5256 38.3795 48.783C37.442 48.8786 34.9037 49.6904 32.3034 50.5221C29.6413 51.3736 28.86 51.6916 28.9072 51.8127Z" fill="#FBD300"/>
<path d="M40.0854 80.5234L45.8858 78.9299L45.8253 78.753L45.7536 78.5795L40.0854 80.5234ZM39.0888 82.6131L40.5401 88.3879L40.9099 88.3181L41.2657 88.2043L39.0888 82.6131ZM34.9409 83.9399L37.1177 89.5311L37.4735 89.4173L37.8097 89.2612L34.9409 83.9399ZM32.718 82.8799L27.0609 84.8505L27.0795 84.8948L27.0988 84.9389L32.718 82.8799ZM21.478 54.189L27.1928 52.3611L25.0159 46.7699L19.3011 48.5978L21.478 54.189ZM11.3454 55.5227L5.70277 57.5276L5.71879 57.5652L5.73533 57.6026L11.3454 55.5227ZM7.33336 46.112L1.61856 47.9399L1.65322 48.0289L1.69075 48.117L7.33336 46.112ZM19.3233 41.3234L21.4206 46.9395L21.4983 46.9158L21.5752 46.8901L19.3233 41.3234ZM35.1311 37.2209L40.9123 35.572L40.8805 35.4821L40.8459 35.3931L35.1311 37.2209ZM38.524 46.8296L44.3317 45.2575L44.3187 45.219L44.3052 45.1806L38.524 46.8296ZM38.3795 48.783L39.3106 54.6331L39.9509 54.5679L40.5563 54.3742L38.3795 48.783ZM28.9072 51.8127L23.1924 53.6406C24.1293 56.0471 25.2808 59.049 26.5414 62.3317C27.7993 65.6073 29.162 69.1522 30.5119 72.6192L36.2266 70.7913L41.9414 68.9634C40.6028 65.5253 39.2491 62.0038 37.9911 58.7278C36.7357 55.4589 35.5717 52.4241 34.622 49.9849L28.9072 51.8127ZM36.2266 70.7913L30.5119 72.6192C31.8496 76.0552 33.1945 79.5102 34.4171 82.4674L40.0854 80.5234L45.7536 78.5795C44.5885 75.7615 43.2921 72.4325 41.9414 68.9634L36.2266 70.7913ZM40.0854 80.5234L34.2849 82.117C34.3889 82.4209 34.3744 82.4185 34.3435 82.2663C34.3249 82.1746 34.1494 81.3649 34.4131 80.3058C34.7512 78.9479 35.5993 77.9476 36.4983 77.3458C37.1357 76.9191 37.7059 76.768 37.5311 76.8239L39.7079 82.4151L41.8848 88.0063C41.9825 87.9751 45.4284 87.1223 46.3154 83.5597C46.6437 82.2415 46.4547 81.0956 46.3435 80.5482C46.22 79.9403 46.0339 79.3627 45.8858 78.9299L40.0854 80.5234ZM39.7079 82.4151L37.5311 76.8239L36.912 77.022L39.0888 82.6131L41.2657 88.2043L41.8848 88.0063L39.7079 82.4151ZM39.0888 82.6131L37.6376 76.8384C36.8223 76.9922 36.3287 77.1404 36.0217 77.2386L38.1985 82.8298L40.3754 88.421C40.403 88.4122 40.3924 88.4156 40.379 88.4196C40.3641 88.4241 40.3543 88.4267 40.352 88.4273C40.348 88.4283 40.4036 88.4136 40.5401 88.3879L39.0888 82.6131ZM38.1985 82.8298L36.0217 77.2386C35.9246 77.2697 35.2035 77.5003 34.44 77.7534C33.9015 77.9319 32.6998 78.3271 32.072 78.6186L34.9409 83.9399L37.8097 89.2612C37.6536 89.3336 37.5682 89.3623 37.6673 89.325C37.7265 89.3028 37.8217 89.2682 37.956 89.2212C38.2225 89.1278 38.561 89.0136 38.9138 88.8966C39.6149 88.6643 40.2867 88.4493 40.3754 88.421L38.1985 82.8298ZM34.9409 83.9399L32.764 78.3487L32.083 78.5665L34.2598 84.1577L36.4367 89.7489L37.1177 89.5311L34.9409 83.9399ZM34.2598 84.1577L32.083 78.5665C32.083 78.5665 32.0889 78.5646 32.0992 78.5615C32.1096 78.5583 32.1264 78.5533 32.1485 78.547C32.1908 78.535 32.2654 78.5147 32.3642 78.4925C32.5486 78.451 32.917 78.3797 33.4054 78.3704C34.6174 78.3472 35.9614 78.7184 37.099 79.5772C37.9744 80.2379 38.3689 80.9281 38.4072 80.9929C38.4795 81.1151 38.465 81.1126 38.3373 80.8208L32.718 82.8799L27.0988 84.9389C27.285 85.3642 27.5351 85.9071 27.8489 86.4373C28.1288 86.9102 28.7418 87.8711 29.839 88.6992C32.9643 91.0582 36.2356 89.8132 36.4367 89.7489L34.2598 84.1577ZM32.718 82.8799C38.3752 80.9093 38.3755 80.9101 38.3758 80.9108C38.3759 80.911 38.3762 80.9118 38.3764 80.9122C38.3768 80.9132 38.3771 80.914 38.3775 80.9148C38.3782 80.9165 38.3787 80.9179 38.3792 80.9191C38.3802 80.9214 38.3808 80.9229 38.3811 80.9234C38.3815 80.9245 38.3804 80.922 38.3776 80.9151C38.3719 80.9013 38.3598 80.8716 38.339 80.8203C38.2972 80.7174 38.2229 80.5333 38.0994 80.2242C37.8523 79.6059 37.4131 78.5 36.6512 76.5654C35.1276 72.6968 32.3208 65.5323 27.1928 52.3611L21.478 54.189L15.7632 56.0169C20.8936 69.1941 23.7068 76.3751 25.2387 80.2648C26.0045 82.2094 26.4518 83.3359 26.7093 83.9801C26.8381 84.3024 26.9207 84.5071 26.9727 84.6352C26.9987 84.6995 27.0177 84.7459 27.0314 84.7792C27.0383 84.7959 27.044 84.8098 27.0488 84.8213C27.0512 84.8271 27.0533 84.8323 27.0553 84.8371C27.0563 84.8395 27.0573 84.8418 27.0582 84.8441C27.0587 84.8452 27.0592 84.8463 27.0596 84.8473C27.0598 84.8479 27.0602 84.8486 27.0603 84.8489C27.0606 84.8497 27.0609 84.8505 32.718 82.8799ZM21.478 54.189L19.3011 48.5978L10.6337 51.3701L12.8105 56.9613L14.9874 62.5524L23.6548 59.7802L21.478 54.189ZM12.8105 56.9613L10.6337 51.3701C10.7131 51.3447 11.6728 51.0142 13.0187 51.2242C14.7551 51.4951 15.9803 52.4466 16.6584 53.2463C17.142 53.8166 17.3402 54.3051 17.2591 54.1325C17.1939 53.9936 17.167 53.921 16.9554 53.4428L11.3454 55.5227L5.73533 57.6026C5.81414 57.7807 6.01498 58.2484 6.15314 58.5425C6.27544 58.8029 6.6527 59.6172 7.32942 60.4153C8.20059 61.4427 9.6329 62.5238 11.6288 62.8352C13.234 63.0856 14.5055 62.7066 14.9874 62.5524L12.8105 56.9613ZM11.3454 55.5227L16.988 53.5178L12.976 44.1071L7.33336 46.112L1.69075 48.117L5.70277 57.5276L11.3454 55.5227ZM7.33336 46.112L13.0482 44.2842C12.9849 44.1216 13.1256 44.433 13.2041 44.9445C13.2973 45.5516 13.3671 46.8555 12.5723 48.2225C11.8298 49.4997 10.7736 50.0521 10.4586 50.2056C10.1632 50.3495 9.95556 50.4028 10.2237 50.3171L8.04684 44.7259L5.86998 39.1347C5.67378 39.1975 5.09768 39.3771 4.52244 39.6574C3.92766 39.9472 2.6804 40.6459 1.82842 42.1114C0.924203 43.6667 0.966174 45.2008 1.10602 46.1122C1.23121 46.9281 1.4932 47.6179 1.61856 47.9399L7.33336 46.112ZM8.04684 44.7259L10.2237 50.3171C14.9883 48.7931 16.6889 48.381 21.4206 46.9395L19.3233 41.3234L17.2261 35.7074C12.9955 36.9962 10.6396 37.6091 5.86998 39.1347L8.04684 44.7259ZM19.3233 41.3234L21.5752 46.8901C26.3558 45.2915 31.0707 43.6491 35.7926 42.1388L33.6158 36.5477L31.4389 30.9565C26.6266 32.4957 21.654 34.2244 17.0715 35.7568L19.3233 41.3234ZM33.6158 36.5477L35.7926 42.1388C36.0608 42.0531 35.8623 42.1297 35.5326 42.1857C35.1811 42.2454 33.9763 42.4161 32.5138 41.8442C30.9485 41.232 30.1 40.1772 29.7521 39.6516C29.459 39.2087 29.353 38.8862 29.4163 39.0488L35.1311 37.2209L40.8459 35.3931C40.7205 35.0711 40.4468 34.385 39.9793 33.6786C39.4571 32.8895 38.4274 31.6713 36.6465 30.9748C34.9685 30.3186 33.5137 30.4841 32.8499 30.5969C32.208 30.7059 31.6351 30.8937 31.4389 30.9565L33.6158 36.5477ZM35.1311 37.2209L29.3499 38.8699L32.7428 48.4786L38.524 46.8296L44.3052 45.1806L40.9123 35.572L35.1311 37.2209ZM38.524 46.8296L32.7162 48.4017C32.8827 48.8944 32.912 48.9661 32.9574 49.1114C33.0138 49.2919 32.8298 48.7989 32.8114 48.0797C32.7855 47.0714 33.0806 45.6337 34.2448 44.435C35.1472 43.5059 36.1232 43.2173 36.2026 43.1919L38.3795 48.783L40.5563 54.3742C41.0382 54.2201 42.2906 53.7919 43.3668 52.6838C44.7051 51.3059 45.0716 49.6496 45.0384 48.3541C45.0126 47.3478 44.7424 46.4992 44.6573 46.227C44.5612 45.9194 44.3937 45.441 44.3317 45.2575L38.524 46.8296ZM38.3795 48.783L37.4483 42.933C36.2949 43.0505 34.8511 43.4691 33.9128 43.7469C32.7604 44.0882 31.4078 44.5211 30.1266 44.9309L32.3034 50.5221L34.4803 56.1133C35.7993 55.6914 37.016 55.3026 38.0171 55.0061C38.5164 54.8582 38.91 54.749 39.2006 54.6764C39.5624 54.586 39.5415 54.6096 39.3106 54.6331L38.3795 48.783ZM32.3034 50.5221L30.1266 44.9309C28.7929 45.3575 27.785 45.6959 27.0854 45.9653C26.7804 46.0827 26.2815 46.2814 25.7965 46.551C25.6044 46.6578 25.0158 46.9884 24.435 47.5666C24.1695 47.8309 21.8396 50.166 23.1924 53.6406L28.9072 51.8127L34.622 49.9849C35.2682 51.6446 35.0295 53.1553 34.6098 54.1755C34.2333 55.0907 33.698 55.6772 33.4258 55.9482C32.8891 56.4826 32.3746 56.7618 32.2907 56.8084C32.0221 56.9577 31.8761 57.001 32.0933 56.9173C32.438 56.7846 33.1518 56.5382 34.4803 56.1133L32.3034 50.5221Z" fill="#1D3E1E" mask="url(#path-1-outside-1_170_74)"/>
<mask id="path-3-outside-2_170_74" maskUnits="userSpaceOnUse" x="35.8613" y="20.6979" width="53.0819" height="63.6924" fill="black">
<rect fill="white" x="35.8613" y="20.6979" width="53.0819" height="63.6924"/>
<path d="M58.0454 60.1046C57.856 60.151 57.9907 61.5217 58.3411 62.7059C58.6362 63.7032 59.0206 64.5449 59.4626 64.4367C60.9069 64.2837 62.4406 63.9752 64.0822 63.5734C67.4284 62.7543 71.0797 61.5932 75.2282 60.511C76.1121 60.2946 76.0305 60.2477 76.315 60.9802L79.8388 70.1442C80.1785 71.0636 80.197 71.126 79.8182 71.2187L79.5025 71.296L57.7914 76.4096C56.5918 76.7032 56.6734 76.7501 56.4152 75.8775L55.8989 74.1323C53.5384 66.1541 50.3353 56.2433 47.6429 47.1432C46.4626 43.1542 45.4008 39.3366 44.5313 35.94C44.3284 35.2543 44.2837 35.3321 45.0414 35.1467L68.0648 28.9765L68.3174 28.9147C68.7593 28.8065 68.7778 28.8689 68.9806 29.5545L71.8759 39.3402C72.005 39.7765 72.0419 39.9011 68.1906 40.8438C65.0969 41.601 60.8299 42.5118 53.4876 44.2421C52.9826 44.3657 53.2542 45.9703 53.6968 47.4662C54.1025 48.8374 54.6791 50.1 54.9948 50.0227L72.6545 45.6333C73.791 45.3552 73.5831 45.3392 73.7597 46.1649L75.6414 54.1266C75.9102 55.264 76.0627 55.0929 74.5027 55.5416L58.0454 60.1046Z"/>
</mask>
<path d="M58.0454 60.1046C57.856 60.151 57.9907 61.5217 58.3411 62.7059C58.6362 63.7032 59.0206 64.5449 59.4626 64.4367C60.9069 64.2837 62.4406 63.9752 64.0822 63.5734C67.4284 62.7543 71.0797 61.5932 75.2282 60.511C76.1121 60.2946 76.0305 60.2477 76.315 60.9802L79.8388 70.1442C80.1785 71.0636 80.197 71.126 79.8182 71.2187L79.5025 71.296L57.7914 76.4096C56.5918 76.7032 56.6734 76.7501 56.4152 75.8775L55.8989 74.1323C53.5384 66.1541 50.3353 56.2433 47.6429 47.1432C46.4626 43.1542 45.4008 39.3366 44.5313 35.94C44.3284 35.2543 44.2837 35.3321 45.0414 35.1467L68.0648 28.9765L68.3174 28.9147C68.7593 28.8065 68.7778 28.8689 68.9806 29.5545L71.8759 39.3402C72.005 39.7765 72.0419 39.9011 68.1906 40.8438C65.0969 41.601 60.8299 42.5118 53.4876 44.2421C52.9826 44.3657 53.2542 45.9703 53.6968 47.4662C54.1025 48.8374 54.6791 50.1 54.9948 50.0227L72.6545 45.6333C73.791 45.3552 73.5831 45.3392 73.7597 46.1649L75.6414 54.1266C75.9102 55.264 76.0627 55.0929 74.5027 55.5416L58.0454 60.1046Z" fill="#FBD300"/>
<path d="M58.0454 60.1046L59.7477 65.8581L59.8363 65.8364L59.9241 65.812L58.0454 60.1046ZM59.4626 64.4367L58.5634 58.5433L58.1559 58.5865L57.7603 58.6833L59.4626 64.4367ZM75.2282 60.511L73.5259 54.7575L73.4818 54.7683L73.4378 54.7798L75.2282 60.511ZM76.315 60.9802L81.9886 59.0995L81.985 59.0902L81.9814 59.0809L76.315 60.9802ZM79.8388 70.1442L85.5406 68.3381L85.5268 68.3007L85.5124 68.2634L79.8388 70.1442ZM79.5025 71.296L81.1537 77.0617L81.1793 77.0557L81.2047 77.0494L79.5025 71.296ZM57.7914 76.4096L56.1402 70.6439L56.1147 70.6499L56.0892 70.6561L57.7914 76.4096ZM44.5313 35.94L50.4183 34.7274L50.3908 34.62L50.3593 34.5135L44.5313 35.94ZM45.0414 35.1467L46.7436 40.9001L46.8072 40.8846L46.8703 40.8677L45.0414 35.1467ZM68.0648 28.9765L66.3626 23.2231L66.2991 23.2386L66.236 23.2555L68.0648 28.9765ZM53.4876 44.2421L51.8357 38.4765L51.8105 38.4825L51.7854 38.4886L53.4876 44.2421ZM54.9948 50.0227L56.6971 55.7762L56.7075 55.7736L56.7179 55.7711L54.9948 50.0227ZM72.6545 45.6333L70.9523 39.8799L70.9419 39.8824L70.9315 39.885L72.6545 45.6333ZM73.7597 46.1649L67.8184 47.146L67.8317 47.2081L67.8463 47.2701L73.7597 46.1649ZM75.6414 54.1266L69.728 55.2317L69.728 55.2318L75.6414 54.1266ZM74.5027 55.5416L76.3814 61.249L76.409 61.2414L76.4366 61.2335L74.5027 55.5416ZM58.0454 60.1046L56.3432 54.3511C54.5563 54.7885 53.5122 55.8801 53.0095 56.5736C52.513 57.2586 52.2807 57.9027 52.1735 58.2472C51.9575 58.9415 51.9143 59.5411 51.8998 59.8008C51.8663 60.404 51.911 60.971 51.9533 61.3614C52.044 62.1983 52.2334 63.1868 52.5132 64.1324L58.3411 62.7059L64.1691 61.2794C64.0985 61.0408 64.0453 60.7518 64.0284 60.5957C64.0169 60.4896 64.0415 60.6312 64.0251 60.9274C64.0192 61.0335 63.9937 61.5092 63.8053 62.115C63.7119 62.4153 63.4957 63.024 63.0179 63.6833C62.5339 64.351 61.5109 65.4265 59.7477 65.8581L58.0454 60.1046ZM58.3411 62.7059L52.5132 64.1324C52.6955 64.7488 53.0308 65.7831 53.6057 66.7652C53.877 67.2287 54.4644 68.1457 55.5014 68.9454C56.7094 69.877 58.7648 70.7776 61.1649 70.1902L59.4626 64.4367L57.7603 58.6833C59.9394 58.1499 61.781 58.9858 62.7834 59.7589C63.6148 60.4001 64.0048 61.0646 64.0879 61.2065C64.2863 61.5455 64.2818 61.6603 64.1691 61.2794L58.3411 62.7059ZM59.4626 64.4367L60.3618 70.3302C62.1891 70.1366 64.0162 69.7596 65.7844 69.3268L64.0822 63.5734L62.3799 57.8199C60.8651 58.1907 59.6248 58.4309 58.5634 58.5433L59.4626 64.4367ZM64.0822 63.5734L65.7844 69.3268C67.5842 68.8863 69.4382 68.3608 71.2765 67.8361C73.1453 67.3026 75.024 66.7625 77.0186 66.2421L75.2282 60.511L73.4378 54.7798C71.2838 55.3417 69.2626 55.9232 67.4321 56.4457C65.5711 56.9769 63.9264 57.4414 62.3799 57.8199L64.0822 63.5734ZM75.2282 60.511L76.9305 66.2644C77.3916 66.1516 77.215 66.193 77.1425 66.207C77.0528 66.2243 76.6918 66.2936 76.1974 66.2986C75.6688 66.3039 74.791 66.2395 73.7923 65.8199C71.6084 64.9022 70.786 63.1377 70.6807 62.9204C70.5827 62.7184 70.4697 62.4192 70.6485 62.8796L76.315 60.9802L81.9814 59.0809C81.97 59.0513 81.9588 59.0223 81.9429 58.9807C81.9294 58.9452 81.9074 58.8878 81.8849 58.8302C81.8492 58.7386 81.7531 58.4926 81.6183 58.2145C81.4206 57.8067 80.51 55.9302 78.2005 54.9597C76.2222 54.1284 74.4674 54.5444 74.3194 54.573C74.0906 54.6171 73.8874 54.6675 73.7974 54.6898C73.6392 54.729 73.6453 54.7283 73.5259 54.7575L75.2282 60.511ZM76.315 60.9802L70.6413 62.861L74.1651 72.0249L79.8388 70.1442L85.5124 68.2634L81.9886 59.0995L76.315 60.9802ZM79.8388 70.1442L74.137 71.9502C74.2388 72.2259 74.2487 72.2574 74.2417 72.2355C74.2342 72.2118 74.1907 72.0759 74.1468 71.8757C74.1062 71.6905 74.0254 71.2771 74.0265 70.7366C74.0276 70.1688 74.1189 69.3318 74.5443 68.4271C74.9894 67.4804 75.6452 66.7882 76.2996 66.3176C76.8903 65.8927 77.4285 65.6851 77.6737 65.5986C77.8118 65.5499 77.923 65.5172 77.9889 65.4987C78.0554 65.4801 78.1031 65.4684 78.1159 65.4652L79.8182 71.2187L81.5204 76.9721C81.615 76.949 81.8887 76.8818 82.2098 76.7686C82.5252 76.6573 83.1214 76.4225 83.7584 75.9644C84.459 75.4605 85.1492 74.7291 85.6172 73.7337C86.0654 72.7803 86.1682 71.8852 86.1694 71.2463C86.1715 70.1767 85.8742 69.2999 85.8226 69.1384C85.7284 68.8433 85.6086 68.5222 85.5406 68.3381L79.8388 70.1442ZM79.8182 71.2187L78.1159 65.4652L77.8002 65.5425L79.5025 71.296L81.2047 77.0494L81.5204 76.9721L79.8182 71.2187ZM79.5025 71.296L77.8513 65.5302L56.1402 70.6439L57.7914 76.4096L59.4427 82.1753L81.1537 77.0617L79.5025 71.296ZM57.7914 76.4096L56.0892 70.6561C55.601 70.7756 55.663 70.7622 55.6886 70.7573C55.7394 70.7474 56.039 70.6881 56.4619 70.6755C56.8931 70.6626 57.7305 70.6868 58.7205 71.0579C61.1416 71.9653 62.0102 73.9219 62.1812 74.3322C62.2993 74.6155 62.3977 74.9732 62.2432 74.451L56.4152 75.8775L50.5873 77.304C50.5913 77.3176 50.6546 77.5349 50.6842 77.6322C50.721 77.7533 50.8145 78.0594 50.9598 78.4079C51.2256 79.0457 52.1972 81.1358 54.7801 82.1039C56.7055 82.8256 58.4113 82.4108 58.5247 82.3888C58.8805 82.3198 59.3821 82.1904 59.4937 82.1631L57.7914 76.4096ZM56.4152 75.8775L62.2432 74.451L61.7268 72.7058L55.8989 74.1323L50.0709 75.5588L50.5873 77.304L56.4152 75.8775ZM55.8989 74.1323L61.7268 72.7058C60.5327 68.6696 59.1283 64.1545 57.6999 59.5546C56.2659 54.937 54.8038 50.222 53.4708 45.7167L47.6429 47.1432L41.8149 48.5697C43.1744 53.1645 44.6601 57.955 46.0908 62.5623C47.5272 67.1875 48.9046 71.6168 50.0709 75.5588L55.8989 74.1323ZM47.6429 47.1432L53.4708 45.7167C52.3072 41.7838 51.266 38.0389 50.4183 34.7274L44.5313 35.94L38.6443 37.1525C39.5357 40.6344 40.6181 44.5245 41.8149 48.5697L47.6429 47.1432ZM44.5313 35.94L50.3593 34.5135C50.2176 34.0347 50.3087 34.3429 50.3443 34.4997C50.3498 34.5238 50.9347 36.6108 49.5901 38.678C48.9372 39.6819 48.1113 40.2372 47.5858 40.5195C47.1008 40.78 46.6969 40.9001 46.5991 40.9292C46.5152 40.9541 46.2783 41.014 46.7436 40.9001L45.0414 35.1467L43.3391 29.3932C43.2594 29.4127 43.2478 29.4149 43.1218 29.4451C43.0497 29.4623 42.8488 29.51 42.628 29.5757C42.5722 29.5923 40.5345 30.0774 39.2622 32.0335C37.8594 34.1901 38.4462 36.3979 38.4934 36.606C38.553 36.8688 38.6212 37.0941 38.6425 37.165C38.69 37.3233 38.6748 37.27 38.7033 37.3665L44.5313 35.94ZM45.0414 35.1467L46.8703 40.8677L69.8937 34.6975L68.0648 28.9765L66.236 23.2555L43.2125 29.4257L45.0414 35.1467ZM68.0648 28.9765L69.7671 34.73L70.0197 34.6682L68.3174 28.9147L66.6151 23.1612L66.3626 23.2231L68.0648 28.9765ZM68.3174 28.9147L70.0197 34.6682C70.0149 34.6693 69.9875 34.676 69.9455 34.6852C69.9039 34.6942 69.832 34.7091 69.7386 34.725C69.5761 34.7524 69.2003 34.809 68.7041 34.799C68.1823 34.7886 67.4277 34.7032 66.5801 34.3664C65.6969 34.0154 64.9711 33.4941 64.4144 32.9206C63.4813 31.9596 63.1568 30.9697 63.1518 30.9561C63.103 30.8242 63.0784 30.7299 63.1527 30.981L68.9806 29.5545L74.8086 28.128C74.7815 28.0362 74.6785 27.6771 74.5554 27.344C74.476 27.1292 74.0813 26.002 73.063 24.9532C71.6412 23.4888 69.8687 22.9746 68.4538 22.9462C67.4783 22.9267 66.673 23.1471 66.6151 23.1612L68.3174 28.9147ZM68.9806 29.5545L63.1527 30.981L66.0479 40.7667L71.8759 39.3402L77.7039 37.9137L74.8086 28.128L68.9806 29.5545ZM71.8759 39.3402L66.0479 40.7667C66.0994 40.9405 65.9514 40.4943 65.8857 39.9655C65.7999 39.2757 65.8064 38.2279 66.3007 37.1029C66.7703 36.0342 67.4702 35.3771 67.9237 35.0312C68.3531 34.7037 68.7139 34.5388 68.8164 34.4931C69.0038 34.4095 69.0029 34.432 68.5065 34.5718C68.0729 34.694 67.4344 34.8588 66.4883 35.0903L68.1906 40.8438L69.8928 46.5973C71.6094 46.1771 73.1802 45.782 74.2354 45.3111C74.5977 45.1494 76.5343 44.3289 77.4915 42.1503C78.0244 40.9376 78.0369 39.801 77.9395 39.0172C77.8949 38.6585 77.8273 38.3712 77.7855 38.2076C77.7464 38.0547 77.7052 37.9182 77.7039 37.9137L71.8759 39.3402ZM68.1906 40.8438L66.4883 35.0903C63.369 35.8539 59.397 36.6946 51.8357 38.4765L53.4876 44.2421L55.1396 50.0076C62.2628 48.3289 66.8248 47.3482 69.8928 46.5973L68.1906 40.8438ZM53.4876 44.2421L51.7854 38.4886C48.1922 39.3681 47.4224 42.5387 47.2864 43.2114C47.08 44.2327 47.1434 45.1638 47.194 45.6717C47.3065 46.8017 47.599 47.9807 47.8688 48.8927L53.6968 47.4662L59.5247 46.0397C59.4479 45.7802 59.3852 45.5379 59.3403 45.3335C59.3181 45.2328 59.3025 45.1516 59.2922 45.0904C59.2815 45.0275 59.279 45.0011 59.2796 45.0074C59.2798 45.009 59.2874 45.0821 59.2865 45.2101C59.2856 45.3235 59.2777 45.5968 59.2035 45.9639C59.137 46.2932 58.9575 47.006 58.4275 47.7819C57.8381 48.6448 56.785 49.6051 55.1899 49.9955L53.4876 44.2421ZM53.6968 47.4662L47.8688 48.8927C48.1332 49.7862 48.492 50.7878 48.9242 51.6681C49.1164 52.0598 49.4735 52.7421 50.0203 53.4147C50.2797 53.7339 50.8299 54.364 51.6953 54.9155C52.5813 55.48 54.4263 56.332 56.6971 55.7762L54.9948 50.0227L53.2926 44.2693C55.4844 43.7328 57.2424 44.5622 58.0348 45.0671C58.8067 45.559 59.2568 46.0925 59.4115 46.2827C59.6075 46.5239 59.723 46.7117 59.7654 46.7826C59.7918 46.8268 59.8098 46.8595 59.8198 46.8781C59.825 46.8878 59.8288 46.8951 59.8312 46.8998C59.8336 46.9044 59.8348 46.9069 59.8349 46.9072C59.835 46.9074 59.8317 46.9006 59.8252 46.8863C59.8188 46.8721 59.81 46.8523 59.7992 46.8268C59.7773 46.7751 59.7502 46.7075 59.7191 46.6247C59.6563 46.4567 59.5887 46.2559 59.5247 46.0397L53.6968 47.4662ZM54.9948 50.0227L56.7179 55.7711L74.3776 51.3817L72.6545 45.6333L70.9315 39.885L53.2718 44.2744L54.9948 50.0227ZM72.6545 45.6333L74.3568 51.3868C74.8497 51.2661 74.7463 51.2897 74.6971 51.2993C74.6453 51.3093 74.2514 51.3892 73.7072 51.3892C73.1475 51.3893 71.9497 51.3091 70.6498 50.5622C69.2515 49.7587 68.5065 48.6349 68.1445 47.8745C67.8394 47.2334 67.7369 46.7041 67.7259 46.6513C67.7088 46.5695 67.6929 46.4734 67.7217 46.6408C67.7401 46.7477 67.7717 46.9279 67.8184 47.146L73.7597 46.1649L79.7011 45.1839C79.7036 45.1955 79.7031 45.1956 79.6946 45.1464C79.6936 45.1405 79.6802 45.062 79.6725 45.0182C79.6627 44.9626 79.6442 44.8588 79.6188 44.7375C79.5846 44.5745 79.4576 43.9566 79.1196 43.2466C78.7248 42.4172 77.9387 41.2439 76.4844 40.4082C75.1283 39.629 73.8595 39.5339 73.2069 39.5339C72.5699 39.534 72.0615 39.6289 71.8665 39.6666C71.5311 39.7316 71.0275 39.8615 70.9523 39.8799L72.6545 45.6333ZM73.7597 46.1649L67.8463 47.2701L69.728 55.2317L75.6414 54.1266L81.5548 53.0214L79.6731 45.0598L73.7597 46.1649ZM75.6414 54.1266L69.728 55.2318C69.7774 55.4411 69.8273 55.6327 69.8461 55.7059C69.8791 55.8351 69.8498 55.7318 69.8213 55.5767C69.7934 55.4247 69.347 53.3038 70.8992 51.3455C71.5502 50.5243 72.2775 50.1013 72.6368 49.9181C72.9874 49.7393 73.2553 49.6566 73.2595 49.6552C73.2846 49.6471 73.2691 49.6528 73.1174 49.6953C72.9981 49.7287 72.7909 49.7859 72.5689 49.8498L74.5027 55.5416L76.4366 61.2335C76.5836 61.1912 77.1831 61.0274 77.4936 60.9271C77.6986 60.861 78.1264 60.7177 78.602 60.4751C79.0863 60.2281 79.9039 59.7382 80.6164 58.8392C82.292 56.7255 81.8545 54.406 81.7711 53.9521C81.7149 53.6462 81.6418 53.366 81.6211 53.2852C81.5862 53.1483 81.5725 53.0964 81.5548 53.0214L75.6414 54.1266ZM74.5027 55.5416L72.6241 49.8342L56.1668 54.3972L58.0454 60.1046L59.9241 65.812L76.3814 61.249L74.5027 55.5416Z" fill="#1D3E1E" mask="url(#path-3-outside-2_170_74)"/>
<mask id="path-5-outside-3_170_74" maskUnits="userSpaceOnUse" x="69.2458" y="13.9809" width="58.231" height="65.7814" fill="black">
<rect fill="white" x="69.2458" y="13.9809" width="58.231" height="65.7814"/>
<path d="M89.1746 25.2362C90.326 24.7078 91.9651 24.2929 93.6945 23.9943C97.4736 23.3417 101.896 23.2373 103.617 23.8631C108.716 25.7516 111.61 30.1306 113.395 38.7884L114.498 44.1359C114.695 45.0908 114.746 45.0161 114.041 45.1378L106.867 46.3765C105.906 46.5424 105.92 46.6061 105.749 45.7785L104.987 42.0862C103.661 35.6565 101.27 34.3552 96.7228 35.1405C91.1502 36.1027 89.4188 38.6432 88.9732 41.9506C88.8252 43.1629 89.0663 45.2968 89.5389 47.5886C90.0903 50.2623 90.9635 53.2101 91.947 55.0841C93.8498 58.843 96.7664 60.1194 101.506 59.301L101.762 59.2567C106.617 58.3525 106.622 56.7693 106.071 54.0956C105.69 52.2495 105.754 52.2384 107.035 52.0172L115.362 50.5794C116.643 50.3582 116.771 50.3361 116.955 51.2273C117.296 52.8825 118.959 62.5505 107.547 67.6855C106.767 68.0839 105.244 68.7424 103.195 69.0963C97.4299 70.0917 85.9487 68.7779 82.1809 50.5073L82.1152 50.189C79.0663 34.7611 81.2023 28.3929 89.1746 25.2362Z"/>
</mask>
<path d="M89.1746 25.2362C90.326 24.7078 91.9651 24.2929 93.6945 23.9943C97.4736 23.3417 101.896 23.2373 103.617 23.8631C108.716 25.7516 111.61 30.1306 113.395 38.7884L114.498 44.1359C114.695 45.0908 114.746 45.0161 114.041 45.1378L106.867 46.3765C105.906 46.5424 105.92 46.6061 105.749 45.7785L104.987 42.0862C103.661 35.6565 101.27 34.3552 96.7228 35.1405C91.1502 36.1027 89.4188 38.6432 88.9732 41.9506C88.8252 43.1629 89.0663 45.2968 89.5389 47.5886C90.0903 50.2623 90.9635 53.2101 91.947 55.0841C93.8498 58.843 96.7664 60.1194 101.506 59.301L101.762 59.2567C106.617 58.3525 106.622 56.7693 106.071 54.0956C105.69 52.2495 105.754 52.2384 107.035 52.0172L115.362 50.5794C116.643 50.3582 116.771 50.3361 116.955 51.2273C117.296 52.8825 118.959 62.5505 107.547 67.6855C106.767 68.0839 105.244 68.7424 103.195 69.0963C97.4299 70.0917 85.9487 68.7779 82.1809 50.5073L82.1152 50.189C79.0663 34.7611 81.2023 28.3929 89.1746 25.2362Z" fill="#FBD300"/>
<path d="M89.1746 25.2362L91.5635 30.7822L91.7091 30.7245L91.8513 30.6593L89.1746 25.2362ZM103.617 23.8631L105.585 18.2856L105.567 18.2792L105.55 18.2728L103.617 23.8631ZM88.9732 41.9506L82.9901 40.989L82.9853 41.0249L82.9809 41.0609L88.9732 41.9506ZM91.947 55.0841L97.3286 52.5456L97.3082 52.5053L97.2872 52.4652L91.947 55.0841ZM101.762 59.2567L102.974 65.1331L103.013 65.1264L103.052 65.1191L101.762 59.2567ZM107.547 67.6855L104.91 62.2444L104.778 62.3036L104.65 62.3693L107.547 67.6855ZM82.1152 50.189L76.1929 51.1614L76.1977 51.1857L76.2027 51.21L82.1152 50.189ZM89.1746 25.2362L91.8513 30.6593C92.307 30.4501 93.3478 30.1397 94.9063 29.8706L93.6945 23.9943L92.4827 18.1179C90.5823 18.446 88.345 18.9655 86.498 19.8132L89.1746 25.2362ZM93.6945 23.9943L94.9063 29.8706C96.4937 29.5965 98.2333 29.4371 99.7097 29.4128C100.446 29.4008 101.043 29.4236 101.474 29.4647C101.987 29.5134 101.983 29.5617 101.685 29.4534L103.617 23.8631L105.55 18.2728C103.518 17.5339 100.971 17.4558 99.1457 17.4857C97.0357 17.5204 94.6744 17.7395 92.4827 18.1179L93.6945 23.9943ZM103.617 23.8631L101.65 29.4406C103.685 30.1943 105.843 31.8574 107.482 39.8094L113.395 38.7884L119.307 37.7675C117.376 28.4038 113.748 21.3088 105.585 18.2856L103.617 23.8631ZM113.395 38.7884L107.482 39.8094L108.585 45.1569L114.498 44.1359L120.41 43.115L119.307 37.7675L113.395 38.7884ZM114.498 44.1359L108.585 45.1569C108.68 45.6161 108.657 45.4908 108.654 45.4708C108.645 45.4165 108.592 45.109 108.59 44.6891C108.588 44.2657 108.632 43.414 109.056 42.4438C110.106 40.0456 112.266 39.4221 112.662 39.3135C112.941 39.2368 113.356 39.1704 112.829 39.2614L114.041 45.1378L115.253 51.0141C115.276 51.0101 115.3 51.0061 115.34 50.9995C115.372 50.9941 115.433 50.984 115.494 50.9733C115.586 50.9573 115.877 50.907 116.213 50.8149C116.791 50.6562 119.058 49.969 120.158 47.4548C120.608 46.4267 120.663 45.504 120.661 44.9918C120.658 44.4831 120.594 44.0691 120.564 43.8856C120.517 43.6073 120.414 43.1332 120.41 43.115L114.498 44.1359ZM114.041 45.1378L112.829 39.2614L105.655 40.5002L106.867 46.3765L108.079 52.2528L115.253 51.0141L114.041 45.1378ZM106.867 46.3765L105.655 40.5002C105.189 40.5806 105.338 40.5564 105.407 40.5481C105.492 40.5379 105.831 40.4979 106.292 40.5234C106.774 40.55 107.601 40.6581 108.531 41.1076C110.693 42.1529 111.401 43.9999 111.557 44.4457C111.687 44.8151 111.742 45.1479 111.661 44.7575L105.749 45.7785L99.8364 46.7994C99.8412 46.8229 99.9585 47.4581 100.164 48.0431C100.395 48.7045 101.192 50.6804 103.493 51.7925C105.335 52.6834 107.043 52.4113 107.215 52.3908C107.558 52.3497 108.065 52.2553 108.079 52.2528L106.867 46.3765ZM105.749 45.7785L111.661 44.7575L110.9 41.0652L104.987 42.0862L99.0749 43.1071L99.8364 46.7994L105.749 45.7785ZM104.987 42.0862L110.9 41.0652C110.18 37.5739 108.89 33.7274 105.695 31.2543C102.228 28.5709 98.2646 28.7887 95.5109 29.2641L96.7228 35.1405L97.9346 41.0168C98.7624 40.8739 99.1067 40.8996 99.1571 40.9059C99.1597 40.9063 99.0652 40.8943 98.9111 40.834C98.75 40.7709 98.5821 40.6776 98.4316 40.5612C98.1237 40.3228 98.1417 40.1886 98.3267 40.5779C98.5243 40.9939 98.7991 41.7694 99.0749 43.1071L104.987 42.0862ZM96.7228 35.1405L95.5109 29.2641C92.0017 29.8701 88.9054 31.1058 86.598 33.3816C84.2311 35.7158 83.3225 38.522 82.9901 40.989L88.9732 41.9506L94.9563 42.9122C95.0695 42.0718 95.2494 41.9541 95.2528 41.9507C95.3156 41.8888 95.8713 41.3731 97.9346 41.0168L96.7228 35.1405ZM88.9732 41.9506L82.9809 41.0609C82.7072 43.3024 83.1426 46.2633 83.6264 48.6095L89.5389 47.5886L95.4514 46.5677C95.2461 45.5722 95.1032 44.6668 95.0271 43.9336C94.9429 43.1227 94.9706 42.7991 94.9655 42.8403L88.9732 41.9506ZM89.5389 47.5886L83.6264 48.6095C84.218 51.4784 85.2284 55.0763 86.6068 57.7029L91.947 55.0841L97.2872 52.4652C96.6987 51.344 95.9626 49.0463 95.4514 46.5677L89.5389 47.5886ZM91.947 55.0841L86.5654 57.6226C87.9789 60.4148 90.1194 62.9243 93.3464 64.3452C96.4417 65.7081 99.7069 65.6973 102.718 65.1773L101.506 59.301L100.294 53.4246C98.5657 53.7231 98.0027 53.4833 97.979 53.4729C97.9774 53.4722 97.9536 53.4679 97.8778 53.3896C97.7841 53.2927 97.5849 53.052 97.3286 52.5456L91.947 55.0841ZM101.506 59.301L102.718 65.1773L102.974 65.1331L101.762 59.2567L100.551 53.3804L100.294 53.4246L101.506 59.301ZM101.762 59.2567L103.052 65.1191C105.608 64.643 109.118 63.6916 111.074 60.6339C113.053 57.5386 112.19 54.0773 111.984 53.0747L106.071 54.0956L100.159 55.1165C100.218 55.4047 100.25 55.5851 100.268 55.7094C100.286 55.833 100.278 55.8267 100.278 55.7362C100.277 55.5157 100.325 54.811 100.815 54.0455C101.288 53.3051 101.832 53.0464 101.835 53.0451C101.836 53.0442 101.812 53.0558 101.755 53.0768C101.698 53.0978 101.614 53.1261 101.499 53.1597C101.264 53.2281 100.931 53.3091 100.473 53.3943L101.762 59.2567ZM106.071 54.0956L111.984 53.0747C111.876 52.5537 111.876 52.5055 111.884 52.5897C111.892 52.6579 111.92 52.9408 111.887 53.3393C111.854 53.7537 111.745 54.4303 111.373 55.1853C110.49 56.9788 108.962 57.6339 108.399 57.8246C108.037 57.9472 107.733 57.9824 108.247 57.8935L107.035 52.0172L105.824 46.1409C105.697 46.1626 104.905 46.2821 104.183 46.5267C103.259 46.8394 101.499 47.6541 100.487 49.7088C99.6638 51.3818 99.8277 52.9784 99.8775 53.4565C99.9413 54.0689 100.076 54.7145 100.159 55.1165L106.071 54.0956ZM107.035 52.0172L108.247 57.8935L116.574 56.4557L115.362 50.5794L114.15 44.703L105.824 46.1409L107.035 52.0172ZM115.362 50.5794L116.574 56.4557C116.983 56.3851 116.979 56.3897 116.904 56.397C116.84 56.4034 116.601 56.4257 116.265 56.4093C115.925 56.3928 115.337 56.3307 114.638 56.0765C113.885 55.8028 113.149 55.3585 112.517 54.7375C111.918 54.1488 111.57 53.5557 111.377 53.155C111.066 52.5112 110.989 51.9893 111.043 52.2482L116.955 51.2273L122.868 50.2064C122.829 50.0197 122.668 49.1663 122.241 48.283C121.657 47.073 120.493 45.6196 118.503 44.8959C117.011 44.3534 115.696 44.4925 115.347 44.5269C114.883 44.5728 114.382 44.6631 114.15 44.703L115.362 50.5794ZM116.955 51.2273L111.043 52.2482C111.13 52.6731 111.434 54.3882 110.862 56.3168C110.365 57.9929 109.066 60.3745 104.91 62.2444L107.547 67.6855L110.184 73.1266C117.44 69.8615 121.015 64.8416 122.455 59.9862C123.819 55.3832 123.121 51.4366 122.868 50.2064L116.955 51.2273ZM107.547 67.6855L104.65 62.3693C104.265 62.5661 103.311 62.9906 101.983 63.22L103.195 69.0963L104.406 74.9727C107.178 74.4942 109.269 73.6018 110.444 73.0017L107.547 67.6855ZM103.195 69.0963L101.983 63.22C100.056 63.5526 97.3921 63.4449 95.0055 61.9831C92.7849 60.6231 89.7322 57.4334 88.0934 49.4864L82.1809 50.5073L76.2684 51.5283C78.3973 61.8518 82.9691 68.4543 88.8723 72.07C94.6094 75.5839 100.568 75.6355 104.406 74.9727L103.195 69.0963ZM82.1809 50.5073L88.0934 49.4864L88.0277 49.1681L82.1152 50.189L76.2027 51.21L76.2684 51.5283L82.1809 50.5073ZM82.1152 50.189L88.0375 49.2167C86.5501 41.6899 86.5794 37.4278 87.3124 34.9308C87.8692 33.0344 88.9007 31.8365 91.5635 30.7822L89.1746 25.2362L86.7858 19.6903C81.4762 21.7926 77.4536 25.3571 75.7115 31.2909C74.1457 36.6242 74.6314 43.2602 76.1929 51.1614L82.1152 50.189Z" fill="#1D3E1E" mask="url(#path-5-outside-3_170_74)"/>
<mask id="path-7-outside-4_170_74" maskUnits="userSpaceOnUse" x="108.643" y="12.911" width="49.6394" height="61.9808" fill="black">
<rect fill="white" x="108.643" y="12.911" width="49.6394" height="61.9808"/>
<path d="M128.247 38.4963C129.613 38.4215 132.603 38.2455 135.448 37.9536C137.258 37.7679 139.069 37.5821 140.468 37.2425C140.282 34.583 140.021 32.3885 139.797 30.5168C139.259 25.9988 138.788 23.6951 138.642 22.4688C138.488 21.1779 138.747 21.1514 139.911 21.032L144.566 20.5544C145.407 20.4681 145.453 20.8554 145.614 22.2108L150.899 63.808C151.022 64.8407 150.836 64.9251 149.866 65.0246L144.629 65.562C143.917 65.6349 143.723 65.6548 143.639 64.9449C143.539 64.1058 143.59 62.3366 143.151 58.6576C142.944 56.915 142.617 54.7271 142.093 51.9717C142.039 51.5199 139.026 51.5023 136.052 51.8074C132.948 52.1259 129.947 52.7604 130.032 53.4703C130.095 55.0972 130.192 56.4592 130.33 57.621C130.615 60.0091 130.993 61.5382 131.109 62.5064C131.255 63.7327 131.035 64.082 129.742 64.2146L122.564 64.951C121.142 65.0969 120.48 65.0342 120.311 63.6142L120.287 63.4206C119.766 54.6542 119.122 47.5991 118.46 42.0483C117.591 34.755 116.755 29.9407 116.394 26.9072C116.032 23.8737 116.145 22.6208 117.179 22.5147C118.416 22.4532 119.523 22.405 120.686 22.2856C122.109 22.1396 123.395 21.9424 124.486 21.7651L125.197 21.6921C125.909 21.6191 126.183 21.7217 126.367 23.2707L128.247 38.4963Z"/>
</mask>
<path d="M128.247 38.4963C129.613 38.4215 132.603 38.2455 135.448 37.9536C137.258 37.7679 139.069 37.5821 140.468 37.2425C140.282 34.583 140.021 32.3885 139.797 30.5168C139.259 25.9988 138.788 23.6951 138.642 22.4688C138.488 21.1779 138.747 21.1514 139.911 21.032L144.566 20.5544C145.407 20.4681 145.453 20.8554 145.614 22.2108L150.899 63.808C151.022 64.8407 150.836 64.9251 149.866 65.0246L144.629 65.562C143.917 65.6349 143.723 65.6548 143.639 64.9449C143.539 64.1058 143.59 62.3366 143.151 58.6576C142.944 56.915 142.617 54.7271 142.093 51.9717C142.039 51.5199 139.026 51.5023 136.052 51.8074C132.948 52.1259 129.947 52.7604 130.032 53.4703C130.095 55.0972 130.192 56.4592 130.33 57.621C130.615 60.0091 130.993 61.5382 131.109 62.5064C131.255 63.7327 131.035 64.082 129.742 64.2146L122.564 64.951C121.142 65.0969 120.48 65.0342 120.311 63.6142L120.287 63.4206C119.766 54.6542 119.122 47.5991 118.46 42.0483C117.591 34.755 116.755 29.9407 116.394 26.9072C116.032 23.8737 116.145 22.6208 117.179 22.5147C118.416 22.4532 119.523 22.405 120.686 22.2856C122.109 22.1396 123.395 21.9424 124.486 21.7651L125.197 21.6921C125.909 21.6191 126.183 21.7217 126.367 23.2707L128.247 38.4963Z" fill="#FBD300"/>
<path d="M128.247 38.4963L122.282 39.1339L122.98 44.7882L128.673 44.4765L128.247 38.4963ZM140.468 37.2425L141.978 43.063L146.812 41.8901L146.464 36.9212L140.468 37.2425ZM145.614 22.2108L139.646 22.8231L139.649 22.8462L139.652 22.8693L145.614 22.2108ZM150.899 63.808L156.868 63.1957L156.865 63.1726L156.862 63.1495L150.899 63.808ZM142.093 51.9717L136.124 52.584L136.149 52.7916L136.188 52.9972L142.093 51.9717ZM130.032 53.4703L136.038 53.3351L136.029 53.0959L136.001 52.858L130.032 53.4703ZM120.287 63.4206L114.287 63.6794L114.298 63.8565L114.319 64.0329L120.287 63.4206ZM117.179 22.5147L116.784 16.5329L116.626 16.5407L116.469 16.5569L117.179 22.5147ZM124.486 21.7651L123.776 15.8072L123.601 15.8252L123.427 15.8535L124.486 21.7651ZM126.367 23.2707L120.399 23.8831L120.4 23.8957L120.402 23.9083L126.367 23.2707ZM128.247 38.4963L128.673 44.4765C130.058 44.4007 133.165 44.2185 136.158 43.9114L135.448 37.9536L134.738 31.9958C132.04 32.2725 129.168 32.4424 127.822 32.5161L128.247 38.4963ZM135.448 37.9536L136.158 43.9114C137.832 43.7397 140.098 43.5192 141.978 43.063L140.468 37.2425L138.958 31.4221C138.039 31.6451 136.685 31.796 134.738 31.9958L135.448 37.9536ZM140.468 37.2425L146.464 36.9212C146.267 34.1017 145.99 31.7786 145.766 29.9045L139.797 30.5168L133.829 31.1291C134.052 32.9985 134.297 35.0643 134.472 37.5639L140.468 37.2425ZM139.797 30.5168L145.766 29.9045C145.486 27.5551 145.223 25.7739 145.011 24.4246C144.779 22.9489 144.666 22.3226 144.611 21.8564L138.642 22.4688L132.673 23.0811C132.764 23.8413 132.96 24.98 133.135 26.0922C133.329 27.3308 133.57 28.9604 133.829 31.1291L139.797 30.5168ZM138.642 22.4688L144.611 21.8564C144.583 21.6222 144.645 21.9458 144.586 22.474C144.512 23.1264 144.208 24.4871 142.984 25.6601C141.9 26.6989 140.742 26.9414 140.544 26.9835C140.344 27.0261 140.209 27.0321 140.621 26.9898L139.911 21.032L139.201 15.0741C139.031 15.0916 138.427 15.1457 137.856 15.2671C137.287 15.3881 135.855 15.7403 134.58 16.9621C133.165 18.318 132.752 19.9348 132.638 20.959C132.537 21.8589 132.624 22.6699 132.673 23.0811L138.642 22.4688ZM139.911 21.032L140.621 26.9898L145.276 26.5122L144.566 20.5544L143.856 14.5965L139.201 15.0741L139.911 21.032ZM144.566 20.5544L145.276 26.5122C145.168 26.5233 144.247 26.6313 143.086 26.2104C141.599 25.6712 140.594 24.6083 140.052 23.5954C139.829 23.1785 139.715 22.8318 139.662 22.6478C139.607 22.4602 139.585 22.3352 139.583 22.323C139.58 22.3064 139.585 22.3303 139.598 22.4288C139.61 22.5274 139.625 22.6446 139.646 22.8231L145.614 22.2108L151.583 21.5985C151.55 21.3221 151.496 20.8475 151.419 20.4131C151.353 20.043 151.176 19.0933 150.638 18.0885C149.959 16.8202 148.775 15.5919 147.038 14.962C145.627 14.4504 144.385 14.5423 143.856 14.5965L144.566 20.5544ZM145.614 22.2108L139.652 22.8693L144.936 64.4665L150.899 63.808L156.862 63.1495L151.577 21.5523L145.614 22.2108ZM150.899 63.808L144.931 64.4203C144.951 64.5936 144.893 64.2577 144.944 63.7377C145.005 63.1206 145.262 61.8222 146.369 60.6412C147.403 59.5379 148.56 59.2134 148.902 59.1278C149.223 59.0474 149.436 59.0381 149.156 59.0668L149.866 65.0246L150.576 70.9825C150.781 70.9615 151.382 70.9043 152.006 70.7478C152.652 70.5861 154.03 70.1572 155.216 68.8913C156.475 67.5477 156.816 66.0284 156.908 65.1019C156.99 64.2724 156.909 63.5388 156.868 63.1957L150.899 63.808ZM149.866 65.0246L149.156 59.0668L143.919 59.6041L144.629 65.562L145.339 71.5198L150.576 70.9825L149.866 65.0246ZM144.629 65.562L143.919 59.6041C143.638 59.6329 143.812 59.6091 144.038 59.6072C144.235 59.6055 145.311 59.5896 146.545 60.2123C148.046 60.9693 148.869 62.1762 149.258 63.0886C149.426 63.4837 149.508 63.8075 149.547 63.9858C149.587 64.1694 149.603 64.2975 149.608 64.3325L143.639 64.9449L137.67 65.5572C137.71 65.8896 137.816 66.7085 138.201 67.6136C138.671 68.7196 139.604 70.0501 141.252 70.8817C142.635 71.5791 143.898 71.5889 144.334 71.5852C144.799 71.5811 145.263 71.5276 145.339 71.5198L144.629 65.562ZM143.639 64.9449L149.608 64.3325C149.611 64.3654 149.603 64.3013 149.586 63.9396C149.573 63.6499 149.553 63.1675 149.524 62.6387C149.464 61.5252 149.357 60.033 149.12 58.0453L143.151 58.6576L137.183 59.27C137.384 60.9613 137.471 62.1931 137.52 63.0937C137.546 63.572 137.559 63.9191 137.578 64.3122C137.593 64.6331 137.616 65.1048 137.67 65.5572L143.639 64.9449ZM143.151 58.6576L149.12 58.0453C148.895 56.1535 148.546 53.8275 147.997 50.9462L142.093 51.9717L136.188 52.9972C136.689 55.6268 136.993 57.6765 137.183 59.27L143.151 58.6576ZM142.093 51.9717L148.061 51.3593C147.645 47.8636 144.727 46.5489 144.396 46.3958C143.602 46.0292 142.873 45.8825 142.518 45.8187C141.714 45.6743 140.868 45.6313 140.192 45.6177C138.757 45.5889 137.007 45.6787 135.342 45.8496L136.052 51.8074L136.762 57.7653C138.07 57.631 139.314 57.5771 140.142 57.5937C140.598 57.6029 140.702 57.6299 140.57 57.6063C140.552 57.603 140.09 57.5293 139.484 57.2489C139.177 57.1072 138.547 56.7844 137.901 56.16C137.211 55.494 136.328 54.2994 136.124 52.584L142.093 51.9717ZM136.052 51.8074L135.342 45.8496C133.639 46.0242 131.793 46.3002 130.271 46.6879C129.564 46.868 128.584 47.1555 127.666 47.6298C127.229 47.8555 126.437 48.308 125.703 49.0967C124.943 49.913 123.772 51.6421 124.063 54.0827L130.032 53.4703L136.001 52.858C136.27 55.1211 135.175 56.675 134.575 57.3195C134.001 57.9364 133.454 58.2203 133.335 58.2818C133.053 58.4275 133.001 58.4033 133.422 58.2962C134.154 58.1096 135.36 57.9091 136.762 57.7653L136.052 51.8074ZM130.032 53.4703L124.026 53.6056C124.092 55.33 124.198 56.8615 124.362 58.2333L130.33 57.621L136.299 57.0087C136.185 56.0569 136.097 54.8644 136.038 53.3351L130.032 53.4703ZM130.33 57.621L124.362 58.2333C124.524 59.5931 124.712 60.7022 124.868 61.5642C125.046 62.5558 125.111 62.8715 125.14 63.1187L131.109 62.5064L137.078 61.8941C136.992 61.1731 136.809 60.2402 136.698 59.6281C136.565 58.8866 136.421 58.037 136.299 57.0087L130.33 57.621ZM131.109 62.5064L125.14 63.1187C125.161 63.2901 125.113 63.0342 125.156 62.5961C125.206 62.0932 125.399 61.0831 126.178 60.0729C126.966 59.052 127.913 58.5988 128.437 58.4141C128.891 58.2543 129.178 58.2418 129.032 58.2568L129.742 64.2146L130.452 70.1725C131.012 70.115 133.869 69.9094 135.752 67.4684C137.586 65.0919 137.128 62.3149 137.078 61.8941L131.109 62.5064ZM129.742 64.2146L129.032 58.2568L121.854 58.9931L122.564 64.951L123.274 70.9088L130.452 70.1725L129.742 64.2146ZM122.564 64.951L121.854 58.9931C121.528 59.0266 121.554 59.0121 121.712 59.0166C121.861 59.0208 122.599 59.0469 123.505 59.4817C124.577 59.996 125.369 60.8284 125.836 61.7052C126.219 62.4271 126.277 62.9798 126.279 63.0019L120.311 63.6142L114.342 64.2265C114.508 65.6165 115.189 68.7022 118.43 70.2578C119.7 70.8676 120.881 70.9708 121.56 70.9901C122.247 71.0097 122.89 70.9483 123.274 70.9088L122.564 64.951ZM120.311 63.6142L126.279 63.0019L126.256 62.8082L120.287 63.4206L114.319 64.0329L114.342 64.2265L120.311 63.6142ZM120.287 63.4206L126.288 63.1618C125.761 54.2962 125.107 47.1217 124.429 41.436L118.46 42.0483L112.492 42.6607C113.137 48.0764 113.772 55.0121 114.287 63.6794L120.287 63.4206ZM118.46 42.0483L124.429 41.436C123.986 37.7173 123.551 34.634 123.185 32.1145C122.811 29.5405 122.531 27.7098 122.363 26.2949L116.394 26.9072L110.425 27.5196C110.618 29.1381 110.937 31.2314 111.288 33.6462C111.647 36.1155 112.066 39.086 112.492 42.6607L118.46 42.0483ZM116.394 26.9072L122.363 26.2949C122.28 25.6024 122.238 25.1211 122.224 24.788C122.207 24.4218 122.234 24.4295 122.2 24.6428C122.173 24.8132 122.017 25.7341 121.212 26.697C120.243 27.8554 118.945 28.3642 117.889 28.4725L117.179 22.5147L116.469 16.5569C114.896 16.7182 113.197 17.4235 111.927 18.9414C110.821 20.2639 110.465 21.7075 110.326 22.5836C110.066 24.2186 110.253 26.0781 110.425 27.5196L116.394 26.9072ZM117.179 22.5147L117.575 28.4965C118.75 28.438 120.04 28.3826 121.397 28.2434L120.686 22.2856L119.976 16.3277C119.006 16.4273 118.081 16.4684 116.784 16.5329L117.179 22.5147ZM120.686 22.2856L121.397 28.2434C122.994 28.0795 124.416 27.8602 125.545 27.6767L124.486 21.7651L123.427 15.8535C122.374 16.0246 121.224 16.1998 119.976 16.3277L120.686 22.2856ZM124.486 21.7651L125.196 27.7229L125.907 27.65L125.197 21.6921L124.487 15.7343L123.776 15.8072L124.486 21.7651ZM125.197 21.6921L125.907 27.65C125.907 27.65 125.901 27.6506 125.891 27.6515C125.881 27.6524 125.864 27.6538 125.842 27.6553C125.8 27.6583 125.727 27.6625 125.632 27.664C125.453 27.6667 125.104 27.6616 124.659 27.5801C123.582 27.3827 122.372 26.8103 121.44 25.7252C120.689 24.8517 120.458 24.0268 120.415 23.8696C120.358 23.6635 120.366 23.6125 120.399 23.8831L126.367 23.2707L132.336 22.6584C132.276 22.1544 132.181 21.5097 131.998 20.8511C131.829 20.2412 131.451 19.1048 130.52 18.0212C128.067 15.1657 124.662 15.7164 124.487 15.7343L125.197 21.6921ZM126.367 23.2707L120.402 23.9083L122.282 39.1339L128.247 38.4963L134.213 37.8587L132.333 22.6332L126.367 23.2707Z" fill="#1D3E1E" mask="url(#path-7-outside-4_170_74)"/>
<mask id="path-9-outside-5_170_74" maskUnits="userSpaceOnUse" x="153.158" y="12.7758" width="44.9515" height="59.3918" fill="black">
<rect fill="white" x="153.158" y="12.7758" width="44.9515" height="59.3918"/>
<path d="M179.985 32.8092C179.718 38.0023 179.256 45.7248 178.876 53.1251C178.686 56.8252 178.499 60.4604 178.404 63.5785C178.259 65.1342 178.057 65.2572 177.278 65.23L176.628 65.2072C176.112 65.1241 175.852 65.1151 175.722 65.1105C175.527 65.1037 172.799 65.0083 172.276 65.055L171.561 65.03C170.847 65.005 170.658 64.8684 170.673 63.3081C170.673 63.3081 170.739 60.7742 172.19 32.5365L163.096 32.2184C162.251 32.1888 162.336 31.8016 162.344 30.3712L162.543 20.1683C162.597 19.1297 162.795 19.0716 163.769 19.1057C168.771 19.2806 170.843 19.4832 175.517 19.7117C180.458 19.8195 185.596 19.8692 190.598 20.0441C191.572 20.0782 191.764 20.1499 191.711 21.1886L190.862 31.3688C190.724 32.7946 190.769 33.1864 189.924 33.1568C189.025 32.9303 186.361 32.8371 183.633 32.7417C180.84 32.644 179.992 32.6793 179.985 32.8092Z"/>
</mask>
<path d="M179.985 32.8092C179.718 38.0023 179.256 45.7248 178.876 53.1251C178.686 56.8252 178.499 60.4604 178.404 63.5785C178.259 65.1342 178.057 65.2572 177.278 65.23L176.628 65.2072C176.112 65.1241 175.852 65.1151 175.722 65.1105C175.527 65.1037 172.799 65.0083 172.276 65.055L171.561 65.03C170.847 65.005 170.658 64.8684 170.673 63.3081C170.673 63.3081 170.739 60.7742 172.19 32.5365L163.096 32.2184C162.251 32.1888 162.336 31.8016 162.344 30.3712L162.543 20.1683C162.597 19.1297 162.795 19.0716 163.769 19.1057C168.771 19.2806 170.843 19.4832 175.517 19.7117C180.458 19.8195 185.596 19.8692 190.598 20.0441C191.572 20.0782 191.764 20.1499 191.711 21.1886L190.862 31.3688C190.724 32.7946 190.769 33.1864 189.924 33.1568C189.025 32.9303 186.361 32.8371 183.633 32.7417C180.84 32.644 179.992 32.6793 179.985 32.8092Z" fill="#FBD300"/>
<path d="M178.404 63.5785L184.382 64.0376L184.399 63.8508L184.405 63.6634L178.404 63.5785ZM176.628 65.2072L175.579 71.127L175.947 71.1863L176.32 71.1993L176.628 65.2072ZM172.276 65.055L171.968 71.0471L172.341 71.0601L172.714 71.0268L172.276 65.055ZM170.673 63.3081L164.671 63.2521L164.67 63.3L164.669 63.348L170.673 63.3081ZM172.19 32.5365L178.186 32.7462L178.494 26.7541L172.498 26.5444L172.19 32.5365ZM162.344 30.3712L156.341 30.3523L156.341 30.3931L156.34 30.4338L162.344 30.3712ZM162.543 20.1683L156.547 19.9586L156.542 20.054L156.54 20.1494L162.543 20.1683ZM175.517 19.7117L175.126 25.7003L175.207 25.7043L175.288 25.706L175.517 19.7117ZM191.711 21.1886L197.694 21.5889L197.702 21.4937L197.707 21.3983L191.711 21.1886ZM190.862 31.3688L196.838 31.8504L196.842 31.8098L196.846 31.7691L190.862 31.3688ZM189.924 33.1568L188.367 38.9719L188.981 39.1267L189.616 39.1489L189.924 33.1568ZM179.985 32.8092L173.989 32.5994C173.856 35.1785 173.675 38.3897 173.478 41.902C173.282 45.4065 173.071 49.1998 172.88 52.9153L178.876 53.1251L184.872 53.3348C185.062 49.6501 185.272 45.882 185.468 42.3769C185.664 38.8796 185.847 35.633 185.982 33.0189L179.985 32.8092ZM178.876 53.1251L172.88 52.9153C172.69 56.5977 172.5 60.3004 172.402 63.4937L178.404 63.5785L184.405 63.6634C184.498 60.6204 184.681 57.0527 184.872 53.3348L178.876 53.1251ZM178.404 63.5785L172.425 63.1195C172.395 63.4404 172.383 63.4333 172.418 63.2797C172.438 63.1872 172.611 62.3667 173.29 61.4597C174.16 60.297 175.35 59.6426 176.423 59.38C177.184 59.1939 177.769 59.2443 177.586 59.2379L177.278 65.23L176.97 71.2221C177.072 71.2256 180.585 71.5866 182.867 68.536C183.712 67.4073 184.011 66.266 184.135 65.7137C184.272 65.1004 184.339 64.4945 184.382 64.0376L178.404 63.5785ZM177.278 65.23L177.586 59.2379L176.936 59.2151L176.628 65.2072L176.32 71.1993L176.97 71.2221L177.278 65.23ZM176.628 65.2072L177.677 59.2874C176.866 59.1569 176.352 59.1297 176.03 59.1184L175.722 65.1105L175.414 71.1026C175.443 71.1036 175.432 71.1033 175.418 71.1026C175.402 71.1017 175.392 71.1009 175.39 71.1007C175.386 71.1003 175.443 71.1052 175.579 71.127L176.628 65.2072ZM175.722 65.1105L176.03 59.1184C175.928 59.1149 175.171 59.0884 174.367 59.0687C173.799 59.0548 172.534 59.021 171.838 59.0832L172.276 65.055L172.714 71.0268C172.541 71.0423 172.451 71.0404 172.557 71.0388C172.62 71.0379 172.722 71.0375 172.864 71.0386C173.147 71.0407 173.505 71.0476 173.877 71.0566C174.616 71.0747 175.321 71.0993 175.414 71.1026L175.722 65.1105ZM172.276 65.055L172.584 59.0629L171.869 59.0379L171.561 65.03L171.253 71.0221L171.968 71.0471L172.276 65.055ZM171.561 65.03L171.869 59.0379C171.869 59.0379 171.875 59.0381 171.886 59.0387C171.897 59.0392 171.914 59.0401 171.937 59.0417C171.981 59.0446 172.058 59.0507 172.158 59.0632C172.344 59.0864 172.711 59.1437 173.163 59.2997C174.285 59.6869 175.364 60.4896 176.054 61.6809C176.585 62.5976 176.662 63.3798 176.671 63.4537C176.687 63.5929 176.674 63.5857 176.677 63.2683L170.673 63.3081L164.669 63.348C164.665 63.8107 164.671 64.4056 164.74 65.0101C164.802 65.5492 164.968 66.6596 165.633 67.8086C167.528 71.0815 171.042 71.0147 171.253 71.0221L171.561 65.03ZM170.673 63.3081C176.676 63.3642 176.676 63.3651 176.676 63.3659C176.676 63.3661 176.676 63.3669 176.676 63.3674C176.676 63.3684 176.676 63.3693 176.676 63.3702C176.675 63.372 176.675 63.3735 176.675 63.3748C176.675 63.3773 176.675 63.3789 176.675 63.3795C176.675 63.3806 176.675 63.3779 176.676 63.3705C176.676 63.3556 176.677 63.3236 176.679 63.2683C176.683 63.1575 176.691 62.9593 176.705 62.627C176.733 61.9622 176.786 60.774 176.885 58.6978C177.082 54.5459 177.461 46.8618 178.186 32.7462L172.19 32.5365L166.194 32.3267C165.468 46.4488 165.088 54.1506 164.89 58.3251C164.791 60.4121 164.737 61.6223 164.707 62.315C164.693 62.6615 164.684 62.8818 164.679 63.0199C164.676 63.0891 164.675 63.1391 164.673 63.1751C164.673 63.1931 164.672 63.2081 164.672 63.2205C164.672 63.2267 164.672 63.2324 164.672 63.2376C164.672 63.2402 164.671 63.2427 164.671 63.2451C164.671 63.2463 164.671 63.2475 164.671 63.2487C164.671 63.2492 164.671 63.2501 164.671 63.2504C164.671 63.2512 164.671 63.2521 170.673 63.3081ZM172.19 32.5365L172.498 26.5444L163.403 26.2263L163.096 32.2184L162.788 38.2105L171.882 38.5286L172.19 32.5365ZM163.096 32.2184L163.403 26.2263C163.487 26.2292 164.504 26.2423 165.652 26.8939C167.133 27.7347 167.865 29.0428 168.157 30.0236C168.366 30.7232 168.346 31.2494 168.343 31.0596C168.34 30.907 168.346 30.8298 168.349 30.3087L162.344 30.3712L156.34 30.4338C156.339 30.6279 156.331 31.1354 156.336 31.4586C156.341 31.7447 156.351 32.6378 156.643 33.6166C157.019 34.8767 157.887 36.3766 159.59 37.3429C160.959 38.1202 162.282 38.1928 162.788 38.2105L163.096 32.2184ZM162.344 30.3712L168.348 30.3901L168.547 20.1872L162.543 20.1683L156.54 20.1494L156.341 30.3523L162.344 30.3712ZM162.543 20.1683L168.54 20.3781C168.549 20.2038 168.55 20.5441 168.411 21.0516C168.246 21.6539 167.772 22.9035 166.48 23.9208C165.272 24.8711 164.075 25.0342 163.723 25.0722C163.393 25.1079 163.18 25.0879 163.461 25.0978L163.769 19.1057L164.077 13.1136C163.872 13.1064 163.269 13.0809 162.626 13.1503C161.961 13.2221 160.528 13.4582 159.143 14.5487C157.672 15.706 157.078 17.1628 156.83 18.067C156.609 18.8765 156.565 19.6135 156.547 19.9586L162.543 20.1683ZM163.769 19.1057L163.461 25.0978C168.461 25.2726 170.191 25.459 175.126 25.7003L175.517 19.7117L175.908 13.7231C171.496 13.5074 169.082 13.2886 164.077 13.1136L163.769 19.1057ZM175.517 19.7117L175.288 25.706C180.333 25.8161 185.336 25.8629 190.29 26.0362L190.598 20.0441L190.906 14.052C185.857 13.8754 180.582 13.8229 175.746 13.7174L175.517 19.7117ZM190.598 20.0441L190.29 26.0362C190.571 26.0461 190.358 26.0511 190.032 25.9925C189.685 25.93 188.509 25.684 187.404 24.6527C186.22 23.5488 185.876 22.2706 185.774 21.659C185.688 21.1436 185.723 20.8046 185.714 20.9788L191.711 21.1886L197.707 21.3983C197.725 21.0532 197.756 20.3158 197.619 19.4937C197.465 18.5755 197.023 17.0825 195.676 15.8266C194.407 14.6433 193.004 14.308 192.349 14.19C191.715 14.0759 191.112 14.0592 190.906 14.052L190.598 20.0441ZM191.711 21.1886L185.727 20.7882L184.879 30.9684L190.862 31.3688L196.846 31.7691L197.694 21.5889L191.711 21.1886ZM190.862 31.3688L184.886 30.8871C184.835 31.4066 184.833 31.4839 184.814 31.6358C184.792 31.8246 184.826 31.2989 185.106 30.6165C185.498 29.6596 186.361 28.4073 187.924 27.673C189.134 27.1039 190.149 27.1618 190.232 27.1647L189.924 33.1568L189.616 39.1489C190.122 39.1666 191.447 39.1866 192.891 38.5078C194.687 37.6638 195.706 36.23 196.21 35.0006C196.601 34.0457 196.703 33.1566 196.737 32.8718C196.776 32.5502 196.819 32.0439 196.838 31.8504L190.862 31.3688ZM189.924 33.1568L191.482 27.3417C190.375 27.0629 188.878 26.9693 187.903 26.914C186.705 26.8459 185.285 26.7966 183.941 26.7496L183.633 32.7417L183.325 38.7338C184.709 38.7822 185.985 38.8271 187.026 38.8862C187.545 38.9156 187.951 38.9457 188.248 38.9755C188.617 39.0126 188.588 39.0277 188.367 38.9719L189.924 33.1568ZM183.633 32.7417L183.941 26.7496C182.542 26.7006 181.477 26.6787 180.725 26.6959C180.396 26.7034 179.857 26.7219 179.301 26.8117C179.08 26.8473 178.404 26.9595 177.633 27.3073C177.28 27.4662 174.18 28.8757 173.989 32.5994L179.985 32.8092L185.982 33.0189C185.89 34.7977 185.048 36.1376 184.243 36.9553C183.52 37.6889 182.787 38.0597 182.426 38.2227C181.713 38.544 181.126 38.6329 181.03 38.6485C180.722 38.6983 180.57 38.6896 180.804 38.6843C181.175 38.6758 181.931 38.685 183.325 38.7338L183.633 32.7417Z" fill="#1D3E1E" mask="url(#path-9-outside-5_170_74)"/>
<mask id="path-11-outside-6_170_74" maskUnits="userSpaceOnUse" x="180.623" y="14.2863" width="57.8723" height="64.6218" fill="black">
<rect fill="white" x="180.623" y="14.2863" width="57.8723" height="64.6218"/>
<path d="M206.995 23.9969C207.286 23.3087 208.012 22.7964 208.788 22.8772L209.563 22.9579C210.21 23.0252 209.619 23.0291 214.339 23.5203C216.084 23.702 216.084 23.702 216.211 24.6949C216.211 24.6949 217.688 36.4098 224.21 70.6616C224.334 71.197 224.492 71.4748 224.466 71.668C224.431 71.9256 224.172 71.8987 223.655 71.8448L217.772 71.2324C216.802 71.1315 216.746 71.0604 216.546 70.1251C215.712 66.6418 214.813 60.2778 214.208 56.5571C214.064 55.693 210.637 55.3363 207.146 54.9729C203.655 54.6095 200.616 54.2932 200.226 55.2323L195.97 65.24C195.532 66.0435 195.552 66.3722 194.712 66.2848L188.376 65.6253C187.988 65.5849 187.803 65.5003 187.839 65.2427C187.865 65.0495 187.974 64.7342 188.229 64.3036C198.974 44.2594 200.241 38.8393 206.995 23.9969ZM210.682 34.8968L208.355 34.6545C207.838 34.6007 207.773 34.594 207.547 35.2889L205.063 42.4112C204.955 42.7264 204.928 42.9196 204.91 43.0484C204.884 43.2416 204.94 43.3128 205.198 43.3397L212.181 44.0665C212.439 44.0934 212.513 44.0357 212.53 43.9069C212.548 43.7781 212.501 43.6426 212.472 43.3783L211.167 35.6657C211.053 35.066 211.006 34.9304 210.682 34.8968Z"/>
</mask>
<path d="M206.995 23.9969C207.286 23.3087 208.012 22.7964 208.788 22.8772L209.563 22.9579C210.21 23.0252 209.619 23.0291 214.339 23.5203C216.084 23.702 216.084 23.702 216.211 24.6949C216.211 24.6949 217.688 36.4098 224.21 70.6616C224.334 71.197 224.492 71.4748 224.466 71.668C224.431 71.9256 224.172 71.8987 223.655 71.8448L217.772 71.2324C216.802 71.1315 216.746 71.0604 216.546 70.1251C215.712 66.6418 214.813 60.2778 214.208 56.5571C214.064 55.693 210.637 55.3363 207.146 54.9729C203.655 54.6095 200.616 54.2932 200.226 55.2323L195.97 65.24C195.532 66.0435 195.552 66.3722 194.712 66.2848L188.376 65.6253C187.988 65.5849 187.803 65.5003 187.839 65.2427C187.865 65.0495 187.974 64.7342 188.229 64.3036C198.974 44.2594 200.241 38.8393 206.995 23.9969ZM210.682 34.8968L208.355 34.6545C207.838 34.6007 207.773 34.594 207.547 35.2889L205.063 42.4112C204.955 42.7264 204.928 42.9196 204.91 43.0484C204.884 43.2416 204.94 43.3128 205.198 43.3397L212.181 44.0665C212.439 44.0934 212.513 44.0357 212.53 43.9069C212.548 43.7781 212.501 43.6426 212.472 43.3783L211.167 35.6657C211.053 35.066 211.006 34.9304 210.682 34.8968Z" fill="#FBD300"/>
<path d="M206.995 23.9969L212.471 26.3128L212.506 26.237L212.538 26.1603L206.995 23.9969ZM216.211 24.6949L222.188 23.7697L222.187 23.7635L216.211 24.6949ZM224.21 70.6616L218.291 71.9487L218.312 72.0585L218.337 72.1672L224.21 70.6616ZM216.546 70.1251L222.44 68.7108L222.425 68.6407L222.408 68.571L216.546 70.1251ZM214.208 56.5571L220.155 55.4247L220.153 55.4137L220.151 55.4026L214.208 56.5571ZM200.226 55.2323L205.764 57.4075L205.773 57.3858L205.782 57.3642L200.226 55.2323ZM195.97 65.24L201.248 67.9537L201.391 67.6904L201.508 67.4152L195.97 65.24ZM188.229 64.3036L193.394 67.2163L193.463 67.0994L193.527 66.9798L188.229 64.3036ZM207.547 35.2889L213.232 37.0832L213.253 37.0235L213.273 36.9635L207.547 35.2889ZM205.063 42.4112L199.378 40.6168L199.374 40.6265L199.371 40.6362L205.063 42.4112ZM212.472 43.3783L218.459 42.5392L218.44 42.3736L218.413 42.2096L212.472 43.3783ZM211.167 35.6657L217.108 34.4971L217.098 34.436L217.086 34.3753L211.167 35.6657ZM206.995 23.9969L212.538 26.1603C211.928 27.6045 210.276 29.0613 207.974 28.8217L208.788 22.8772L209.602 16.9327C205.748 16.5315 202.644 19.013 201.452 21.8335L206.995 23.9969ZM208.788 22.8772L207.974 28.8217L208.749 28.9025L209.563 22.9579L210.378 17.0134L209.602 16.9327L208.788 22.8772ZM209.563 22.9579L208.749 28.9025C208.769 28.9044 208.738 28.9002 208.778 28.9065C208.896 28.9255 209.09 28.9572 209.427 29.0027C210.047 29.0867 211.156 29.2183 213.525 29.4649L214.339 23.5203L215.153 17.5758C212.802 17.3311 211.847 17.2152 211.421 17.1576C211.235 17.1324 211.16 17.1198 211.06 17.1037C210.881 17.0751 210.682 17.0451 210.378 17.0134L209.563 22.9579ZM214.339 23.5203L213.525 29.4649C213.753 29.4886 213.907 29.5047 214.034 29.5194C214.163 29.5343 214.194 29.5399 214.176 29.5368C214.164 29.535 213.997 29.508 213.752 29.4343C213.503 29.3594 213.056 29.2018 212.55 28.8839C212.005 28.5418 211.49 28.0767 211.07 27.4886C210.671 26.9283 210.465 26.4056 210.358 26.069C210.259 25.755 210.223 25.5237 210.219 25.4983C210.215 25.4735 210.215 25.473 210.235 25.6264L216.211 24.6949L222.187 23.7635C222.182 23.7262 222.102 22.9247 221.863 22.1671C221.506 21.0406 220.738 19.6791 219.214 18.723C218.059 17.9983 216.902 17.8077 216.524 17.745C216.055 17.667 215.511 17.6131 215.153 17.5758L214.339 23.5203ZM216.211 24.6949C210.234 25.6202 210.234 25.6207 210.234 25.6213C210.234 25.6216 210.234 25.6223 210.234 25.6228C210.234 25.6239 210.235 25.6251 210.235 25.6265C210.235 25.6293 210.235 25.6329 210.236 25.6371C210.237 25.6456 210.239 25.657 210.24 25.6714C210.244 25.7 210.249 25.7404 210.256 25.7927C210.27 25.8974 210.291 26.0503 210.318 26.2538C210.374 26.6609 210.46 27.2712 210.583 28.1057C210.829 29.7746 211.222 32.3416 211.819 35.9755C213.013 43.2425 215.022 54.7834 218.291 71.9487L224.21 70.6616L230.13 69.3746C226.876 52.2881 224.885 40.8456 223.71 33.6922C223.123 30.1159 222.739 27.6135 222.504 26.0154C222.386 25.2165 222.306 24.6439 222.255 24.2766C222.23 24.0929 222.212 23.9606 222.201 23.877C222.196 23.8352 222.192 23.8056 222.19 23.7878C222.189 23.7789 222.188 23.773 222.188 23.77C222.187 23.7685 222.187 23.7677 222.187 23.7677C222.187 23.7677 222.187 23.7678 222.187 23.7682C222.187 23.7683 222.187 23.7687 222.187 23.7688C222.187 23.7692 222.187 23.7697 216.211 24.6949ZM224.21 70.6616L218.337 72.1672C218.467 72.7346 218.633 73.2159 218.653 73.2765C218.659 73.2977 218.65 73.2708 218.636 73.2228C218.623 73.1751 218.591 73.0639 218.559 72.9127C218.527 72.762 218.484 72.5238 218.461 72.2236C218.438 71.9197 218.434 71.5171 218.498 71.0468L224.466 71.668L230.434 72.2892C230.572 71.2826 230.431 70.4792 230.35 70.0964C230.268 69.7123 230.162 69.3895 230.136 69.3098C230.052 69.0493 230.077 69.1241 230.084 69.1561L224.21 70.6616ZM224.466 71.668L218.498 71.0468C218.63 70.085 219.103 68.6094 220.478 67.3983C221.728 66.2959 223.039 66.0318 223.584 65.9555C224.135 65.8782 224.54 65.9097 224.56 65.9109C224.613 65.9143 224.637 65.9178 224.469 65.9003L223.655 71.8448L222.841 77.7894C222.931 77.7988 223.181 77.8259 223.43 77.8414C223.644 77.8547 224.213 77.887 224.899 77.7909C225.577 77.6959 226.991 77.3935 228.317 76.2255C229.765 74.9486 230.284 73.3798 230.434 72.2892L224.466 71.668ZM223.655 71.8448L224.469 65.9003L218.586 65.2879L217.772 71.2324L216.958 77.177L222.841 77.7894L223.655 71.8448ZM217.772 71.2324L218.586 65.2879C218.311 65.2594 218.511 65.2686 218.816 65.3432C219.202 65.4379 220.138 65.7211 221.039 66.5495C221.927 67.3668 222.275 68.251 222.387 68.5757C222.476 68.8303 222.503 69.0043 222.44 68.7108L216.546 70.1251L210.652 71.5395C210.69 71.7136 210.799 72.2472 210.984 72.7814C211.193 73.3855 211.653 74.4692 212.702 75.4338C213.762 76.4095 214.907 76.7879 215.583 76.9536C216.176 77.0991 216.747 77.155 216.958 77.177L217.772 71.2324ZM216.546 70.1251L222.408 68.571C221.641 65.3665 220.807 59.4324 220.155 55.4247L214.208 56.5571L208.261 57.6894C208.819 61.1232 209.783 67.9171 210.684 71.6793L216.546 70.1251ZM214.208 56.5571L220.151 55.4026C219.818 53.4054 218.64 52.1798 217.916 51.5894C217.18 50.9899 216.435 50.6449 215.962 50.4531C215.005 50.0648 213.982 49.8423 213.215 49.7004C211.62 49.4051 209.621 49.2012 207.96 49.0284L207.146 54.9729L206.332 60.9174C208.163 61.1079 209.623 61.2642 210.649 61.4541C211.193 61.5547 211.272 61.6061 211.107 61.5391C211.03 61.5079 210.604 61.3354 210.097 60.9222C209.601 60.5181 208.561 59.4927 208.264 57.7115L214.208 56.5571ZM207.146 54.9729L207.96 49.0284C206.328 48.8584 204.356 48.6466 202.747 48.6374C201.972 48.6329 200.848 48.6656 199.71 48.9446C198.889 49.146 195.971 49.9732 194.669 53.1004L200.226 55.2323L205.782 57.3642C205.229 58.6918 204.306 59.5103 203.614 59.9479C202.975 60.3523 202.44 60.498 202.251 60.5443C201.903 60.6299 201.83 60.5882 202.299 60.5909C203.18 60.596 204.474 60.7239 206.332 60.9174L207.146 54.9729ZM200.226 55.2323L194.687 53.0571L190.432 63.0648L195.97 65.24L201.508 67.4152L205.764 57.4075L200.226 55.2323ZM195.97 65.24L190.692 62.5262C190.59 62.7132 190.508 62.8753 190.449 62.9926C190.365 63.1589 190.379 63.1341 190.352 63.1864C190.285 63.3181 190.534 62.7737 191.058 62.1919C191.774 61.3964 192.758 60.7674 193.891 60.4816C194.785 60.256 195.449 60.3322 195.526 60.3402L194.712 66.2848L193.898 72.2293C194.396 72.2811 195.372 72.349 196.512 72.0612C197.891 71.7133 199.055 70.9683 199.926 70.0011C200.605 69.2476 200.983 68.4759 201.061 68.3226C201.249 67.9562 201.182 68.0736 201.248 67.9537L195.97 65.24ZM194.712 66.2848L195.526 60.3402L189.19 59.6807L188.376 65.6253L187.562 71.5698L193.898 72.2293L194.712 66.2848ZM188.376 65.6253L189.19 59.6807C189.231 59.6849 189.449 59.7075 189.751 59.7821C190.031 59.8513 190.653 60.0288 191.346 60.4763C192.115 60.9733 192.942 61.7898 193.438 62.9955C193.914 64.1483 193.897 65.1984 193.806 65.8639L187.839 65.2427L181.871 64.6215C181.762 65.4158 181.756 66.5731 182.268 67.8154C182.802 69.1107 183.692 69.9992 184.552 70.5546C185.926 71.4424 187.36 71.5487 187.562 71.5698L188.376 65.6253ZM187.839 65.2427L193.806 65.8639C193.735 66.3812 193.605 66.7432 193.54 66.9066C193.466 67.0938 193.405 67.1979 193.394 67.2163L188.229 64.3036L183.065 61.391C182.587 62.1951 182.05 63.3149 181.871 64.6215L187.839 65.2427ZM188.229 64.3036L193.527 66.9798C204.387 46.7213 205.935 40.6771 212.471 26.3128L206.995 23.9969L201.519 21.681C194.547 37.0015 193.561 41.7975 182.931 61.6275L188.229 64.3036ZM210.682 34.8968L211.497 28.9523L209.169 28.71L208.355 34.6545L207.541 40.599L209.868 40.8413L210.682 34.8968ZM208.355 34.6545L209.169 28.71C209.127 28.7056 208.983 28.6902 208.834 28.6787C208.685 28.6672 208.393 28.648 208.036 28.6595C207.277 28.684 205.842 28.8589 204.409 29.8891C203.106 30.8267 202.499 31.9851 202.268 32.4696C202.031 32.9658 201.879 33.4375 201.821 33.6143L207.547 35.2889L213.273 36.9635C213.328 36.7928 213.269 37.0048 213.124 37.3084C212.985 37.6005 212.469 38.6336 211.274 39.4927C209.951 40.4445 208.643 40.5877 208.049 40.6069C207.624 40.6206 207.254 40.5692 207.541 40.599L208.355 34.6545ZM207.547 35.2889L201.861 33.4945L199.378 40.6168L205.063 42.4112L210.749 44.2055L213.232 37.0832L207.547 35.2889ZM205.063 42.4112L199.371 40.6362C199.081 41.4764 198.987 42.1009 198.943 42.4272L204.91 43.0484L210.878 43.6696C210.884 43.6261 210.87 43.7385 210.84 43.875C210.811 44.0116 210.779 44.1181 210.756 44.1861L205.063 42.4112ZM204.91 43.0484L198.943 42.4272C198.886 42.841 198.527 45.3444 200.502 47.4254C202.131 49.1422 204.225 49.2676 204.384 49.2842L205.198 43.3397L206.013 37.3952C206.147 37.4091 206.563 37.4562 207.087 37.6276C207.63 37.8052 208.553 38.2016 209.393 39.0874C211.282 41.0778 210.908 43.4491 210.878 43.6696L204.91 43.0484ZM205.198 43.3397L204.384 49.2842L211.367 50.011L212.181 44.0665L212.995 38.122L206.013 37.3952L205.198 43.3397ZM212.181 44.0665L211.367 50.011C211.643 50.0397 213.299 50.2494 215.079 49.3358C217.662 48.01 218.347 45.6346 218.498 44.5281L212.53 43.9069L206.563 43.2857C206.62 42.8698 206.778 42.0457 207.309 41.1302C207.902 40.1098 208.778 39.2859 209.813 38.7544C210.743 38.2771 211.57 38.1533 212.025 38.1153C212.491 38.0764 212.843 38.1062 212.995 38.122L212.181 44.0665ZM212.53 43.9069L218.498 44.5281C218.571 43.9938 218.564 43.5413 218.542 43.2169C218.522 42.9143 218.483 42.6701 218.469 42.5803C218.427 42.3153 218.453 42.4879 218.459 42.5392L212.472 43.3783L206.485 44.2174C206.505 44.4017 206.528 44.5553 206.546 44.6674C206.554 44.7201 206.562 44.7662 206.566 44.7892C206.571 44.8205 206.57 44.8153 206.569 44.8066C206.568 44.7998 206.539 44.6301 206.524 44.3974C206.506 44.1429 206.498 43.7556 206.563 43.2857L212.53 43.9069ZM212.472 43.3783L218.413 42.2096L217.108 34.4971L211.167 35.6657L205.226 36.8344L206.531 44.547L212.472 43.3783ZM211.167 35.6657L217.086 34.3753C217.06 34.2358 217.003 33.9352 216.921 33.6239C216.847 33.3413 216.66 32.6687 216.23 31.9369C215.719 31.0682 214.928 30.2167 213.8 29.6316C212.812 29.1187 211.908 28.9951 211.497 28.9523L210.682 34.8968L209.868 40.8413C209.619 40.8153 208.842 40.7213 207.957 40.262C206.933 39.7305 206.221 38.9566 205.777 38.201C205.413 37.5823 205.279 37.0582 205.256 36.9707C205.226 36.8545 205.218 36.7958 205.248 36.9562L211.167 35.6657Z" fill="#1D3E1E" mask="url(#path-11-outside-6_170_74)"/>
<mask id="path-13-outside-7_170_74" maskUnits="userSpaceOnUse" x="219.383" y="18.9227" width="57.4468" height="66.2852" fill="black">
<rect fill="white" x="219.383" y="18.9227" width="57.4468" height="66.2852"/>
<path d="M259.039 44.7766L261.967 31.7105C262.123 31.0128 262.059 31.0016 262.507 31.0798L268.206 32.0744C268.59 32.1414 268.654 32.1526 268.569 32.5332L268.498 32.8503L258.401 74.0599C258.273 74.6308 254.815 75.2137 251.87 74.6997C250.525 74.465 249.33 73.8609 248.753 72.574C242.014 43.8485 243.958 47.3512 241.957 42.9158C241.538 43.304 236.834 64.2986 234.859 73.115C234.703 73.8127 234.753 73.8873 234.112 73.7756L232.896 73.5633C228.477 72.7922 227.026 72.1434 227.282 71.0017L236.611 30.2512C236.909 28.9192 236.788 29.1617 237.848 29.4786L244.038 31.5475C246.18 32.3826 248.727 32.893 249.752 33.0718C253.081 33.6529 253.843 58.1716 255.508 58.4622C255.764 58.5069 257.334 52.3879 259.039 44.7766Z"/>
</mask>
<path d="M259.039 44.7766L261.967 31.7105C262.123 31.0128 262.059 31.0016 262.507 31.0798L268.206 32.0744C268.59 32.1414 268.654 32.1526 268.569 32.5332L268.498 32.8503L258.401 74.0599C258.273 74.6308 254.815 75.2137 251.87 74.6997C250.525 74.465 249.33 73.8609 248.753 72.574C242.014 43.8485 243.958 47.3512 241.957 42.9158C241.538 43.304 236.834 64.2986 234.859 73.115C234.703 73.8127 234.753 73.8873 234.112 73.7756L232.896 73.5633C228.477 72.7922 227.026 72.1434 227.282 71.0017L236.611 30.2512C236.909 28.9192 236.788 29.1617 237.848 29.4786L244.038 31.5475C246.18 32.3826 248.727 32.893 249.752 33.0718C253.081 33.6529 253.843 58.1716 255.508 58.4622C255.764 58.5069 257.334 52.3879 259.039 44.7766Z" fill="#FBD300"/>
<path d="M268.498 32.8503L274.381 33.9983L274.395 33.9402L274.409 33.8818L268.498 32.8503ZM258.401 74.0599L252.517 72.9119L252.503 72.97L252.49 73.0284L258.401 74.0599ZM248.753 72.574L242.85 74.1481L242.973 74.6745L243.194 75.1657L248.753 72.574ZM241.957 42.9158L247.511 40.3115L244.164 32.8893L237.91 38.6734L241.957 42.9158ZM227.282 71.0017L221.377 69.9429L221.374 69.9565L221.371 69.9702L227.282 71.0017ZM236.611 30.2512L242.515 31.31L242.518 31.2964L242.521 31.2827L236.611 30.2512ZM237.848 29.4786L240.022 23.8415L239.933 23.8115L239.842 23.7843L237.848 29.4786ZM244.038 31.5475L246.484 26.0086L246.349 25.9562L246.212 25.9104L244.038 31.5475ZM259.039 44.7766L264.95 45.8081L267.877 32.742L261.967 31.7105L256.056 30.6789L253.129 43.745L259.039 44.7766ZM261.967 31.7105L267.877 32.742C267.906 32.6123 267.93 32.5009 267.943 32.4352C267.962 32.3468 267.959 32.3644 267.951 32.3972C267.946 32.4185 267.898 32.6277 267.8 32.9054C267.709 33.165 267.473 33.7821 266.965 34.466C266.384 35.2489 265.539 35.9947 264.43 36.478C263.42 36.9178 262.546 36.9842 262.088 36.9915C261.423 37.0021 260.811 36.8676 261.195 36.9347L262.507 31.0798L263.819 25.2249C263.794 25.2206 263.637 25.1925 263.475 25.1698C263.328 25.1491 262.928 25.0949 262.423 25.103C261.906 25.1112 260.982 25.186 259.931 25.644C258.78 26.1455 257.9 26.9193 257.289 27.7423C256.752 28.4663 256.491 29.1356 256.376 29.4619C256.254 29.8063 256.185 30.0967 256.157 30.216C256.126 30.3467 256.099 30.4791 256.089 30.5244C256.075 30.5926 256.066 30.6342 256.056 30.6789L261.967 31.7105ZM262.507 31.0798L261.195 36.9347L266.894 37.9292L268.206 32.0744L269.518 26.2195L263.819 25.2249L262.507 31.0798ZM268.206 32.0744L266.894 37.9292C267.106 37.9662 266.838 37.9264 266.543 37.844C266.282 37.7708 265.034 37.4246 263.968 36.2512C262.733 34.8923 262.548 33.3637 262.548 32.5735C262.548 32.2028 262.586 31.916 262.607 31.7751C262.63 31.6268 262.653 31.5235 262.658 31.5016L268.569 32.5332L274.48 33.5647C274.51 33.4288 274.657 32.8038 274.657 32.0472C274.656 31.1457 274.447 29.5388 273.159 28.1212C272.04 26.889 270.709 26.5037 270.33 26.3976C270.079 26.3274 269.868 26.2846 269.762 26.2641C269.655 26.2432 269.55 26.2251 269.518 26.2195L268.206 32.0744ZM268.569 32.5332L262.658 31.5016L262.587 31.8188L268.498 32.8503L274.409 33.8818L274.48 33.5647L268.569 32.5332ZM268.498 32.8503L262.615 31.7023L252.517 72.9119L258.401 74.0599L264.284 75.208L274.381 33.9983L268.498 32.8503ZM258.401 74.0599L252.49 73.0284C252.789 71.695 253.478 70.7717 253.953 70.261C254.43 69.7496 254.887 69.4386 255.142 69.2807C255.64 68.973 256.017 68.8536 256.058 68.8402C256.195 68.7953 256.094 68.8399 255.704 68.8877C254.949 68.9802 253.965 68.9816 253.182 68.8448L251.87 74.6997L250.558 80.5546C252.72 80.9318 254.938 80.8988 256.679 80.6856C257.538 80.5805 258.509 80.4045 259.423 80.1058C259.852 79.9655 260.543 79.7109 261.266 79.264C261.686 79.0046 263.719 77.7374 264.311 75.0915L258.401 74.0599ZM251.87 74.6997L253.182 68.8448C253.044 68.8208 253.19 68.8223 253.46 68.9931C253.783 69.1974 254.116 69.5424 254.313 69.9822L248.753 72.574L243.194 75.1657C244.827 78.8109 248.155 80.1352 250.558 80.5546L251.87 74.6997ZM248.753 72.574L254.656 70.9998C251.306 56.7179 250.126 50.4995 249.537 47.3236C249.261 45.8365 249.052 44.6409 248.766 43.6006C248.437 42.4016 248.024 41.4486 247.511 40.3115L241.957 42.9158L236.403 45.5202C236.891 46.6008 236.985 46.8733 237.065 47.1626C237.188 47.6107 237.29 48.1663 237.62 49.9487C238.244 53.3116 239.462 59.7046 242.85 74.1481L248.753 72.574ZM241.957 42.9158L237.91 38.6734C237.084 39.4377 236.671 40.239 236.61 40.3522C236.462 40.6256 236.363 40.858 236.311 40.9839C236.202 41.246 236.121 41.4853 236.073 41.6323C235.969 41.949 235.866 42.3091 235.772 42.6529C235.577 43.3621 235.335 44.3121 235.066 45.4067C234.525 47.6106 233.828 50.5809 233.089 53.7871C231.609 60.2074 229.935 67.6783 228.948 72.0835L234.859 73.115L240.77 74.1465C241.758 69.7352 243.424 62.3006 244.894 55.9225C245.63 52.7294 246.311 49.8273 246.831 47.7101C247.093 46.6441 247.304 45.8213 247.454 45.2737C247.532 44.9891 247.575 44.8497 247.587 44.8119C247.597 44.7817 247.567 44.88 247.501 45.0394C247.47 45.1138 247.389 45.3045 247.259 45.5458C247.216 45.627 246.818 46.4061 246.005 47.1583L241.957 42.9158ZM234.859 73.115L228.948 72.0835C228.848 72.5302 228.901 72.3082 228.91 72.2746C228.932 72.1922 229.011 71.8957 229.177 71.5178C229.347 71.1293 229.686 70.4717 230.321 69.8018C231.885 68.1521 233.76 67.8951 234.59 67.8745C235.199 67.8594 235.654 67.9609 235.424 67.9207L234.112 73.7756L232.801 79.6304C232.891 79.6462 233.58 79.7802 234.364 79.7608C235.37 79.7358 237.362 79.4375 239.014 77.6959C240.254 76.3871 240.585 74.9266 240.623 74.782C240.675 74.5855 240.713 74.4078 240.728 74.3375C240.752 74.2282 240.756 74.2061 240.77 74.1465L234.859 73.115ZM234.112 73.7756L235.424 67.9207L234.207 67.7084L232.896 73.5633L231.584 79.4181L232.801 79.6304L234.112 73.7756ZM232.896 73.5633L234.207 67.7084C233.173 67.5279 232.406 67.3705 231.843 67.2306C231.25 67.0832 231.053 66.9963 231.075 67.0063C231.098 67.017 231.257 67.0898 231.481 67.25C231.707 67.4112 232.067 67.7094 232.415 68.1892C232.78 68.693 233.086 69.3365 233.226 70.0955C233.365 70.844 233.308 71.5148 233.192 72.0332L227.282 71.0017L221.371 69.9702C220.97 71.7619 221.252 73.7154 222.445 75.3611C223.44 76.7344 224.76 77.4562 225.597 77.8367C227.245 78.5853 229.412 79.0391 231.584 79.4181L232.896 73.5633ZM227.282 71.0017L233.186 72.0606L242.515 31.31L236.611 30.2512L230.706 29.1924L221.377 69.9429L227.282 71.0017ZM236.611 30.2512L242.521 31.2827C242.644 30.7338 242.619 30.8487 242.59 30.9474C242.569 31.0184 242.43 31.5046 242.09 32.0944C241.707 32.7571 240.887 33.8632 239.381 34.578C237.924 35.2696 236.637 35.2048 236.043 35.1303C235.735 35.0915 235.498 35.0355 235.369 35.0021C235.237 34.9678 235.143 34.9374 235.115 34.9285C234.765 34.814 235.608 35.0989 235.855 35.1728L237.848 29.4786L239.842 23.7843C239.559 23.6999 240.02 23.8356 239.384 23.6282C239.253 23.5855 238.745 23.4164 238.096 23.3349C237.403 23.2479 236.033 23.1904 234.506 23.9152C232.93 24.6631 232.053 25.8281 231.618 26.5813C231.226 27.2616 231.04 27.87 230.972 28.1006C230.848 28.5185 230.726 29.1026 230.7 29.2197L236.611 30.2512ZM237.848 29.4786L235.674 35.1157L241.864 37.1846L244.038 31.5475L246.212 25.9104L240.022 23.8415L237.848 29.4786ZM244.038 31.5475L241.593 37.0864C244.289 38.1376 247.301 38.7279 248.44 38.9267L249.752 33.0718L251.063 27.2169C250.153 27.0582 248.071 26.6276 246.484 26.0086L244.038 31.5475ZM249.752 33.0718L248.44 38.9267C246.871 38.6529 246.001 37.7945 245.718 37.4782C245.414 37.1374 245.324 36.906 245.373 37.0087C245.466 37.2072 245.669 37.766 245.922 38.831C246.412 40.8984 246.84 43.7612 247.248 46.8858C247.636 49.8532 248.016 53.1621 248.385 55.5843C248.569 56.7914 248.786 58.0348 249.058 59.0529C249.185 59.5303 249.396 60.2396 249.747 60.9419C249.921 61.2893 250.242 61.8671 250.776 62.4493C251.278 62.9975 252.386 64.0011 254.196 64.317L255.508 58.4622L256.819 52.6073C258.526 52.9051 259.531 53.8432 259.933 54.2816C260.366 54.7539 260.587 55.1775 260.663 55.3292C260.819 55.6401 260.839 55.7923 260.78 55.5703C260.679 55.1896 260.537 54.4653 260.363 53.3239C260.017 51.0489 259.687 48.1373 259.26 44.8662C258.853 41.7521 258.363 38.3581 257.722 35.6557C257.409 34.3358 256.993 32.8815 256.401 31.6268C256.106 31.0028 255.657 30.1848 254.975 29.4208C254.315 28.6814 253.049 27.5634 251.063 27.2169L249.752 33.0718ZM255.508 58.4622L254.196 64.317C257.376 64.872 259.441 62.838 259.755 62.5254C260.335 61.9475 260.668 61.3913 260.782 61.1984C261.054 60.7355 261.223 60.3158 261.29 60.1484C261.456 59.7313 261.603 59.2737 261.72 58.8905C261.97 58.0741 262.27 56.9727 262.596 55.7078C263.255 53.1514 264.089 49.6532 264.95 45.8081L259.039 44.7766L253.129 43.745C252.285 47.5113 251.481 50.8783 250.864 53.273C250.552 54.4836 250.305 55.3793 250.135 55.9355C250.042 56.2386 250.012 56.3112 250.036 56.2499C250.046 56.2236 250.073 56.1592 250.114 56.0696C250.15 55.9913 250.232 55.8187 250.36 55.6006C250.447 55.4518 250.757 54.9284 251.316 54.3715C251.608 54.0799 253.655 52.0552 256.819 52.6073L255.508 58.4622Z" fill="#1D3E1E" mask="url(#path-13-outside-7_170_74)"/>
<mask id="path-15-outside-8_170_74" maskUnits="userSpaceOnUse" x="252.346" y="26.3876" width="60.3764" height="66.8515" fill="black">
<rect fill="white" x="252.346" y="26.3876" width="60.3764" height="66.8515"/>
<path d="M273.065 66.9061C270.088 76.3951 269.081 78.9531 268.887 79.5733C268.828 79.7593 268.746 79.8058 268.493 79.7434L260.965 77.9495L260.712 77.8871C260.397 77.8091 260.416 77.7471 260.533 77.375C260.533 77.375 267.079 59.5457 271.087 46.7698C272.663 41.7462 273.84 37.5597 274.085 35.4815L274.143 35.2955C274.299 34.7993 274.318 34.7373 275.012 34.9088L275.454 35.018L282.497 36.6251L283.065 36.7655C283.38 36.8434 283.676 36.9834 283.108 37.7117C281.421 41.5718 280.419 44.3314 279.699 46.6262C279.154 48.3627 278.77 49.8047 278.366 51.3088C277.646 53.6035 277.801 53.976 278.432 54.1319C278.622 54.1787 278.957 54.1947 279.272 54.2727L279.903 54.4286C286.907 56.1598 290.258 47.4314 292.145 41.4155C292.476 40.3612 292.884 39.9274 293.515 40.0833C295.175 40.4268 298.961 41.3625 300.034 41.6277C303.441 42.4698 303.679 42.7959 303.582 43.106L303.523 43.2921L303.504 43.3541L301.475 50.4711C301.183 51.4014 301.101 51.4478 300.343 51.2606L298.809 50.9483L297.847 53.584C296.309 58.4835 289.797 62.5543 282.792 60.8232L282.856 60.8388C296.044 64.0983 288.819 80.6237 288.973 82.7334C288.915 82.9195 289.118 83.5712 288.963 84.0674C288.865 84.3775 288.598 84.5788 288.137 84.5316C288.137 84.5316 286.729 84.2505 285.909 84.0478C284.142 83.6111 279.997 82.5198 279.133 82.2394C278.818 82.1614 278.969 81.4636 279.28 80.4713C280.233 77.4324 281.327 75.0296 281.95 73.045C283.078 69.4478 282.696 67.4153 277.332 66.0897C275.692 65.6842 274.42 65.8376 273.065 66.9061Z"/>
</mask>
<path d="M273.065 66.9061C270.088 76.3951 269.081 78.9531 268.887 79.5733C268.828 79.7593 268.746 79.8058 268.493 79.7434L260.965 77.9495L260.712 77.8871C260.397 77.8091 260.416 77.7471 260.533 77.375C260.533 77.375 267.079 59.5457 271.087 46.7698C272.663 41.7462 273.84 37.5597 274.085 35.4815L274.143 35.2955C274.299 34.7993 274.318 34.7373 275.012 34.9088L275.454 35.018L282.497 36.6251L283.065 36.7655C283.38 36.8434 283.676 36.9834 283.108 37.7117C281.421 41.5718 280.419 44.3314 279.699 46.6262C279.154 48.3627 278.77 49.8047 278.366 51.3088C277.646 53.6035 277.801 53.976 278.432 54.1319C278.622 54.1787 278.957 54.1947 279.272 54.2727L279.903 54.4286C286.907 56.1598 290.258 47.4314 292.145 41.4155C292.476 40.3612 292.884 39.9274 293.515 40.0833C295.175 40.4268 298.961 41.3625 300.034 41.6277C303.441 42.4698 303.679 42.7959 303.582 43.106L303.523 43.2921L303.504 43.3541L301.475 50.4711C301.183 51.4014 301.101 51.4478 300.343 51.2606L298.809 50.9483L297.847 53.584C296.309 58.4835 289.797 62.5543 282.792 60.8232L282.856 60.8388C296.044 64.0983 288.819 80.6237 288.973 82.7334C288.915 82.9195 289.118 83.5712 288.963 84.0674C288.865 84.3775 288.598 84.5788 288.137 84.5316C288.137 84.5316 286.729 84.2505 285.909 84.0478C284.142 83.6111 279.997 82.5198 279.133 82.2394C278.818 82.1614 278.969 81.4636 279.28 80.4713C280.233 77.4324 281.327 75.0296 281.95 73.045C283.078 69.4478 282.696 67.4153 277.332 66.0897C275.692 65.6842 274.42 65.8376 273.065 66.9061Z" fill="#FBD300"/>
<path d="M273.065 66.9061L269.369 62.4071L267.816 63.6319L267.24 65.4665L273.065 66.9061ZM268.493 79.7434L270.289 74.0185L270.265 74.0125L270.24 74.0066L268.493 79.7434ZM260.965 77.9495L259.169 83.6744L259.193 83.6804L259.218 83.6863L260.965 77.9495ZM260.533 77.375L254.801 75.662L254.751 75.7978L254.708 75.9354L260.533 77.375ZM274.085 35.4815L268.26 34.0419L268.093 34.574L268.029 35.1216L274.085 35.4815ZM275.454 35.018L273.658 40.7429L273.71 40.7558L273.763 40.7679L275.454 35.018ZM282.497 36.6251L284.293 30.9002L284.241 30.8873L284.188 30.8752L282.497 36.6251ZM283.108 37.7117L278.316 34.313L277.827 34.9396L277.513 35.6582L283.108 37.7117ZM278.366 51.3088L284.191 52.7484L284.228 52.6292L284.261 52.5088L278.366 51.3088ZM293.515 40.0833L291.719 45.8082L291.831 45.8359L291.944 45.8593L293.515 40.0833ZM303.504 43.3541L297.679 41.9145L297.656 41.9898L297.634 42.0656L303.504 43.3541ZM301.475 50.4711L307.3 51.9107L307.323 51.8353L307.345 51.7596L301.475 50.4711ZM300.343 51.2606L302.139 45.5358L302.018 45.5058L301.895 45.4808L300.343 51.2606ZM298.809 50.9483L300.362 45.1685L294.965 44.0698L293.074 49.2443L298.809 50.9483ZM297.847 53.584L292.112 51.88L292.064 52.0113L292.022 52.1444L297.847 53.584ZM288.973 82.7334L294.798 84.173L295.134 83.1037L295.054 82.0093L288.973 82.7334ZM288.137 84.5316L286.607 90.3159L286.892 90.3728L287.183 90.4025L288.137 84.5316ZM279.133 82.2394L281.34 76.6317L281.137 76.5659L280.929 76.5146L279.133 82.2394ZM273.065 66.9061L267.24 65.4665C265.763 70.1739 264.782 73.1386 264.153 74.9873C263.614 76.57 263.174 77.7766 263.062 78.1337L268.887 79.5733L274.711 81.0129C274.701 81.0452 274.706 81.0268 274.76 80.8741C274.809 80.7338 274.868 80.5685 274.958 80.3135C275.132 79.8222 275.378 79.1241 275.712 78.1437C276.378 76.1861 277.389 73.1272 278.889 68.3457L273.065 66.9061ZM268.887 79.5733L263.062 78.1337C263.128 77.9213 263.8 75.6212 266.414 74.4319C267.577 73.9026 268.607 73.8499 269.189 73.8699C269.75 73.8891 270.158 73.9861 270.289 74.0185L268.493 79.7434L266.697 85.4682C266.852 85.5066 268.857 86.0968 271.112 85.0711C273.845 83.8276 274.586 81.4113 274.711 81.0129L268.887 79.5733ZM268.493 79.7434L270.24 74.0066L262.712 72.2128L260.965 77.9495L259.218 83.6863L266.746 85.4801L268.493 79.7434ZM260.965 77.9495L262.761 72.2246L262.508 72.1623L260.712 77.8871L258.916 83.612L259.169 83.6744L260.965 77.9495ZM260.712 77.8871L262.508 72.1623C262.552 72.173 262.69 72.2077 262.873 72.2692C263.049 72.3284 263.382 72.4498 263.771 72.6659C264.69 73.1759 265.871 74.2001 266.352 75.928C266.728 77.2794 266.459 78.3929 266.421 78.5603C266.368 78.7993 266.299 79.0015 266.358 78.8146L260.533 77.375L254.708 75.9354C254.698 75.9691 254.669 76.0607 254.641 76.1542C254.614 76.2464 254.562 76.4246 254.514 76.6418C254.449 76.9279 254.173 78.1316 254.569 79.5548C255.07 81.3544 256.298 82.432 257.298 82.9872C258.064 83.4122 258.784 83.5794 258.916 83.612L260.712 77.8871ZM260.533 77.375C266.265 79.0881 266.265 79.0879 266.265 79.0877C266.265 79.0875 266.265 79.0872 266.265 79.0869C266.265 79.0862 266.266 79.0853 266.266 79.084C266.267 79.0816 266.268 79.0781 266.27 79.0736C266.273 79.0644 266.278 79.051 266.285 79.0335C266.298 78.9983 266.317 78.9464 266.341 78.8785C266.391 78.7426 266.464 78.5425 266.559 78.2839C266.747 77.7668 267.02 77.0152 267.36 76.074C268.041 74.1919 268.989 71.5495 270.064 68.5054C272.208 62.4326 274.875 54.701 276.912 48.2094L271.087 46.7698L265.262 45.3302C263.291 51.6145 260.681 59.1855 258.55 65.2214C257.487 68.2315 256.549 70.845 255.876 72.7052C255.54 73.6351 255.271 74.3762 255.086 74.884C254.993 75.1378 254.922 75.3333 254.873 75.4649C254.849 75.5306 254.831 75.5804 254.819 75.6135C254.813 75.63 254.808 75.6424 254.805 75.6505C254.804 75.6546 254.803 75.6576 254.802 75.6595C254.802 75.6604 254.802 75.6611 254.801 75.6615C254.801 75.6617 254.801 75.6618 254.801 75.6619C254.801 75.662 254.801 75.662 260.533 77.375ZM271.087 46.7698L276.912 48.2094C278.438 43.3443 279.819 38.58 280.14 35.8414L274.085 35.4815L268.029 35.1216C267.862 36.5394 266.888 40.1481 265.262 45.3302L271.087 46.7698ZM274.085 35.4815L279.909 36.9211L279.968 36.7351L274.143 35.2955L268.318 33.8559L268.26 34.0419L274.085 35.4815ZM274.143 35.2955L279.968 36.7351C280.057 36.4492 279.953 36.8262 279.764 37.2265C279.52 37.7405 278.753 39.1535 276.965 40.0562C275.356 40.8685 273.948 40.7288 273.643 40.6971C273.275 40.6591 273.038 40.5897 273.216 40.6337L275.012 34.9088L276.808 29.184C276.639 29.1422 276.139 29.0163 275.568 28.9571C275.059 28.9043 273.507 28.779 271.786 29.6473C269.887 30.6061 269.043 32.1169 268.73 32.7767C268.571 33.1113 268.47 33.3961 268.423 33.5352C268.374 33.6766 268.331 33.8156 268.318 33.8559L274.143 35.2955ZM275.012 34.9088L273.216 40.6337L273.658 40.7429L275.454 35.018L277.25 29.2931L276.808 29.184L275.012 34.9088ZM275.454 35.018L273.763 40.7679L280.806 42.375L282.497 36.6251L284.188 30.8752L277.145 29.2681L275.454 35.018ZM282.497 36.6251L280.701 42.3499L281.269 42.4903L283.065 36.7655L284.861 31.0406L284.293 30.9002L282.497 36.6251ZM283.065 36.7655L281.269 42.4903C281.251 42.4859 280.68 42.3587 280.026 41.9916C279.278 41.5722 278.1 40.6547 277.575 38.9725C277.074 37.3661 277.467 36.008 277.725 35.3688C277.979 34.7418 278.275 34.3664 278.316 34.313L283.108 37.7117L287.9 41.1104C288.226 40.6928 288.697 40.0269 289.045 39.1663C289.399 38.2936 289.805 36.7591 289.261 35.017C288.693 33.1989 287.418 32.1863 286.544 31.6959C285.763 31.2579 285.037 31.084 284.861 31.0406L283.065 36.7655ZM283.108 37.7117L277.513 35.6582C275.748 39.6961 274.667 42.6612 273.875 45.1866L279.699 46.6262L285.524 48.0658C286.172 46.0017 287.094 43.4475 288.703 39.7652L283.108 37.7117ZM279.699 46.6262L273.875 45.1866C273.287 47.0597 272.872 48.6176 272.472 50.1088L278.366 51.3088L284.261 52.5088C284.668 50.9919 285.022 49.6657 285.524 48.0658L279.699 46.6262ZM278.366 51.3088L272.541 49.8692C272.232 50.8548 271.696 52.5712 271.811 54.2255C271.887 55.3209 272.266 56.856 273.555 58.1539C274.735 59.3423 276.098 59.7238 276.636 59.8568L278.432 54.1319L280.228 48.4071C280.451 48.4622 281.559 48.7385 282.554 49.7416C283.659 50.854 283.926 52.1233 283.974 52.8193C284.015 53.4029 283.918 53.7513 283.951 53.5955C283.972 53.4966 284.035 53.244 284.191 52.7484L278.366 51.3088ZM278.432 54.1319L276.636 59.8568C276.816 59.9011 276.971 59.9318 277.084 59.9523C277.199 59.9732 277.299 59.9888 277.372 59.9996C277.492 60.0172 277.646 60.0372 277.663 60.0394C277.718 60.0467 277.714 60.0468 277.69 60.0428C277.665 60.0385 277.587 60.0249 277.476 59.9975L279.272 54.2727L281.068 48.5478C280.8 48.4815 280.562 48.4366 280.378 48.406C280.197 48.3756 280.039 48.3541 279.947 48.3418C279.923 48.3386 279.9 48.3356 279.883 48.3334C279.864 48.3309 279.852 48.3292 279.84 48.3277C279.815 48.3244 279.815 48.3242 279.826 48.3258C279.836 48.3273 279.877 48.3334 279.936 48.3441C279.993 48.3545 280.096 48.3745 280.228 48.4071L278.432 54.1319ZM279.272 54.2727L277.476 59.9975L278.107 60.1535L279.903 54.4286L281.699 48.7038L281.068 48.5478L279.272 54.2727ZM279.903 54.4286L278.107 60.1535C281.24 60.9279 284.329 60.5686 287.088 59.1793C289.682 57.8735 291.557 55.8776 292.89 54.0188C295.483 50.4032 297.028 45.8562 297.97 42.8551L292.145 41.4155L286.32 39.9759C285.375 42.9907 284.301 45.8157 282.996 47.6355C282.38 48.4945 281.986 48.7321 281.923 48.7639C281.915 48.7677 281.949 48.753 281.988 48.7487C282.022 48.7449 281.939 48.7631 281.699 48.7038L279.903 54.4286ZM292.145 41.4155L297.97 42.8551C298.07 42.5357 297.893 43.3854 296.971 44.3007C296.402 44.8662 295.543 45.4609 294.406 45.7637C293.294 46.0601 292.344 45.9627 291.719 45.8082L293.515 40.0833L295.311 34.3585C294.37 34.126 293.133 34.0244 291.756 34.3911C290.356 34.7643 289.256 35.5041 288.464 36.2904C287.098 37.6472 286.551 39.241 286.32 39.9759L292.145 41.4155ZM293.515 40.0833L291.944 45.8593C293.461 46.1731 297.103 47.0722 298.238 47.3525L300.034 41.6277L301.83 35.9028C300.819 35.6529 296.889 34.6805 295.086 34.3074L293.515 40.0833ZM300.034 41.6277L298.238 47.3525C299.971 47.781 300.334 47.9526 300.202 47.8901C300.126 47.8535 299.908 47.7455 299.631 47.5487C299.361 47.3571 298.895 46.9832 298.463 46.3726C297.991 45.7074 297.624 44.848 297.527 43.8375C297.435 42.8745 297.622 42.0978 297.757 41.6664L303.582 43.106L309.406 44.5456C309.566 44.0367 309.766 43.182 309.667 42.1384C309.563 41.0475 309.166 40.1052 308.633 39.3526C307.724 38.0697 306.505 37.4635 306.042 37.2426C304.964 36.7291 303.504 36.3166 301.83 35.9028L300.034 41.6277ZM303.582 43.106L297.757 41.6664L297.699 41.8525L303.523 43.2921L309.348 44.7317L309.406 44.5456L303.582 43.106ZM303.523 43.2921L297.699 41.8525L297.679 41.9145L303.504 43.3541L309.329 44.7937L309.348 44.7317L303.523 43.2921ZM303.504 43.3541L297.634 42.0656L295.605 49.1826L301.475 50.4711L307.345 51.7596L309.374 44.6426L303.504 43.3541ZM301.475 50.4711L295.65 49.0315C295.569 49.2916 295.61 49.1242 295.731 48.8603C295.829 48.6458 296.362 47.4759 297.729 46.5343C299.3 45.4529 300.844 45.4145 301.51 45.4561C302.025 45.4883 302.388 45.5973 302.139 45.5358L300.343 51.2606L298.547 56.9855C298.677 57.0175 299.335 57.1909 300.087 57.238C300.991 57.2945 302.716 57.2214 304.438 56.0355C305.958 54.9894 306.612 53.6451 306.832 53.1662C307.074 52.6377 307.235 52.1156 307.3 51.9107L301.475 50.4711ZM300.343 51.2606L301.895 45.4808L300.362 45.1685L298.809 50.9483L297.257 56.7282L298.791 57.0405L300.343 51.2606ZM298.809 50.9483L293.074 49.2443L292.112 51.88L297.847 53.584L303.582 55.288L304.544 52.6524L298.809 50.9483ZM297.847 53.584L292.022 52.1444C291.58 53.5515 288.723 56.1201 284.589 55.0983L282.792 60.8232L280.996 66.548C290.87 68.9884 301.038 63.4155 303.671 55.0236L297.847 53.584ZM282.792 60.8232L280.996 66.548L281.059 66.5636L282.856 60.8388L284.652 55.1139L284.589 55.0983L282.792 60.8232ZM282.856 60.8388L281.059 66.5636C282.94 67.0284 283.629 67.7878 283.997 68.425C284.472 69.2467 284.762 70.5266 284.709 72.364C284.657 74.1712 284.29 76.0771 283.869 77.8516C283.766 78.2877 283.663 78.7025 283.561 79.1086C283.464 79.4997 283.359 79.9147 283.271 80.2866C283.184 80.6495 283.087 81.0785 283.014 81.4989C282.96 81.811 282.829 82.5872 282.893 83.4575L288.973 82.7334L295.054 82.0093C295.098 82.616 295.006 83.0158 295.034 82.8525C295.044 82.7974 295.073 82.6518 295.144 82.3546C295.212 82.0664 295.295 81.7357 295.402 81.3089C295.505 80.8972 295.623 80.4221 295.745 79.9098C296.223 77.8906 296.809 75.0658 296.895 72.0705C296.981 69.1054 296.594 65.5109 294.71 62.2515C292.719 58.8074 289.365 56.2789 284.652 55.1139L282.856 60.8388ZM288.973 82.7334L283.149 81.2938C283.002 81.7619 282.939 82.1591 282.908 82.4215C282.877 82.6936 282.869 82.9228 282.867 83.0842C282.865 83.3927 282.885 83.6462 282.896 83.7627C282.907 83.8896 282.921 84.0104 282.926 84.0535C282.933 84.1188 282.935 84.133 282.936 84.1428C282.938 84.1667 282.923 84.0356 282.929 83.828C282.934 83.6309 282.961 83.1912 283.138 82.6278L288.963 84.0674L294.787 85.507C295.042 84.6955 295.102 83.9883 295.115 83.5236C295.128 83.0484 295.095 82.6497 295.073 82.4254C295.062 82.3111 295.05 82.2061 295.045 82.1593C295.037 82.0904 295.039 82.1065 295.042 82.1384C295.044 82.16 295.06 82.3281 295.058 82.5634C295.057 82.6882 295.05 82.8838 295.022 83.1257C294.995 83.3579 294.938 83.7282 294.798 84.173L288.973 82.7334ZM288.963 84.0674L283.138 82.6278C283.459 81.6035 284.218 80.3493 285.64 79.4831C287.018 78.6441 288.336 78.5835 289.091 78.6607L288.137 84.5316L287.183 90.4025C288.399 90.5269 290.082 90.3893 291.733 89.3839C293.428 88.3512 294.369 86.8414 294.787 85.507L288.963 84.0674ZM288.137 84.5316C289.667 78.7473 289.667 78.7473 289.667 78.7473C289.667 78.7473 289.667 78.7473 289.667 78.7473C289.667 78.7474 289.667 78.7474 289.667 78.7474C289.667 78.7474 289.667 78.7474 289.667 78.7473C289.667 78.7473 289.666 78.7472 289.665 78.747C289.664 78.7466 289.66 78.746 289.656 78.7451C289.647 78.7434 289.634 78.7406 289.616 78.737C289.58 78.7297 289.526 78.7188 289.458 78.705C289.323 78.6774 289.134 78.6385 288.922 78.5939C288.475 78.4999 288.006 78.3972 287.705 78.3229L285.909 84.0478L284.113 89.7726C284.633 89.9011 285.278 90.0403 285.74 90.1376C285.982 90.1885 286.197 90.2326 286.351 90.264C286.428 90.2798 286.49 90.2924 286.534 90.3013C286.556 90.3057 286.574 90.3092 286.586 90.3117C286.592 90.3129 286.597 90.3139 286.601 90.3146C286.603 90.315 286.604 90.3153 286.605 90.3155C286.606 90.3156 286.606 90.3157 286.607 90.3158C286.607 90.3158 286.607 90.3158 286.607 90.3159C286.607 90.3159 286.607 90.3159 286.607 90.3159C286.607 90.3159 286.607 90.3159 288.137 84.5316ZM285.909 84.0478L287.705 78.3229C286.869 78.1162 285.427 77.7439 284.079 77.3858C283.408 77.2076 282.774 77.0368 282.262 76.8954C282.006 76.8246 281.789 76.7636 281.619 76.7144C281.533 76.6899 281.466 76.6699 281.414 76.6543C281.359 76.6378 281.337 76.6308 281.34 76.6317L279.133 82.2394L276.927 87.8472C278.029 88.205 282.388 89.3462 284.113 89.7726L285.909 84.0478ZM279.133 82.2394L280.929 76.5146C282.031 76.7868 283.005 77.3709 283.734 78.1857C284.415 78.9472 284.726 79.7345 284.874 80.2687C285.139 81.2291 285.037 81.9793 285.025 82.0769C284.99 82.3674 284.945 82.4192 285.105 81.9109L279.28 80.4713L273.455 79.0317C273.303 79.5158 273.027 80.4127 272.918 81.3196C272.869 81.7255 272.769 82.7268 273.084 83.8709C273.46 85.2327 274.635 87.2964 277.337 87.9643L279.133 82.2394ZM279.28 80.4713L285.105 81.9109C285.522 80.5791 285.978 79.3643 286.441 78.1545C286.876 77.0195 287.393 75.7012 287.775 74.4846L281.95 73.045L276.125 71.6054C275.884 72.3734 275.543 73.2487 275.037 74.571C274.559 75.8185 273.991 77.3246 273.455 79.0317L279.28 80.4713ZM281.95 73.045L287.775 74.4846C288.375 72.5706 289.329 69.0381 287.477 65.7074C285.652 62.4272 282.104 61.1002 279.129 60.3649L277.332 66.0897L275.536 71.8146C276.046 71.9406 276.431 72.059 276.717 72.1627C277.003 72.2669 277.156 72.3441 277.217 72.3779C277.275 72.4105 277.214 72.3846 277.098 72.276C276.975 72.1608 276.816 71.978 276.675 71.7237C276.532 71.4679 276.448 71.2131 276.406 70.9937C276.365 70.7845 276.371 70.6494 276.372 70.6269C276.373 70.609 276.37 70.6745 276.332 70.8518C276.294 71.0287 276.23 71.2721 276.125 71.6054L281.95 73.045ZM277.332 66.0897L279.129 60.3649C277.811 60.0392 276.162 59.8146 274.316 60.1377C272.394 60.4743 270.752 61.3165 269.369 62.4071L273.065 66.9061L276.761 71.4051C276.767 71.3998 276.681 71.4687 276.505 71.5519C276.32 71.6391 276.1 71.7118 275.867 71.7526C275.406 71.8333 275.213 71.7347 275.536 71.8146L277.332 66.0897Z" fill="#1D3E1E" mask="url(#path-15-outside-8_170_74)"/>
</svg>
