<svg width="377" height="166" viewBox="0 0 377 166" fill="none" xmlns="http://www.w3.org/2000/svg">
<path fill-rule="evenodd" clip-rule="evenodd" d="M376.46 28.2359V0.416931H241.286C241.286 0.416931 210.461 16.1555 207.078 27.2798C207.078 27.2798 213.289 32.0272 227.81 33.3824C227.81 33.3824 219.011 35.4193 202.931 30.4059C202.931 30.4059 182.647 48.4309 181.569 72.575C181.569 72.575 188.601 74.3293 203.479 73.7889L208.745 64.8346L206.447 73.3898C206.447 73.3898 245.805 74.2212 267.184 68.7838C267.184 68.7838 271.231 64.3025 275.56 46.6766L273.902 66.8799C273.902 66.8799 281.092 67.1459 282.841 63.7538C284.591 60.3616 289.476 41.2475 289.476 41.2475L287.577 62.6646C287.577 62.6646 342.31 51.557 376.46 28.2359Z" fill="#4D9B44"/>
<path fill-rule="evenodd" clip-rule="evenodd" d="M367.395 30.09L341.265 0.416931H324.82C335.393 14.2932 367.395 30.09 367.395 30.09ZM274.208 0.49176L295.936 0.466827C295.936 0.466827 331.736 59.6965 337.666 91.7473C337.666 91.7473 295.388 53.569 274.208 0.49176ZM250.607 0.49176H260.558C260.558 0.49176 293.274 110.77 297.047 132.545C297.047 132.561 252.581 89.3778 250.607 0.516708L250.607 0.49176ZM222.992 0.49176H230.754C230.754 0.49176 250.657 57.5514 253.244 130.416C253.244 130.466 224.999 117.77 222.992 0.549957V0.49176ZM194.116 7.14305C194.116 7.14305 176.112 16.5213 175.515 28.635C174.918 40.7486 174.404 132.611 168.549 159.083C168.549 159.083 154.799 115.534 164.063 53.8849L169.312 23.7047C169.312 23.7047 163.424 31.495 158.473 46.7182C153.522 61.9413 113.576 165.793 113.576 165.793C113.576 165.793 111.917 117.571 152.867 36.2341C152.867 36.2341 106.361 115.068 77.8499 133.16C77.8499 133.16 93.283 88.006 129.896 53.1034C129.896 53.1034 49.8615 115.127 30.0166 118.253C30.0166 118.253 70.0132 72.151 81.1754 65.8739C92.3376 59.5967 139.814 31.6031 139.814 31.6031C139.814 31.6031 44.1975 44.1325 0.734497 36.4004C0.734497 36.4004 70.2619 20.4456 104.727 20.0964C139.192 19.7472 165.895 20.0299 165.895 20.0299C165.895 20.0299 159.037 15.0415 144.773 14.7588C130.51 14.4761 78.6294 9.28809 58.7265 0.73288L111.212 0.674667C111.212 0.674667 144.458 2.65343 169.909 10.7181C169.909 10.7181 183.559 10.2193 186.346 5.4054L191.321 0.583221H207.774C197.889 54.0429 223.97 130.607 212.617 160.405C205.519 96.927 184.115 79.0184 194.116 7.2345V7.14305Z" fill="#1D3E1E"/>
<path d="M165.895 20.03L165.889 20.53H165.871C165.858 20.5299 165.838 20.5293 165.812 20.5291C165.761 20.5285 165.683 20.5281 165.582 20.5271C165.378 20.5251 165.075 20.5218 164.676 20.5183C163.879 20.5113 162.702 20.5015 161.181 20.491C158.14 20.4699 153.725 20.4459 148.234 20.4324C137.252 20.4054 121.962 20.4219 104.732 20.5964C87.5484 20.7706 61.5901 24.8381 39.8981 28.8708C29.0584 30.886 19.2945 32.8908 12.2408 34.3914C8.71436 35.1416 5.86524 35.7652 3.89807 36.2019C3.70715 36.2443 3.52434 36.2862 3.35022 36.325C25.1168 39.6682 58.3099 38.4869 86.5358 36.4031C101.197 35.3207 114.501 33.9965 124.14 32.9431C128.959 32.4165 132.863 31.9569 135.56 31.6296C136.909 31.466 137.956 31.3356 138.667 31.2458C139.022 31.201 139.293 31.1667 139.475 31.1433C139.566 31.1316 139.634 31.1219 139.68 31.116C139.703 31.113 139.721 31.1106 139.732 31.1091C139.738 31.1084 139.742 31.1085 139.745 31.1082C139.746 31.108 139.748 31.1073 139.749 31.1072L139.814 31.6033L139.75 31.1072L140.068 32.0339L140.066 32.0349C140.065 32.0358 140.062 32.0371 140.059 32.0388C140.053 32.0422 140.045 32.0478 140.034 32.0544C140.011 32.0679 139.976 32.0875 139.931 32.114C139.841 32.1672 139.707 32.2461 139.532 32.3494C139.181 32.5559 138.666 32.86 138.006 33.2488C136.686 34.0265 134.788 35.1453 132.475 36.5066C127.85 39.2291 121.566 42.9246 114.933 46.8162C101.671 54.5979 87.0067 63.1679 81.4205 66.3093C78.6976 67.8406 74.1514 71.8495 68.8229 77.0632C63.5121 82.2596 57.4718 88.6041 51.777 94.7566C46.0829 100.908 40.7367 106.864 36.8141 111.283C34.8531 113.492 33.2483 115.316 32.1334 116.589C31.848 116.914 31.5955 117.205 31.3766 117.456C33.617 116.88 36.4649 115.728 39.7867 114.106C43.8553 112.12 48.595 109.45 53.735 106.327C64.0145 100.081 75.8692 92.043 87.11 84.0974C98.3493 76.1529 108.969 68.3048 116.78 62.4431C120.685 59.5124 123.889 57.079 126.115 55.3777C127.228 54.527 128.097 53.8587 128.687 53.4041C128.982 53.1768 129.208 53.0028 129.36 52.8855L129.575 52.7195C129.58 52.7157 129.584 52.7126 129.587 52.7107C129.587 52.71 129.588 52.7091 129.589 52.7087L129.896 53.1033L129.589 52.7078L130.241 53.4656C111.985 70.8691 99.0028 90.8356 90.5836 106.458C86.3748 114.267 83.3073 120.987 81.2936 125.754C80.2867 128.137 79.5438 130.031 79.0524 131.329C78.9734 131.537 78.9045 131.732 78.8385 131.909C85.6075 127.28 93.3455 119.405 101.217 110.06C109.572 100.142 118.049 88.6066 125.639 77.6287C133.229 66.6516 139.928 56.2382 144.731 48.5691C147.132 44.735 149.059 41.5873 150.385 39.3982C151.048 38.3036 151.562 37.4479 151.909 36.8669C152.082 36.5766 152.215 36.3551 152.303 36.2058C152.348 36.1313 152.381 36.0746 152.403 36.0369C152.414 36.018 152.423 36.0034 152.428 35.9939C152.431 35.9893 152.433 35.9855 152.434 35.9832C152.435 35.9822 152.436 35.9818 152.436 35.9812L152.867 36.2341L152.436 35.9802L153.314 36.4587C132.858 77.0886 123.049 109.438 118.354 131.618C116.006 142.708 114.937 151.258 114.455 157.029C114.242 159.578 114.146 161.585 114.102 163.03C114.315 162.475 114.56 161.837 114.835 161.122C115.937 158.253 117.516 154.136 119.427 149.149C123.25 139.175 128.398 125.718 133.701 111.786C144.31 83.9117 155.527 54.1596 157.998 46.5632C160.483 38.9202 163.206 33.1392 165.31 29.2644C166.362 27.3271 167.259 25.8661 167.895 24.8875C168.213 24.3983 168.466 24.0296 168.64 23.782C168.727 23.6585 168.794 23.5648 168.84 23.5017C168.863 23.4703 168.881 23.4458 168.893 23.4294C168.899 23.4213 168.905 23.4153 168.908 23.4109C168.909 23.4087 168.911 23.4063 168.912 23.405L168.913 23.4041V23.4031L169.804 23.7908L164.555 53.9705C159.934 84.7374 161.054 110.987 163.329 129.542C164.466 138.82 165.892 146.174 167.033 151.205C167.603 153.72 168.103 155.655 168.459 156.96C168.461 156.968 168.464 156.976 168.466 156.984C171.124 142.988 172.612 114.941 173.504 88.4578C174.438 60.6982 174.717 34.6651 175.015 28.6101C175.325 22.329 180.127 16.8359 184.717 12.9646C187.028 11.0163 189.316 9.45171 191.027 8.37476C191.883 7.83598 192.595 7.41789 193.094 7.13452C193.344 6.99286 193.541 6.88531 193.675 6.81226C193.743 6.77578 193.794 6.74802 193.83 6.72925C193.847 6.72 193.86 6.71263 193.87 6.70776C193.874 6.70541 193.878 6.7032 193.88 6.7019C193.882 6.70127 193.883 6.70031 193.883 6.69995H193.884L194.116 7.14331L193.885 6.69995L194.616 6.31909V7.26929L194.611 7.30347C192.744 20.7045 191.974 32.2216 192.002 42.5056C192.082 42.3874 192.162 42.2689 192.243 42.1521C194.862 38.3665 197.447 35.3402 199.379 33.2595C200.344 32.219 201.147 31.4144 201.71 30.8689C201.991 30.5964 202.211 30.3882 202.363 30.2478C202.439 30.1776 202.497 30.1237 202.537 30.0876C202.557 30.0696 202.572 30.056 202.583 30.0466C202.588 30.0421 202.592 30.0383 202.594 30.0359C202.596 30.0347 202.597 30.0336 202.597 30.033H202.598L202.599 30.032L202.81 29.8445L203.08 29.9285C203.731 30.1315 204.371 30.3204 204.998 30.5007C204.915 20.2597 205.516 10.3343 207.176 1.08276H191.524L186.737 5.72339C185.949 7.03187 184.476 7.99989 182.8 8.72534C181.082 9.46925 179.075 9.99151 177.177 10.3582C175.276 10.7254 173.465 10.9403 172.131 11.0632C171.464 11.1247 170.915 11.163 170.532 11.1863C170.34 11.1979 170.189 11.2058 170.087 11.2107C170.035 11.2131 169.996 11.2154 169.969 11.2166C169.956 11.2171 169.945 11.2173 169.938 11.2175H169.927L169.84 11.2205L169.758 11.1951C157.074 7.17582 142.433 4.66903 130.952 3.16772C125.214 2.41741 120.269 1.91919 116.76 1.60815C115.006 1.45264 113.61 1.34385 112.654 1.27417C112.176 1.23935 111.808 1.21439 111.559 1.198C111.435 1.1898 111.34 1.1834 111.277 1.17944C111.245 1.17747 111.222 1.1765 111.206 1.17554C111.199 1.1751 111.193 1.17577 111.189 1.17554L61.3268 1.2312C71.5358 5.0374 88.0054 8.13444 103.933 10.3533C121.163 12.7535 137.678 14.1177 144.783 14.2585C151.972 14.401 157.308 15.7304 160.855 17.031C162.628 17.6812 163.954 18.3242 164.84 18.8074C165.283 19.0489 165.617 19.2506 165.841 19.3933C165.953 19.4645 166.038 19.5208 166.096 19.5603C166.125 19.58 166.147 19.5963 166.163 19.6072C166.17 19.6126 166.177 19.6167 166.181 19.6199C166.183 19.6214 166.185 19.6228 166.186 19.6238L166.188 19.6248H166.189L165.895 20.03ZM165.895 20.03L166.189 19.6257L167.456 20.5466L165.89 20.53L165.895 20.03ZM247.934 71.3669C245.959 58.9343 243.71 47.6966 241.516 38.0193C238.864 26.3214 236.292 16.9017 234.383 10.405C233.846 8.57437 233.36 6.9759 232.94 5.62378C234.293 4.82781 235.549 4.10916 236.661 3.48608C238.129 2.66343 239.343 2.007 240.19 1.5564C240.613 1.33122 240.944 1.1571 241.17 1.03979C241.271 0.987142 241.351 0.946211 241.408 0.916748H250.117C250.757 28.0093 255.341 50.8554 261.403 69.5251C257.218 70.3002 252.626 70.9003 247.934 71.3669ZM279.933 65.4675C279.244 63.0411 278.555 60.6195 277.869 58.2156C277.151 55.7027 276.435 53.209 275.728 50.7478L276.058 46.7175L275.075 46.5574C274.99 46.9028 274.904 47.2426 274.819 47.5779C271.605 36.4091 268.592 26.0652 266.209 17.9226C264.646 12.5829 263.353 8.18982 262.451 5.13159C262 3.60248 261.646 2.40665 261.406 1.59351C261.327 1.32596 261.26 1.09978 261.206 0.916748H273.84C282.634 22.8697 295.016 42.2616 306.507 57.4539C302.727 58.5065 299.357 59.3813 296.542 60.0798C293.714 60.7816 291.446 61.3056 289.886 61.6541C289.131 61.8227 288.542 61.9502 288.135 62.0369L289.973 41.2917L288.991 41.1238V41.1267C288.99 41.129 288.989 41.1329 288.988 41.1375C288.986 41.1466 288.982 41.1604 288.977 41.1785C288.968 41.2146 288.954 41.2685 288.936 41.3386C288.9 41.4792 288.846 41.6857 288.778 41.95C288.641 42.4787 288.444 43.2382 288.202 44.1599C287.717 46.0036 287.052 48.4969 286.333 51.0955C285.613 53.6946 284.84 56.3962 284.138 58.658C283.431 60.9369 282.811 62.7225 282.397 63.5242C282.026 64.2436 281.35 64.7998 280.486 65.2244C280.308 65.3119 280.123 65.3923 279.933 65.4675ZM323.973 52.1218C321.077 45.859 318.013 39.6651 315.022 33.8591C310.172 24.4444 305.508 16.0323 302.056 9.97437C300.331 6.94565 298.908 4.50492 297.917 2.82104C297.433 1.99968 297.051 1.3584 296.788 0.916748H324.577C329.976 7.88028 340.581 15.2555 349.812 20.8835C354.483 23.7314 358.823 26.1446 361.994 27.8455C363.579 28.696 364.874 29.3686 365.772 29.8289C366.221 30.059 366.571 30.2366 366.809 30.3562C366.928 30.416 367.019 30.4614 367.081 30.4919C367.111 30.5071 367.134 30.5184 367.15 30.5261C367.158 30.5299 367.164 30.5329 367.168 30.5349C367.17 30.5359 367.171 30.5373 367.172 30.5378H367.173H367.174L367.771 29.7595L342.372 0.916748H375.96V27.9705C360.501 38.4765 340.846 46.496 323.973 52.1218ZM365.286 28.4509C364.508 28.0468 363.556 27.5488 362.466 26.9646C359.307 25.2699 354.984 22.8659 350.333 20.03C341.371 14.5659 331.264 7.53973 325.854 0.916748H341.038L365.286 28.4509ZM307.541 57.1619C296.098 42.076 283.75 22.8069 274.949 0.991943L295.653 0.967529C295.718 1.07548 295.804 1.21875 295.91 1.39624C296.173 1.83706 296.561 2.48771 297.055 3.32788C298.045 5.00821 299.465 7.44504 301.188 10.4695C304.635 16.5187 309.291 24.9181 314.132 34.3171C317.106 40.0901 320.146 46.234 323.017 52.4382C321.679 52.8802 320.359 53.308 319.061 53.7195C314.961 55.0196 311.082 56.1647 307.541 57.1619ZM223.725 10.2234C223.632 7.22108 223.557 4.14456 223.501 0.991943H230.396C230.426 1.08056 230.463 1.18619 230.505 1.30933C230.65 1.74312 230.864 2.38987 231.138 3.23901C231.318 3.79556 231.521 4.43995 231.75 5.16772C229.699 6.38581 227.454 7.76675 225.176 9.25854C224.694 9.57486 224.21 9.89758 223.725 10.2234ZM262.392 69.3367C256.347 50.7538 251.768 27.9961 251.12 0.991943H260.184C260.246 1.19999 260.334 1.49692 260.447 1.87769C260.687 2.6905 261.041 3.88529 261.492 5.41382C262.394 8.47149 263.687 12.8648 265.25 18.2039C267.749 26.741 270.938 37.6983 274.327 49.488C272.44 56.5924 270.654 61.2226 269.297 64.1287C268.529 65.7723 267.897 66.8631 267.464 67.5378C267.247 67.8751 267.079 68.1085 266.968 68.2546C266.944 68.2872 266.922 68.3155 266.903 68.3396C265.474 68.6995 263.964 69.0302 262.392 69.3367ZM229.464 72.5984C227.597 61.8833 226.019 49.2083 224.939 34.2244C225.431 34.1946 225.864 34.1588 226.236 34.1199C226.785 34.0624 227.202 34.0005 227.484 33.9529C227.625 33.9291 227.732 33.909 227.805 33.8943C227.842 33.887 227.87 33.8809 227.889 33.8767C227.899 33.8746 227.907 33.8731 227.913 33.8718C227.915 33.8712 227.918 33.8703 227.92 33.8699H227.922L227.856 32.8845C226.8 32.7859 225.788 32.6664 224.82 32.5349C224.366 25.9415 224.007 18.9088 223.761 11.408C224.416 10.9634 225.07 10.5237 225.724 10.0955C227.912 8.66208 230.072 7.33102 232.056 6.14917C232.458 7.44707 232.918 8.96399 233.424 10.6873C235.328 17.1662 237.894 26.5653 240.541 38.24C242.727 47.8837 244.968 59.0796 246.937 71.4636C241.034 72.0254 235.008 72.3799 229.464 72.5984ZM223.807 32.3914C218.678 31.6163 214.849 30.4318 212.185 29.3591C210.524 28.69 209.315 28.0641 208.525 27.6091C208.144 27.3894 207.86 27.2097 207.671 27.0837C208.575 24.5275 210.973 21.6621 214.185 18.7605C216.718 16.4733 219.716 14.1994 222.785 12.075C223.027 19.2692 223.372 26.0328 223.807 32.3914ZM203.188 73.2976C199.985 73.4086 197.153 73.4136 194.682 73.3523C193.151 64.4913 192.142 55.0619 192.015 44.282C192.365 43.7486 192.715 43.2271 193.065 42.7205C195.652 38.9818 198.206 35.9927 200.112 33.9392C201.064 32.9129 201.855 32.1211 202.406 31.5867C202.681 31.3196 202.896 31.1166 203.043 30.9812C203.048 30.9765 203.053 30.972 203.058 30.9675C203.721 31.1718 204.371 31.3626 205.008 31.5437C205.151 42.8743 206.112 54.5742 207.385 66.1609L203.188 73.2976ZM212.93 72.9343C211.45 72.9369 210.181 72.9305 209.17 72.9226C208.955 71.1248 208.745 69.3224 208.543 67.5173L209.227 64.9646L208.313 64.5808L208.235 64.7156C207.047 53.6812 206.161 42.5808 206.012 31.824C212.55 33.597 217.716 34.1718 221.386 34.2742C222.339 34.3007 223.191 34.2944 223.94 34.2703C225.018 49.2312 226.59 61.9058 228.456 72.6375C222.338 72.8633 216.88 72.9274 212.93 72.9343ZM193.663 73.323C190.982 73.2338 188.764 73.0688 186.996 72.8875C185.199 72.7031 183.866 72.5024 182.986 72.3484C182.603 72.2813 182.305 72.2225 182.092 72.1785C182.644 61.9699 186.646 52.8703 191.039 45.8093C191.237 55.9383 192.214 64.8887 193.663 73.323ZM295.504 130.186C294.292 128.842 292.555 126.82 290.464 124.113C286.28 118.7 280.678 110.551 275.011 99.6296C270.754 91.4233 266.46 81.6504 262.706 70.2947C264.31 69.9799 265.85 69.6389 267.307 69.2683L267.454 69.2312L267.555 69.1189L267.188 68.7878C267.555 69.1193 267.556 69.1182 267.556 69.1179L267.558 69.116C267.559 69.1147 267.561 69.1128 267.562 69.1111C267.565 69.1075 267.57 69.1032 267.575 69.0974C267.585 69.0857 267.598 69.0688 267.616 69.0476C267.651 69.005 267.702 68.943 267.765 68.8591C267.893 68.6914 268.075 68.4369 268.305 68.0789C268.766 67.3626 269.417 66.2314 270.202 64.5515C271.42 61.9447 272.958 58.013 274.601 52.2527L273.403 66.8386L273.361 67.3601L273.883 67.3796H273.89C273.894 67.3798 273.9 67.3804 273.908 67.3806C273.923 67.3811 273.944 67.381 273.972 67.3816C274.028 67.3828 274.109 67.3842 274.213 67.3845C274.419 67.3852 274.714 67.3823 275.073 67.3679C275.789 67.3393 276.766 67.2646 277.802 67.0808C278.277 66.9966 278.769 66.8884 279.256 66.7498C286.75 93.1714 294.065 119.916 296.249 131C296.029 130.764 295.78 130.493 295.504 130.186ZM336.154 89.6423C334.96 88.4984 333.229 86.8031 331.087 84.6033C326.801 80.2034 320.865 73.7831 314.267 65.7068C312.292 63.2886 310.258 60.722 308.191 58.0173C311.639 57.0426 315.397 55.9299 319.363 54.6726C320.699 54.249 322.058 53.8083 323.438 53.3523C329.456 66.4469 334.673 79.7417 336.877 90.325C336.664 90.1245 336.421 89.8986 336.154 89.6423ZM275.497 53.5691C275.964 55.1988 276.436 56.8401 276.907 58.49C277.598 60.9097 278.291 63.3467 278.984 65.7878C278.537 65.9149 278.08 66.0164 277.629 66.0964C276.649 66.2701 275.719 66.3414 275.033 66.3689C274.808 66.3779 274.609 66.3818 274.445 66.3835L275.497 53.5691ZM212.858 158.148C209.227 127.621 202.302 107.659 197.441 86.821C196.488 82.7335 195.615 78.6077 194.858 74.3572C197.372 74.4155 200.248 74.4068 203.497 74.2888L203.771 74.2791L203.91 74.0427L207.304 68.2703L205.964 73.2605L205.799 73.8757L206.437 73.8894H206.444C206.449 73.8895 206.457 73.8902 206.466 73.8904C206.486 73.8908 206.514 73.8916 206.551 73.8923C206.627 73.8937 206.739 73.8958 206.886 73.8982C207.181 73.903 207.615 73.9087 208.175 73.9148C208.21 73.9152 208.246 73.9154 208.282 73.9158C208.913 79.1488 209.584 84.3363 210.251 89.4324C212.184 104.214 214.068 118.227 214.76 130.408C215.391 141.491 215.03 150.995 212.858 158.148ZM207.097 72.9011L207.836 70.1511C207.942 71.0735 208.051 71.9948 208.161 72.9148C207.727 72.9101 207.37 72.9053 207.097 72.9011ZM252.71 129.527C252.593 129.449 252.464 129.359 252.323 129.256C251.576 128.706 250.491 127.78 249.173 126.298C246.538 123.332 242.971 118.137 239.333 109.269C235.929 100.975 232.466 89.4743 229.639 73.5925C235.168 73.3728 241.187 73.0174 247.092 72.4539C249.779 89.5646 251.935 108.903 252.71 129.527Z" stroke="#1D3E1E"/>
</svg>
