<svg width="304" height="242" viewBox="0 0 304 242" fill="none" xmlns="http://www.w3.org/2000/svg">
<mask id="path-1-inside-1_170_103" fill="white">
<path fill-rule="evenodd" clip-rule="evenodd" d="M303.992 53.2408C296.742 28.4711 268.399 1.90102 268.399 1.90102L253.002 1.90102C253.002 1.90102 258.881 7.49815 270.109 17.2187C281.338 26.9394 303.992 53.2408 303.992 53.2408ZM278.294 61.8072C278.294 61.8072 259.678 32.4276 245.753 23.1353C231.827 13.843 232.436 1.90102 232.436 1.90102H243.107C243.107 1.90102 251.291 13.7922 258.134 21.6108C264.977 29.4294 277.17 47.905 278.294 61.8072ZM212.835 1.90102H223.882L252.226 61.2409C252.226 61.2409 229.573 39.3678 212.835 1.90102ZM227.006 68.5295C227.006 68.5295 199.235 32.4711 194.871 1.9373V2.18413L189.275 2.65599C190.355 8.03535 197.053 41.5238 198.46 52.7472C199.982 64.936 200.729 72.9434 200.729 72.9434C200.729 72.9434 185.701 33.1245 181.881 21.0954C179.991 15.3972 178.647 9.5726 177.851 3.62152H177.604L177.474 1.90102L194.734 0.485382L194.871 1.90102H204.389L227.006 68.5295ZM163.265 4.84114L162.446 4.90646L162.207 2.00264L163.091 1.93002H163.164L174.241 0.993546L174.32 1.93002V1.9373L174.48 3.84657H174.378L176.408 72.3045C176.408 72.3045 165.041 28.1662 163.265 4.84114ZM150.551 64.7545C150.551 64.7545 144.94 33.0519 143.033 6.51083L142.366 6.56889L141.997 1.9881L158.191 0.594284L158.59 5.19685L157.865 5.25493L150.551 64.7545ZM116.661 33.8795C116.426 25.2611 117.436 16.7915 119.691 8.47093L114.573 8.89925L114.066 2.58339L133.878 0.920944L134.414 7.24403L132.058 7.44003C128.27 17.0385 123.138 25.8517 116.661 33.8795Z"/>
<path fill-rule="evenodd" clip-rule="evenodd" d="M25.9608 1.901C25.9608 1.901 30.7017 19.0627 32.7314 19.7959C34.7612 20.5291 50.5207 15.5418 55.5443 13.6906C58.4024 12.5603 61.3624 12.1247 64.4244 12.3839C64.4244 12.3839 71.0138 14.4238 53.4855 18.1262C35.9573 21.8286 32.079 29.7415 32.079 29.7415C30.8032 44.3987 38.9584 51.4695 38.9584 51.4695C46.1712 44.0357 66.7441 33.2625 68.6796 35.2225C70.6151 37.1826 67.8604 39.6872 67.8604 39.6872C42.4887 48.5802 39.8718 57.8362 39.8718 57.8362C41.9233 79.5569 48.7736 90.8746 51.1658 90.8746C53.558 90.8746 66.0119 82.5188 68.4114 80.8708C70.8108 79.2229 77.3132 72.8853 78.0454 76.2247C78.7775 79.5641 76.3781 82.9035 66.7441 86.6059C57.1101 90.3083 55.624 98.4899 55.624 98.4899C67.8604 128.378 93.4351 127.804 95.8273 125.953C98.2195 124.102 95.3851 108.973 94.9212 107.383C94.4573 105.793 93.5366 102.846 94.9937 101.909C96.4508 100.973 97.2337 103.136 97.2337 103.136C97.2337 103.136 100.387 125.953 105.751 126.134C107.35 126.186 108.901 125.939 110.404 125.393C111.908 124.848 113.256 124.042 114.45 122.976C117.966 116.849 104.635 92.5443 103.33 89.5824C102.025 86.6204 101.279 79.7456 105.367 80.4788C109.456 81.212 117.785 103.869 118.517 109.996C119.249 116.123 120.365 119.833 123.722 120.951C127.078 122.069 135.204 117.612 145.389 112.791C155.574 107.971 155.386 100.167 155.386 100.167C156.872 85.6985 134.632 58.7872 134.45 55.8107C134.269 52.8343 135.393 48.7399 141.33 53.0158C147.267 57.2916 162.99 99.0488 162.99 99.0488C162.99 99.0488 183.751 90.5188 184.868 76.0432C185.984 61.5676 166.535 32.413 162.99 26.8595C159.445 21.3059 166.535 17.03 168.927 23.128C171.319 29.2261 193.037 65.0957 193.037 65.0957C210.094 40.5801 198.612 1.901 198.612 1.901H25.9608Z"/>
<path fill-rule="evenodd" clip-rule="evenodd" d="M19.4874 1.901L0.161377 18.9465L0.161377 29.6907C9.18647 22.7941 19.4874 1.901 19.4874 1.901ZM0.161377 62.7581L0.161377 48.5584C0.161377 48.5584 38.7264 25.2188 59.6037 21.3712C59.6037 21.3712 34.7104 48.9576 0.161377 62.7581ZM0.161377 78.163L0.161377 71.6657C0.161377 71.6657 71.9271 50.3733 86.1136 47.9195C86.1136 47.9341 57.9944 76.9506 0.161377 78.163ZM0.161377 91.1214C0.161377 91.1214 37.3056 78.163 84.7217 76.5514C84.7217 76.5514 76.4361 94.9907 0.161377 96.2176L0.161377 91.1214ZM4.51082 115.078C4.51082 115.078 10.6 126.853 18.487 127.245C26.374 127.637 86.1353 128.044 103.352 131.891C103.352 131.891 75.008 140.842 34.9062 134.744L15.2467 131.303C15.2467 131.303 20.321 135.151 30.216 138.403C40.111 141.655 107.6 167.812 107.6 167.812C107.6 167.812 76.2113 168.843 23.3584 142.047C23.3584 142.047 74.6166 172.487 86.3673 191.13C86.3673 191.13 57.0013 181.01 34.319 157.068C34.319 157.068 74.6165 209.402 76.639 222.368C76.639 222.368 46.6642 196.233 42.5684 188.908C38.4727 181.583 20.3138 150.57 20.3138 150.57C20.3138 150.57 28.4327 213.046 23.3584 241.438C23.3584 241.438 13.0285 196.001 12.8255 173.489C12.6225 150.977 12.8255 133.525 12.8255 133.525C12.8255 133.525 9.58517 138.004 9.38219 147.318C9.17922 156.632 5.74316 190.534 0.161377 203.529L0.161377 169.242C0.161377 169.242 1.47346 147.521 6.73628 130.904C6.73628 130.904 6.42457 121.982 3.29297 120.16L0.161377 116.907L0.161377 106.163C34.9569 112.661 84.7725 95.6731 104.157 103.114C62.8586 107.702 51.1948 121.67 4.51082 115.085V115.078Z"/>
</mask>
<path fill-rule="evenodd" clip-rule="evenodd" d="M303.992 53.2408C296.742 28.4711 268.399 1.90102 268.399 1.90102L253.002 1.90102C253.002 1.90102 258.881 7.49815 270.109 17.2187C281.338 26.9394 303.992 53.2408 303.992 53.2408ZM278.294 61.8072C278.294 61.8072 259.678 32.4276 245.753 23.1353C231.827 13.843 232.436 1.90102 232.436 1.90102H243.107C243.107 1.90102 251.291 13.7922 258.134 21.6108C264.977 29.4294 277.17 47.905 278.294 61.8072ZM212.835 1.90102H223.882L252.226 61.2409C252.226 61.2409 229.573 39.3678 212.835 1.90102ZM227.006 68.5295C227.006 68.5295 199.235 32.4711 194.871 1.9373V2.18413L189.275 2.65599C190.355 8.03535 197.053 41.5238 198.46 52.7472C199.982 64.936 200.729 72.9434 200.729 72.9434C200.729 72.9434 185.701 33.1245 181.881 21.0954C179.991 15.3972 178.647 9.5726 177.851 3.62152H177.604L177.474 1.90102L194.734 0.485382L194.871 1.90102H204.389L227.006 68.5295ZM163.265 4.84114L162.446 4.90646L162.207 2.00264L163.091 1.93002H163.164L174.241 0.993546L174.32 1.93002V1.9373L174.48 3.84657H174.378L176.408 72.3045C176.408 72.3045 165.041 28.1662 163.265 4.84114ZM150.551 64.7545C150.551 64.7545 144.94 33.0519 143.033 6.51083L142.366 6.56889L141.997 1.9881L158.191 0.594284L158.59 5.19685L157.865 5.25493L150.551 64.7545ZM116.661 33.8795C116.426 25.2611 117.436 16.7915 119.691 8.47093L114.573 8.89925L114.066 2.58339L133.878 0.920944L134.414 7.24403L132.058 7.44003C128.27 17.0385 123.138 25.8517 116.661 33.8795Z" fill="#1D3E1E"/>
<path fill-rule="evenodd" clip-rule="evenodd" d="M25.9608 1.901C25.9608 1.901 30.7017 19.0627 32.7314 19.7959C34.7612 20.5291 50.5207 15.5418 55.5443 13.6906C58.4024 12.5603 61.3624 12.1247 64.4244 12.3839C64.4244 12.3839 71.0138 14.4238 53.4855 18.1262C35.9573 21.8286 32.079 29.7415 32.079 29.7415C30.8032 44.3987 38.9584 51.4695 38.9584 51.4695C46.1712 44.0357 66.7441 33.2625 68.6796 35.2225C70.6151 37.1826 67.8604 39.6872 67.8604 39.6872C42.4887 48.5802 39.8718 57.8362 39.8718 57.8362C41.9233 79.5569 48.7736 90.8746 51.1658 90.8746C53.558 90.8746 66.0119 82.5188 68.4114 80.8708C70.8108 79.2229 77.3132 72.8853 78.0454 76.2247C78.7775 79.5641 76.3781 82.9035 66.7441 86.6059C57.1101 90.3083 55.624 98.4899 55.624 98.4899C67.8604 128.378 93.4351 127.804 95.8273 125.953C98.2195 124.102 95.3851 108.973 94.9212 107.383C94.4573 105.793 93.5366 102.846 94.9937 101.909C96.4508 100.973 97.2337 103.136 97.2337 103.136C97.2337 103.136 100.387 125.953 105.751 126.134C107.35 126.186 108.901 125.939 110.404 125.393C111.908 124.848 113.256 124.042 114.45 122.976C117.966 116.849 104.635 92.5443 103.33 89.5824C102.025 86.6204 101.279 79.7456 105.367 80.4788C109.456 81.212 117.785 103.869 118.517 109.996C119.249 116.123 120.365 119.833 123.722 120.951C127.078 122.069 135.204 117.612 145.389 112.791C155.574 107.971 155.386 100.167 155.386 100.167C156.872 85.6985 134.632 58.7872 134.45 55.8107C134.269 52.8343 135.393 48.7399 141.33 53.0158C147.267 57.2916 162.99 99.0488 162.99 99.0488C162.99 99.0488 183.751 90.5188 184.868 76.0432C185.984 61.5676 166.535 32.413 162.99 26.8595C159.445 21.3059 166.535 17.03 168.927 23.128C171.319 29.2261 193.037 65.0957 193.037 65.0957C210.094 40.5801 198.612 1.901 198.612 1.901H25.9608Z" fill="#4D9B44"/>
<path fill-rule="evenodd" clip-rule="evenodd" d="M19.4874 1.901L0.161377 18.9465L0.161377 29.6907C9.18647 22.7941 19.4874 1.901 19.4874 1.901ZM0.161377 62.7581L0.161377 48.5584C0.161377 48.5584 38.7264 25.2188 59.6037 21.3712C59.6037 21.3712 34.7104 48.9576 0.161377 62.7581ZM0.161377 78.163L0.161377 71.6657C0.161377 71.6657 71.9271 50.3733 86.1136 47.9195C86.1136 47.9341 57.9944 76.9506 0.161377 78.163ZM0.161377 91.1214C0.161377 91.1214 37.3056 78.163 84.7217 76.5514C84.7217 76.5514 76.4361 94.9907 0.161377 96.2176L0.161377 91.1214ZM4.51082 115.078C4.51082 115.078 10.6 126.853 18.487 127.245C26.374 127.637 86.1353 128.044 103.352 131.891C103.352 131.891 75.008 140.842 34.9062 134.744L15.2467 131.303C15.2467 131.303 20.321 135.151 30.216 138.403C40.111 141.655 107.6 167.812 107.6 167.812C107.6 167.812 76.2113 168.843 23.3584 142.047C23.3584 142.047 74.6166 172.487 86.3673 191.13C86.3673 191.13 57.0013 181.01 34.319 157.068C34.319 157.068 74.6165 209.402 76.639 222.368C76.639 222.368 46.6642 196.233 42.5684 188.908C38.4727 181.583 20.3138 150.57 20.3138 150.57C20.3138 150.57 28.4327 213.046 23.3584 241.438C23.3584 241.438 13.0285 196.001 12.8255 173.489C12.6225 150.977 12.8255 133.525 12.8255 133.525C12.8255 133.525 9.58517 138.004 9.38219 147.318C9.17922 156.632 5.74316 190.534 0.161377 203.529L0.161377 169.242C0.161377 169.242 1.47346 147.521 6.73628 130.904C6.73628 130.904 6.42457 121.982 3.29297 120.16L0.161377 116.907L0.161377 106.163C34.9569 112.661 84.7725 95.6731 104.157 103.114C62.8586 107.702 51.1948 121.67 4.51082 115.085V115.078Z" fill="#1D3E1E"/>
<path fill-rule="evenodd" clip-rule="evenodd" d="M303.992 53.2408C296.742 28.4711 268.399 1.90102 268.399 1.90102L253.002 1.90102C253.002 1.90102 258.881 7.49815 270.109 17.2187C281.338 26.9394 303.992 53.2408 303.992 53.2408ZM278.294 61.8072C278.294 61.8072 259.678 32.4276 245.753 23.1353C231.827 13.843 232.436 1.90102 232.436 1.90102H243.107C243.107 1.90102 251.291 13.7922 258.134 21.6108C264.977 29.4294 277.17 47.905 278.294 61.8072ZM212.835 1.90102H223.882L252.226 61.2409C252.226 61.2409 229.573 39.3678 212.835 1.90102ZM227.006 68.5295C227.006 68.5295 199.235 32.4711 194.871 1.9373V2.18413L189.275 2.65599C190.355 8.03535 197.053 41.5238 198.46 52.7472C199.982 64.936 200.729 72.9434 200.729 72.9434C200.729 72.9434 185.701 33.1245 181.881 21.0954C179.991 15.3972 178.647 9.5726 177.851 3.62152H177.604L177.474 1.90102L194.734 0.485382L194.871 1.90102H204.389L227.006 68.5295ZM163.265 4.84114L162.446 4.90646L162.207 2.00264L163.091 1.93002H163.164L174.241 0.993546L174.32 1.93002V1.9373L174.48 3.84657H174.378L176.408 72.3045C176.408 72.3045 165.041 28.1662 163.265 4.84114ZM150.551 64.7545C150.551 64.7545 144.94 33.0519 143.033 6.51083L142.366 6.56889L141.997 1.9881L158.191 0.594284L158.59 5.19685L157.865 5.25493L150.551 64.7545ZM116.661 33.8795C116.426 25.2611 117.436 16.7915 119.691 8.47093L114.573 8.89925L114.066 2.58339L133.878 0.920944L134.414 7.24403L132.058 7.44003C128.27 17.0385 123.138 25.8517 116.661 33.8795Z" stroke="#1D3E1E" stroke-width="2" mask="url(#path-1-inside-1_170_103)"/>
<path fill-rule="evenodd" clip-rule="evenodd" d="M25.9608 1.901C25.9608 1.901 30.7017 19.0627 32.7314 19.7959C34.7612 20.5291 50.5207 15.5418 55.5443 13.6906C58.4024 12.5603 61.3624 12.1247 64.4244 12.3839C64.4244 12.3839 71.0138 14.4238 53.4855 18.1262C35.9573 21.8286 32.079 29.7415 32.079 29.7415C30.8032 44.3987 38.9584 51.4695 38.9584 51.4695C46.1712 44.0357 66.7441 33.2625 68.6796 35.2225C70.6151 37.1826 67.8604 39.6872 67.8604 39.6872C42.4887 48.5802 39.8718 57.8362 39.8718 57.8362C41.9233 79.5569 48.7736 90.8746 51.1658 90.8746C53.558 90.8746 66.0119 82.5188 68.4114 80.8708C70.8108 79.2229 77.3132 72.8853 78.0454 76.2247C78.7775 79.5641 76.3781 82.9035 66.7441 86.6059C57.1101 90.3083 55.624 98.4899 55.624 98.4899C67.8604 128.378 93.4351 127.804 95.8273 125.953C98.2195 124.102 95.3851 108.973 94.9212 107.383C94.4573 105.793 93.5366 102.846 94.9937 101.909C96.4508 100.973 97.2337 103.136 97.2337 103.136C97.2337 103.136 100.387 125.953 105.751 126.134C107.35 126.186 108.901 125.939 110.404 125.393C111.908 124.848 113.256 124.042 114.45 122.976C117.966 116.849 104.635 92.5443 103.33 89.5824C102.025 86.6204 101.279 79.7456 105.367 80.4788C109.456 81.212 117.785 103.869 118.517 109.996C119.249 116.123 120.365 119.833 123.722 120.951C127.078 122.069 135.204 117.612 145.389 112.791C155.574 107.971 155.386 100.167 155.386 100.167C156.872 85.6985 134.632 58.7872 134.45 55.8107C134.269 52.8343 135.393 48.7399 141.33 53.0158C147.267 57.2916 162.99 99.0488 162.99 99.0488C162.99 99.0488 183.751 90.5188 184.868 76.0432C185.984 61.5676 166.535 32.413 162.99 26.8595C159.445 21.3059 166.535 17.03 168.927 23.128C171.319 29.2261 193.037 65.0957 193.037 65.0957C210.094 40.5801 198.612 1.901 198.612 1.901H25.9608Z" stroke="#1D3E1E" stroke-width="2" mask="url(#path-1-inside-1_170_103)"/>
<path fill-rule="evenodd" clip-rule="evenodd" d="M19.4874 1.901L0.161377 18.9465L0.161377 29.6907C9.18647 22.7941 19.4874 1.901 19.4874 1.901ZM0.161377 62.7581L0.161377 48.5584C0.161377 48.5584 38.7264 25.2188 59.6037 21.3712C59.6037 21.3712 34.7104 48.9576 0.161377 62.7581ZM0.161377 78.163L0.161377 71.6657C0.161377 71.6657 71.9271 50.3733 86.1136 47.9195C86.1136 47.9341 57.9944 76.9506 0.161377 78.163ZM0.161377 91.1214C0.161377 91.1214 37.3056 78.163 84.7217 76.5514C84.7217 76.5514 76.4361 94.9907 0.161377 96.2176L0.161377 91.1214ZM4.51082 115.078C4.51082 115.078 10.6 126.853 18.487 127.245C26.374 127.637 86.1353 128.044 103.352 131.891C103.352 131.891 75.008 140.842 34.9062 134.744L15.2467 131.303C15.2467 131.303 20.321 135.151 30.216 138.403C40.111 141.655 107.6 167.812 107.6 167.812C107.6 167.812 76.2113 168.843 23.3584 142.047C23.3584 142.047 74.6166 172.487 86.3673 191.13C86.3673 191.13 57.0013 181.01 34.319 157.068C34.319 157.068 74.6165 209.402 76.639 222.368C76.639 222.368 46.6642 196.233 42.5684 188.908C38.4727 181.583 20.3138 150.57 20.3138 150.57C20.3138 150.57 28.4327 213.046 23.3584 241.438C23.3584 241.438 13.0285 196.001 12.8255 173.489C12.6225 150.977 12.8255 133.525 12.8255 133.525C12.8255 133.525 9.58517 138.004 9.38219 147.318C9.17922 156.632 5.74316 190.534 0.161377 203.529L0.161377 169.242C0.161377 169.242 1.47346 147.521 6.73628 130.904C6.73628 130.904 6.42457 121.982 3.29297 120.16L0.161377 116.907L0.161377 106.163C34.9569 112.661 84.7725 95.6731 104.157 103.114C62.8586 107.702 51.1948 121.67 4.51082 115.085V115.078Z" stroke="#1D3E1E" stroke-width="2" mask="url(#path-1-inside-1_170_103)"/>
</svg>
