<svg width="282" height="247" viewBox="0 0 282 247" fill="none" xmlns="http://www.w3.org/2000/svg">
<path d="M157.746 51.2291C135.199 30.7197 132.919 81.6353 165.5 79.5586C165.5 79.5586 170.783 63.09 157.746 51.2291ZM104.734 118.713C104.734 118.713 91.1449 128.627 98.7602 147.851C111.929 181.093 139.42 140.356 104.734 118.713ZM224.326 97.7361C230.559 119.342 257.384 119.05 257.384 119.05C267.359 87.1818 213.498 60.1913 224.326 97.7361ZM125.647 238.899C133.401 259.943 159.986 230.038 136.724 206.226C136.724 206.226 117.894 217.855 125.647 238.899ZM189.932 155.163C175.348 172.28 190.391 194.49 190.391 194.49C222.477 185.227 215.275 125.419 189.932 155.163ZM41.4658 170.23C32.507 212.179 75.248 181.859 62.5096 154.17C62.5096 154.17 43.8954 158.845 41.4658 170.23ZM49.3516 23.5357C35.2329 23.7433 36.1027 41.8776 36.1027 41.8776C52.5621 55.7849 93.2954 22.8932 49.3516 23.5357ZM29.8352 91.9625C35.9274 132.389 -12.9058 137.972 3.80464 106.361C13.4666 88.0817 29.8352 91.9625 29.8352 91.9625Z" fill="#4CA538"/>
<path d="M277.967 68.5228C275.213 88.3962 270.841 106.665 264.971 122.822C257.572 143.19 247.748 160.263 235.775 173.566C215.759 195.811 189.64 207.767 158.143 209.101C156.325 209.177 154.521 209.216 152.738 209.216C147.996 209.216 143.377 208.937 138.877 208.396C138.951 213.248 139.024 228.51 137.177 235.207L136.642 235.058C138.479 228.397 138.397 213.08 138.321 208.327C116.302 205.56 97.2179 196.291 81.4096 180.631C74.6445 173.93 68.4766 166.023 62.9338 157.003C59.5848 161.236 52.1815 171.494 51.3399 180.335L50.7883 180.281C51.6536 171.193 59.3079 160.678 62.6245 156.499C57.7632 148.518 53.3887 139.675 49.54 129.997C46.5003 122.35 43.783 114.173 41.3946 105.533C37.098 102.823 33.1151 99.7812 29.4502 96.4131C24.8811 103.072 15.1585 116.756 10.505 119.717L10.2086 119.25C14.7324 116.371 24.5003 102.624 29.0392 96.0237C26.2332 93.4063 23.6111 90.6006 21.1859 87.5937C-5.50881 54.4965 0.886327 1.90226 1.1719 0.0354004L9.93384 1.36578C9.86894 1.7876 3.87837 52.0802 28.1284 82.0883C31.0988 85.7636 34.4088 89.1123 38.0434 92.1429C36.6913 86.1379 35.4841 79.9424 34.4305 73.5652C28.5719 38.069 29.4264 1.22517 29.4654 0.0354004L38.3225 0.325271C38.316 0.513471 37.9396 21.6784 39.3761 40.3685C42.8333 36.9334 51.0111 31.3955 61.0841 33.4809L60.9716 34.0238C50.4248 31.8412 42.4244 38.0647 39.4367 41.156C40.1658 50.3821 41.3362 61.0164 43.2032 72.2976C44.6095 80.7882 46.5047 90.1268 49.0424 99.7639C62.1312 107.242 78.2943 111.614 97.3953 112.799C123.491 114.42 143.541 108.233 157.007 94.41C161.109 90.196 164.449 85.45 167.162 80.3859L167.158 80.388C166.504 79.6482 151.129 62.1846 148.924 55.5284L149.402 55.3704C151.475 61.6329 165.97 78.2702 167.411 79.9121C181.423 53.2765 178.308 18.0593 177.155 5.0519C176.707 -0.0186801 185.666 0.100297 185.668 0.0354004C185.651 0.53294 185.819 2.43224 185.982 4.26881C187.451 20.839 191.918 71.2679 163.354 100.59C149.969 114.333 131.236 121.476 107.568 121.894C109.448 128.777 114.244 147.197 113.411 153.074L112.862 152.996C113.675 147.26 108.823 128.623 106.99 121.898C106.447 121.907 105.904 121.913 105.357 121.913C102.585 121.913 99.7491 121.824 96.8458 121.643C79.9298 120.594 65.0864 117.176 52.4065 111.437C59.587 134.243 70.6443 157.502 87.6598 174.352C106.211 192.719 129.801 201.433 157.768 200.247C170.253 199.72 181.813 197.383 192.398 193.273C192.823 186.489 194.789 164.526 202.629 157.398L203.002 157.807C195.512 164.617 193.454 186.072 192.976 193.053C206.757 187.597 218.868 179.109 229.19 167.639C241.943 153.466 250.904 135.905 257.196 118.119C251.244 113.57 235.038 100.354 233.471 90.2155L234.019 90.1311C235.52 99.8505 251.393 112.927 257.388 117.556C263.552 99.9738 267.126 82.2051 269.19 67.3071C273.744 34.4284 272.16 1.96283 272.143 1.70108L280.987 1.14297C281.056 2.24837 282.644 34.768 277.967 68.5228Z" fill="#2F6D30"/>
<path d="M134.74 208.32C135.762 208.483 136.79 208.632 137.825 208.766C137.86 211.279 137.887 216.014 137.699 220.958C137.499 226.218 137.061 231.658 136.16 234.925L136.028 235.406L136.508 235.539L137.042 235.689L137.525 235.823L137.659 235.34C138.6 231.928 139.044 226.384 139.247 221.129C139.412 216.873 139.417 212.77 139.394 210.068C147.631 220.85 146.53 232.244 142.389 239.125C140.079 242.963 136.878 245.321 133.887 245.522C130.969 245.718 128.011 243.865 126.117 238.726C122.307 228.385 125.024 220.384 128.692 214.95C130.531 212.227 132.61 210.149 134.23 208.75C134.406 208.599 134.576 208.455 134.74 208.32ZM190.127 194.667L189.976 194.771L190.181 195.072L190.529 194.971C193.503 194.112 196.142 192.827 198.467 191.227C210.143 185.766 220.536 178.003 229.561 167.974C242.07 154.073 250.933 136.942 257.214 119.549C257.25 119.549 257.28 119.55 257.306 119.55H257.389C257.389 119.548 257.388 119.515 257.384 119.074L257.39 119.55L257.753 119.546L257.861 119.199C258.323 117.725 258.648 116.261 258.853 114.814C264.425 98.1497 267.732 81.4753 269.685 67.3752C273.933 36.7058 272.845 6.40325 272.662 2.16919L280.51 1.6731C280.715 6.02742 281.872 36.6969 277.472 68.4543C274.722 88.2985 270.356 106.532 264.501 122.651C257.119 142.971 247.326 159.985 235.404 173.232C215.483 195.37 189.492 207.272 158.121 208.602C156.311 208.677 154.513 208.716 152.738 208.716C148.016 208.716 143.416 208.438 138.936 207.9L138.927 207.898C138.349 207.22 137.735 206.545 137.082 205.876L136.803 205.59L136.462 205.8L136.461 205.801H136.46C136.459 205.801 136.458 205.802 136.457 205.803C136.454 205.805 136.449 205.808 136.444 205.811C136.434 205.817 136.42 205.826 136.401 205.838C136.364 205.862 136.309 205.898 136.238 205.945C136.097 206.038 135.894 206.177 135.639 206.361C135.318 206.591 134.917 206.893 134.456 207.263C114.198 203.944 96.5439 194.92 81.7616 180.277C75.5471 174.12 69.8369 166.937 64.6503 158.798C64.2576 157.187 63.7037 155.57 62.9637 153.961L62.7899 153.584L62.3876 153.685L62.3866 153.686C62.3859 153.686 62.3848 153.686 62.3837 153.686C62.3811 153.686 62.3768 153.687 62.3719 153.689C62.3623 153.691 62.3482 153.695 62.33 153.699C62.2933 153.709 62.2396 153.724 62.1698 153.742C62.0457 153.776 61.8706 153.824 61.6512 153.888C57.3634 146.557 53.47 138.527 50.0048 129.813C46.9725 122.184 44.2609 114.024 41.8768 105.4L41.8251 105.213L41.661 105.111L40.8641 104.601C37.2936 102.293 33.9459 99.7512 30.8231 96.9788C30.7544 95.3465 30.5954 93.6493 30.33 91.8879L30.2792 91.554L29.9501 91.4758H29.9491C29.9482 91.4756 29.9466 91.4752 29.9452 91.4749C29.9425 91.4742 29.939 91.473 29.9344 91.4719C29.9251 91.4698 29.9114 91.4668 29.8944 91.4631C29.86 91.4557 29.8095 91.4455 29.745 91.4329C29.616 91.4076 29.4281 91.3735 29.1874 91.3372C28.7058 91.2645 28.011 91.1818 27.1493 91.1418C26.4933 91.1114 25.7395 91.1055 24.9081 91.1467C23.7599 89.8957 22.6469 88.6084 21.5751 87.2795C8.31653 70.841 3.25674 49.5318 1.55847 32.0549C0.00446118 16.0625 1.27347 3.33624 1.60437 0.606689L9.38269 1.78735C9.11242 4.30311 8.04901 16.0153 9.41492 30.679C10.92 46.8366 15.3807 66.6555 27.1727 81.6907L27.7391 82.4026C30.7305 86.1038 34.0643 89.4754 37.7235 92.5266L38.8553 93.4709L38.5311 92.0334C37.1812 86.038 35.9758 79.8516 34.9237 73.4836C29.39 39.9558 29.8558 5.21362 29.955 0.551025L37.8153 0.808838C37.776 3.44052 37.6398 16.0399 38.2411 29.6741C37.7163 30.6337 37.2953 31.6328 36.9589 32.6243C36.1679 34.9551 35.8305 37.2718 35.6893 39.0002C35.6187 39.8658 35.5965 40.5874 35.5927 41.094C35.5907 41.3474 35.5935 41.5474 35.5966 41.6848C35.5981 41.7534 35.5992 41.8066 35.6005 41.843C35.6011 41.8611 35.602 41.8753 35.6024 41.885C35.6026 41.8899 35.6033 41.894 35.6034 41.8967V41.9006V41.9016L35.6141 42.1194L35.7802 42.259C36.837 43.152 37.9879 43.857 39.205 44.3958C39.944 52.8597 41.0524 62.3645 42.7098 72.3792C44.1182 80.8825 46.0163 90.2366 48.5585 99.8909L48.6122 100.094L48.7948 100.198C61.965 107.723 78.2066 112.109 97.3641 113.298C123.551 114.924 143.766 108.72 157.365 94.759C161.459 90.5535 164.796 85.8246 167.513 80.7864L167.515 80.7883L167.602 80.6223L168.344 79.2385L168.309 79.2551C175.022 66.0541 177.656 50.8929 178.469 37.4016C179.3 23.6022 178.23 11.5141 177.653 5.00806C177.557 3.91339 177.958 3.11872 178.632 2.50903C179.326 1.88089 180.319 1.44457 181.378 1.14771C182.43 0.852914 183.503 0.706835 184.32 0.631104C184.66 0.599627 184.954 0.580488 185.182 0.567627C185.198 0.8752 185.225 1.2626 185.259 1.68872C185.319 2.45822 185.402 3.39537 185.483 4.31274C186.218 12.5955 187.697 29.2995 185.434 47.5862C183.171 65.8787 177.17 85.6915 162.996 100.241C150.061 113.522 132.072 120.61 109.349 121.347C108.02 120.294 106.572 119.271 104.998 118.288L104.712 118.11L104.438 118.309L104.437 118.31C104.437 118.31 104.436 118.311 104.434 118.312C104.432 118.313 104.429 118.316 104.426 118.319C104.418 118.324 104.406 118.333 104.392 118.344C104.364 118.365 104.324 118.396 104.272 118.437C104.169 118.518 104.022 118.639 103.838 118.798C103.47 119.117 102.956 119.591 102.365 120.22C102.052 120.553 101.717 120.93 101.371 121.351C100.244 121.317 99.1069 121.27 97.9589 121.207L96.8768 121.144C80.0091 120.098 65.2274 116.69 52.6132 110.981L51.5936 110.52L51.9296 111.587C59.122 134.432 70.2107 157.777 87.3075 174.707H87.3085C105.966 193.18 129.695 201.937 157.789 200.746C169.296 200.26 180.026 198.242 189.941 194.718C189.951 194.732 189.958 194.744 189.964 194.752C189.968 194.758 189.971 194.762 189.974 194.765C189.975 194.766 189.975 194.768 189.975 194.769L189.976 194.77C189.978 194.769 189.993 194.758 190.127 194.667ZM136.652 206.873C136.918 207.151 137.178 207.428 137.43 207.706C136.888 207.633 136.348 207.556 135.81 207.475C135.96 207.363 136.098 207.262 136.223 207.172C136.391 207.051 136.536 206.952 136.652 206.873ZM190.312 155.488C196.629 148.073 201.608 146.489 205.014 147.918C206.738 148.642 208.166 150.17 209.226 152.315C210.287 154.458 210.962 157.186 211.198 160.238C211.972 170.254 207.998 183.41 197.944 190.368C196.494 191.045 195.023 191.683 193.533 192.287C193.809 188.595 194.453 182.02 195.849 175.47C196.6 171.943 197.567 168.435 198.806 165.394C200.047 162.345 201.545 159.807 203.338 158.177L203.708 157.841L203.371 157.471L202.999 157.062L202.663 156.693L202.293 157.029C200.253 158.883 198.626 161.671 197.32 164.868C196.011 168.073 195.01 171.73 194.244 175.362C192.759 182.403 192.15 189.398 191.921 192.919C191.403 193.118 190.884 193.314 190.361 193.504C190.312 193.424 190.258 193.339 190.202 193.246C189.825 192.615 189.3 191.69 188.715 190.528C187.544 188.201 186.135 184.924 185.178 181.123C183.262 173.519 183.165 163.877 190.312 155.488ZM61.1874 155.073C61.4628 155.539 61.7398 156.001 62.0184 156.461C60.3358 158.6 57.7032 162.165 55.3524 166.302C52.9041 170.61 50.7336 175.585 50.2909 180.234L50.243 180.73L50.7391 180.779L51.2909 180.832L51.7899 180.881L51.8378 180.382C52.2487 176.066 54.2692 171.364 56.6317 167.187C58.7916 163.368 61.2157 160.026 62.8876 157.873C63.1634 158.317 63.4388 158.76 63.7177 159.198C64.9473 164.394 64.4218 169.529 62.8622 174.098C60.8174 180.088 57.0084 185.076 53.1112 187.909C51.1616 189.327 49.2189 190.185 47.4882 190.387C45.7735 190.587 44.2735 190.146 43.1249 188.963C41.9604 187.764 41.099 185.743 40.8182 182.674C40.538 179.61 40.8413 175.549 41.955 170.334C43.1196 164.876 48.1946 160.954 53.1307 158.373C55.5811 157.092 57.9594 156.162 59.7264 155.551C60.2791 155.36 60.7721 155.202 61.1874 155.073ZM109.015 122.359C121.893 132.739 122.909 145.99 119.242 153.648C117.201 157.909 113.781 160.348 110.193 159.87C106.581 159.39 102.496 155.924 99.2255 147.667C95.4736 138.196 96.9524 131.059 99.3378 126.297C100.121 124.733 101.006 123.422 101.84 122.365C103.023 122.396 104.195 122.413 105.356 122.413C105.775 122.413 106.192 122.406 106.606 122.401C107.539 125.841 109.14 131.94 110.43 137.923C111.099 141.026 111.683 144.09 112.05 146.732C112.419 149.389 112.56 151.568 112.367 152.926L112.297 153.421L112.792 153.491L113.341 153.57L113.836 153.64L113.906 153.145C114.125 151.601 113.972 149.287 113.609 146.623C113.245 143.945 112.662 140.862 111.996 137.756C110.739 131.897 109.177 125.929 108.215 122.379C108.482 122.373 108.749 122.366 109.015 122.359ZM62.2264 154.765C62.2801 154.887 62.3331 155.008 62.3846 155.13C62.3148 155.013 62.2443 154.897 62.1747 154.78C62.1924 154.775 62.2097 154.77 62.2264 154.765ZM24.494 92.176C25.7472 93.5256 27.045 94.8294 28.3837 96.0911C26.1092 99.3903 22.6645 104.277 19.2225 108.727C17.4392 111.032 15.6605 113.216 14.0497 114.999C12.4295 116.793 11.0096 118.148 9.94031 118.828L9.51941 119.097L9.78601 119.518L10.0829 119.986L10.3514 120.408L10.7733 120.139C11.9972 119.36 13.5155 117.906 15.1561 116.099C16.8054 114.282 18.6085 112.075 20.4042 109.758C23.8309 105.337 27.2445 100.496 29.537 97.1663C29.6389 97.2586 29.7402 97.3517 29.8427 97.4436C30.3804 114.066 20.9368 123.497 12.7089 125.693C8.14325 126.911 4.06738 125.897 2.09851 122.86C0.116786 119.803 0.0965383 114.446 4.24695 106.595C9.00722 97.5891 15.3928 94.0749 20.5634 92.7922C21.981 92.4406 23.3108 92.2586 24.494 92.176ZM104.766 119.326C105.824 119.997 106.823 120.685 107.764 121.389C107.695 121.39 107.627 121.393 107.558 121.394L107.371 121.397L107.37 121.392L106.982 121.398C106.44 121.406 105.9 121.413 105.356 121.413C104.463 121.413 103.563 121.403 102.656 121.384C102.806 121.215 102.952 121.055 103.094 120.905C103.658 120.304 104.147 119.853 104.492 119.554C104.597 119.464 104.689 119.389 104.766 119.326ZM226.604 81.1614C228.159 80.123 230.221 79.7758 232.596 80.0745C234.969 80.373 237.617 81.313 240.293 82.8C250.047 88.2207 259.8 100.664 257.874 114.59C257.635 115.304 257.392 116.017 257.144 116.731C254.069 114.33 248.973 110.147 244.378 105.405C241.937 102.886 239.647 100.218 237.876 97.5862C236.101 94.9479 234.872 92.3802 234.513 90.0549L234.436 89.5608L233.942 89.637L233.395 89.7209L232.901 89.7971L232.977 90.2922C233.385 92.9301 234.736 95.728 236.587 98.4915C238.442 101.261 240.822 104.029 243.33 106.612C248.187 111.613 253.558 115.95 256.602 118.291C256.574 118.371 256.545 118.45 256.516 118.53C256.431 118.526 256.339 118.525 256.242 118.521C255.507 118.487 254.447 118.415 253.154 118.262C250.567 117.955 247.057 117.322 243.358 116.024C235.958 113.426 227.862 108.188 224.807 97.5979C222.107 88.2393 223.533 83.2125 226.604 81.1614ZM27.1034 92.1409C27.9268 92.1791 28.5866 92.2573 29.038 92.3254C29.1748 92.3461 29.2924 92.3686 29.3895 92.386C29.5688 93.6348 29.6947 94.8488 29.7714 96.0286L29.6923 95.9563L29.6952 95.9524L29.3798 95.6584C28.1554 94.5163 26.969 93.3355 25.8163 92.1204C26.2792 92.1149 26.7098 92.1226 27.1034 92.1409ZM145.136 47.7151C147.71 46.053 151.818 46.5125 157.41 51.5989C163.807 57.4186 165.709 64.3632 166.013 69.8694C166.165 72.6243 165.916 75.0157 165.629 76.717C165.611 76.8197 165.592 76.9193 165.574 77.0168C163.884 75.0327 161.474 72.1529 159.036 69.0647C157.008 66.4956 154.965 63.7873 153.302 61.3352C151.629 58.8696 150.371 56.7062 149.877 55.2131L149.72 54.7385L149.245 54.8958L148.767 55.054L148.292 55.2102L148.449 55.6858C149.024 57.4228 150.436 59.8134 152.198 62.3987C153.969 64.9975 156.127 67.8378 158.231 70.4875C160.933 73.8903 163.555 76.9875 165.173 78.8674C165.152 78.9456 165.134 79.0157 165.117 79.0774C157.296 79.4863 151.587 76.7702 147.732 72.7766C143.808 68.7105 141.784 63.2973 141.449 58.4475C141.111 53.5592 142.491 49.4226 145.136 47.7151ZM49.3593 24.0354C54.8261 23.9555 58.9465 24.3978 61.9462 25.1926C64.9532 25.9894 66.7797 27.1259 67.7362 28.3879C68.6735 29.6248 68.8239 31.0474 68.3348 32.5706C67.8393 34.1136 66.6863 35.7505 65.0341 37.3186C61.732 40.4525 56.5567 43.1989 51.1962 44.2991C47.3668 45.085 43.4918 45.0211 40.1493 43.7053C40.081 42.9082 40.0149 42.1207 39.953 41.343C43.0099 38.2517 50.7516 32.42 60.87 34.5139L61.3602 34.6145L61.4608 34.1252L61.5741 33.5823L61.6747 33.093L61.1854 32.9915C51.5707 31.001 43.668 35.7957 39.7968 39.2834C39.5705 36.1815 39.3921 33.0234 39.2528 29.9153C39.8937 28.7927 40.6842 27.747 41.661 26.8596C43.4719 25.2148 45.9474 24.0856 49.3593 24.0354ZM38.3397 31.7883C38.4821 34.6632 38.6593 37.5633 38.8778 40.4065L38.9208 40.97V40.9709L38.9384 41.1956L38.9608 41.4866L38.9618 41.4846C39.0081 42.0654 39.0555 42.6518 39.1053 43.2434C38.2198 42.8076 37.3795 42.2741 36.5956 41.634C36.593 41.5068 36.5909 41.3271 36.5927 41.1018C36.5964 40.6159 36.617 39.9189 36.6854 39.0813C36.8224 37.4034 37.1499 35.1738 37.9061 32.9456C38.0376 32.5582 38.1817 32.1713 38.3397 31.7883Z" stroke="#1D3E1E"/>
</svg>
