<svg width="50" height="50" viewBox="0 0 50 50" fill="none" xmlns="http://www.w3.org/2000/svg">
<path d="M31.25 10.4166H37.5L34.375 14.5833L31.25 10.4166ZM10.4167 4.16663H39.5833C40.6884 4.16663 41.7482 4.60561 42.5296 5.38701C43.311 6.16842 43.75 7.22822 43.75 8.33329V41.6666C43.75 43.9791 41.8958 45.8333 39.5833 45.8333H10.4167C9.3116 45.8333 8.25179 45.3943 7.47039 44.6129C6.68899 43.8315 6.25 42.7717 6.25 41.6666V8.33329C6.25 6.04163 8.125 4.16663 10.4167 4.16663ZM10.4167 8.33329V16.6666H39.5833V8.33329H10.4167ZM10.4167 41.6666H39.5833V20.8333H10.4167V41.6666ZM14.5833 25H35.4167V29.1666H14.5833V25ZM14.5833 33.3333H35.4167V37.5H14.5833V33.3333Z" fill="#1A2025"/>
</svg>
