<svg width="46" height="42" viewBox="0 0 46 42" fill="none" xmlns="http://www.w3.org/2000/svg">
<path d="M44.8295 7.04795C44.6407 6.16414 44.2712 5.34693 43.7526 4.66638C43.234 3.98582 42.5817 3.4622 41.8518 3.14042C34.8286 -0.0239677 23.6161 5.34051e-06 23 5.34051e-06C22.3839 5.34051e-06 11.1714 -0.0239677 4.14821 3.14042C3.41825 3.4622 2.76602 3.98582 2.24741 4.66638C1.7288 5.34693 1.35929 6.16414 1.17054 7.04795C0.636607 9.42124 0 13.7842 0 21C0 28.2158 0.636607 32.5788 1.17054 34.9521C1.35929 35.8359 1.7288 36.6531 2.24741 37.3336C2.76602 38.0142 3.41825 38.5378 4.14821 38.8596C10.8839 41.9041 21.4393 42 22.8563 42H23.1438C24.5607 42 35.1161 41.9041 41.8518 38.8596C42.5817 38.5378 43.234 38.0142 43.7526 37.3336C44.2712 36.6531 44.6407 35.8359 44.8295 34.9521C45.3634 32.5788 46 28.2158 46 21C46 13.7842 45.3634 9.42124 44.8295 7.04795V7.04795ZM30.0232 21.7911L20.1661 29.4623C20.0353 29.5746 19.8766 29.6336 19.7143 29.6301C19.5783 29.6242 19.445 29.5833 19.3241 29.5103C19.1928 29.4306 19.0831 29.31 19.0069 29.1619C18.9308 29.0138 18.8913 28.8439 18.8929 28.6712V13.3288C18.8913 13.1561 18.9308 12.9862 19.0069 12.8381C19.0831 12.69 19.1928 12.5694 19.3241 12.4897C19.4551 12.4082 19.6025 12.3696 19.7508 12.378C19.899 12.3865 20.0425 12.4416 20.1661 12.5377L30.0232 20.2089C30.1378 20.2931 30.2321 20.4099 30.2976 20.5482C30.363 20.6865 30.3973 20.842 30.3973 21C30.3973 21.158 30.363 21.3135 30.2976 21.4518C30.2321 21.5902 30.1378 21.7069 30.0232 21.7911Z" fill="#293039"/>
</svg>
