<svg width="46" height="42" viewBox="0 0 46 42" fill="none" xmlns="http://www.w3.org/2000/svg">
<path d="M38.9218 3.49046C36.0084 1.86338 32.854 0.682442 29.5682 0.000120714C29.5394 -0.000983081 29.5107 0.00549394 29.4843 0.0190965C29.4578 0.032699 29.4341 0.0530968 29.4149 0.0788507C29.0206 0.944874 28.5606 2.07333 28.2539 2.93935C24.7688 2.30952 21.2245 2.30952 17.7393 2.93935C17.4326 2.04708 16.9726 0.944874 16.5564 0.0788507C16.5345 0.0263644 16.4688 0.000120714 16.4031 0.000120714C13.1173 0.682442 9.98482 1.86338 7.0495 3.49046C7.0276 3.49046 7.00569 3.5167 6.98379 3.54294C1.02553 14.2239 -0.617372 24.6162 0.193127 34.9035C0.193127 34.956 0.215032 35.0085 0.258843 35.0347C4.20181 38.4988 7.99144 40.5982 11.7373 41.9891C11.803 42.0154 11.8687 41.9891 11.8906 41.9366C12.7668 40.4933 13.5554 38.9712 14.2345 37.3703C14.2783 37.2654 14.2345 37.1604 14.1468 37.1341C12.8982 36.5568 11.7153 35.8745 10.5544 35.0872C10.4667 35.0347 10.4667 34.8772 10.5325 34.7985C10.7734 34.5886 11.0144 34.3524 11.2553 34.1424C11.2991 34.0899 11.3649 34.0899 11.4087 34.1162C18.9441 38.2364 27.071 38.2364 34.5188 34.1162C34.5626 34.0899 34.6284 34.0899 34.6722 34.1424C34.9131 34.3786 35.1541 34.5886 35.395 34.8248C35.4827 34.9035 35.4827 35.0609 35.3731 35.1134C34.2341 35.927 33.0293 36.583 31.7807 37.1604C31.693 37.1866 31.6711 37.3179 31.693 37.3966C32.394 38.9974 33.1826 40.5195 34.0369 41.9629C34.1026 41.9891 34.1683 42.0154 34.2341 41.9891C38.0018 40.5982 41.7914 38.4988 45.7344 35.0347C45.7782 35.0085 45.8001 34.956 45.8001 34.9035C46.7639 23.0153 44.201 12.7018 39.0094 3.54294C38.9875 3.5167 38.9656 3.49046 38.9218 3.49046V3.49046ZM15.3735 28.6314C13.1173 28.6314 11.2334 26.1383 11.2334 23.0678C11.2334 19.9974 13.0735 17.5043 15.3735 17.5043C17.6955 17.5043 19.5356 20.0236 19.5137 23.0678C19.5137 26.1383 17.6736 28.6314 15.3735 28.6314ZM30.6416 28.6314C28.3853 28.6314 26.5015 26.1383 26.5015 23.0678C26.5015 19.9974 28.3415 17.5043 30.6416 17.5043C32.9635 17.5043 34.8036 20.0236 34.7817 23.0678C34.7817 26.1383 32.9635 28.6314 30.6416 28.6314Z" fill="#293039"/>
</svg>
