<svg width="59" height="58" viewBox="0 0 59 58" fill="none" xmlns="http://www.w3.org/2000/svg">
<path d="M17.11 0H41.89C51.33 0 59 7.54 59 16.82V41.18C59 45.6409 57.1973 49.9192 53.9886 53.0735C50.7799 56.2279 46.4279 58 41.89 58H17.11C7.67 58 0 50.46 0 41.18V16.82C0 12.3591 1.80266 8.08083 5.0114 4.92646C8.22015 1.7721 12.5721 0 17.11 0M16.52 5.8C13.7034 5.8 11.0022 6.89993 9.01053 8.85781C7.01889 10.8157 5.9 13.4711 5.9 16.24V41.76C5.9 47.531 10.6495 52.2 16.52 52.2H42.48C45.2966 52.2 47.9978 51.1001 49.9895 49.1422C51.9811 47.1843 53.1 44.5289 53.1 41.76V16.24C53.1 10.469 48.3505 5.8 42.48 5.8H16.52ZM44.9875 10.15C45.9655 10.15 46.9034 10.5319 47.595 11.2117C48.2865 11.8916 48.675 12.8136 48.675 13.775C48.675 14.7364 48.2865 15.6584 47.595 16.3383C46.9034 17.0181 45.9655 17.4 44.9875 17.4C44.0095 17.4 43.0716 17.0181 42.38 16.3383C41.6885 15.6584 41.3 14.7364 41.3 13.775C41.3 12.8136 41.6885 11.8916 42.38 11.2117C43.0716 10.5319 44.0095 10.15 44.9875 10.15ZM29.5 14.5C33.4119 14.5 37.1637 16.0277 39.9298 18.747C42.696 21.4662 44.25 25.1544 44.25 29C44.25 32.8456 42.696 36.5338 39.9298 39.253C37.1637 41.9723 33.4119 43.5 29.5 43.5C25.5881 43.5 21.8363 41.9723 19.0702 39.253C16.304 36.5338 14.75 32.8456 14.75 29C14.75 25.1544 16.304 21.4662 19.0702 18.747C21.8363 16.0277 25.5881 14.5 29.5 14.5M29.5 20.3C27.1528 20.3 24.9018 21.2166 23.2421 22.8482C21.5824 24.4797 20.65 26.6926 20.65 29C20.65 31.3074 21.5824 33.5203 23.2421 35.1518C24.9018 36.7834 27.1528 37.7 29.5 37.7C31.8472 37.7 34.0982 36.7834 35.7579 35.1518C37.4176 33.5203 38.35 31.3074 38.35 29C38.35 26.6926 37.4176 24.4797 35.7579 22.8482C34.0982 21.2166 31.8472 20.3 29.5 20.3Z" fill="#293039"/>
</svg>
