<svg width="35" height="26" viewBox="0 0 35 26" fill="none" xmlns="http://www.w3.org/2000/svg">
<g clip-path="url(#clip0_2018_33)">
<path d="M2.91697 15.8261C3.32206 15.8261 3.60561 15.6377 3.76765 15.2609C3.92968 14.8841 3.92968 14.5072 3.76765 14.1304C3.60561 13.7536 3.32206 13.5652 2.91697 13.5652C2.51189 13.5652 2.22833 13.7536 2.0663 14.1304C1.90426 14.5072 1.90426 14.8841 2.0663 15.2609C2.22833 15.6377 2.51189 15.8261 2.91697 15.8261ZM25.2928 14.8016C25.1915 14.6486 24.9966 14.3542 24.708 13.9185C24.4193 13.4828 24.2092 13.1649 24.0776 12.9647C23.9459 12.7645 23.7535 12.476 23.5003 12.0992C23.2471 11.7224 23.0319 11.4103 22.8547 11.163C22.6775 10.9158 22.4724 10.639 22.2395 10.3329C22.0066 10.0267 21.7787 9.73822 21.5559 9.46739L19.6571 11.9402C18.8165 13.0471 17.7608 13.5888 16.4898 13.5652C15.2189 13.5417 14.1783 12.9647 13.3681 11.8342C12.7909 11.0217 12.5048 10.0915 12.5099 9.04348C12.5149 7.99547 12.8112 7.07111 13.3985 6.27038L16.0873 2.63179C15.8645 2.50226 15.6062 2.40512 15.3125 2.34035C15.0189 2.27559 14.7783 2.24026 14.591 2.23438C14.4036 2.22849 14.1175 2.23143 13.7327 2.24321C13.3479 2.25498 13.0998 2.26087 12.9884 2.26087C12.0567 2.26087 11.2566 2.64946 10.5883 3.42663L8.18813 6.21739H5.83358V15.8261C5.88421 15.8261 5.99055 15.8231 6.15258 15.8173C6.31461 15.8114 6.42601 15.8114 6.48678 15.8173C6.54754 15.8231 6.64628 15.8349 6.78299 15.8526C6.91971 15.8702 7.02351 15.8967 7.0944 15.9321C7.16529 15.9674 7.2539 16.0174 7.36024 16.0822C7.46657 16.147 7.56025 16.2264 7.64127 16.3207L12.1529 21.4783C13.3175 22.7853 14.4669 23.4389 15.6012 23.4389C16.3911 23.4389 17.024 23.1621 17.5 22.6087C18.0772 22.8442 18.6469 22.7971 19.2089 22.4674C19.771 22.1377 20.1381 21.6372 20.3103 20.966C21.0597 21.0367 21.7027 20.7776 22.2395 20.1889C22.442 19.9769 22.6243 19.709 22.7863 19.3852C22.9484 19.0614 23.0193 18.764 22.999 18.4932C23.1003 18.611 23.318 18.6698 23.6522 18.6698C24.0877 18.6698 24.4776 18.5462 24.8219 18.2989C25.1662 18.0516 25.4169 17.7396 25.5738 17.3628C25.7308 16.986 25.7916 16.565 25.7561 16.0999C25.7207 15.6347 25.5662 15.202 25.2928 14.8016ZM27.7081 15.8261H29.1664V6.78261H27.7537L25.3688 3.60326C24.7004 2.70833 23.8446 2.26087 22.8015 2.26087H20.2647C19.3634 2.26087 18.6241 2.65534 18.0469 3.44429L14.872 7.73641C14.5885 8.125 14.4467 8.56658 14.4467 9.06114C14.4467 9.55571 14.5834 9.99728 14.8568 10.3859C15.2923 10.9864 15.8493 11.2926 16.5278 11.3043C17.2063 11.3161 17.7684 11.0276 18.214 10.4389L21.1458 6.58832C21.3989 6.31748 21.6698 6.1909 21.9585 6.20856C22.2471 6.22622 22.4851 6.38519 22.6724 6.68546C22.8598 6.98573 22.9028 7.31839 22.8015 7.68342C22.9636 7.90716 23.2471 8.27808 23.6522 8.7962C24.0573 9.31431 24.3611 9.71467 24.5637 9.99728C24.8573 10.4212 25.2751 11.0423 25.8169 11.8607C26.3587 12.6791 26.6853 13.1766 26.7967 13.3533C27.3233 14.1304 27.6271 14.9547 27.7081 15.8261ZM32.083 15.8261C32.4881 15.8261 32.7717 15.6377 32.9337 15.2609C33.0957 14.8841 33.0957 14.5072 32.9337 14.1304C32.7717 13.7536 32.4881 13.5652 32.083 13.5652C31.6779 13.5652 31.3944 13.7536 31.2324 14.1304C31.0703 14.5072 31.0703 14.8841 31.2324 15.2609C31.3944 15.6377 31.6779 15.8261 32.083 15.8261ZM34.9996 5.65217V16.9565C34.9996 17.2627 34.9034 17.5276 34.711 17.7514C34.5186 17.9751 34.2907 18.087 34.0274 18.087H27.4347C27.1613 18.8524 26.746 19.4794 26.1891 19.9681C25.6321 20.4567 24.9991 20.76 24.2902 20.8777C23.956 21.4429 23.5484 21.9228 23.0674 22.3173C22.5863 22.7117 22.0673 22.9796 21.5103 23.1209C21.085 23.745 20.5559 24.2249 19.9229 24.5605C19.29 24.8961 18.6393 25.0403 17.9709 24.9932C17.3633 25.3936 16.7253 25.6261 16.0569 25.6909C15.3885 25.7557 14.7429 25.6732 14.1201 25.4436C13.4973 25.214 12.9048 24.899 12.3428 24.4986C11.7807 24.0983 11.2566 23.6214 10.7705 23.0679L6.41082 18.087H0.972568C0.709263 18.087 0.481404 17.9751 0.288989 17.7514C0.0965737 17.5276 0.000366211 17.2627 0.000366211 16.9565V5.08696C0.000366211 4.7808 0.0965737 4.51585 0.288989 4.29212C0.481404 4.06839 0.709263 3.95652 0.972568 3.95652H7.36783C7.50961 3.79167 7.7476 3.50906 8.08179 3.1087C8.41599 2.70833 8.65651 2.42572 8.80335 2.26087C8.95019 2.09601 9.17299 1.86051 9.47174 1.55435C9.77049 1.24819 10.0262 1.0274 10.2389 0.891984C10.4515 0.756567 10.7098 0.606431 11.0136 0.441576C11.3174 0.276721 11.6313 0.161911 11.9554 0.0971467C12.2795 0.0323822 12.6238 0 12.9884 0H14.7657C15.7683 0 16.6848 0.32971 17.5152 0.98913C18.3456 0.32971 19.2621 0 20.2647 0H22.8015C23.156 0 23.4952 0.0353261 23.8193 0.105978C24.1434 0.17663 24.4295 0.262002 24.6776 0.362092C24.9257 0.462183 25.1865 0.618207 25.4599 0.830163C25.7333 1.04212 25.9587 1.22464 26.1359 1.37772C26.3131 1.5308 26.5308 1.76336 26.7891 2.07541C27.0473 2.38745 27.2448 2.63474 27.3815 2.81726C27.5182 2.99977 27.7258 3.28238 28.0043 3.66508C28.2828 4.04778 28.493 4.33333 28.6348 4.52174H34.0274C34.2907 4.52174 34.5186 4.63361 34.711 4.85734C34.9034 5.08107 34.9996 5.34601 34.9996 5.65217Z" fill="#3E69B9"/>
</g>
<defs>
<clipPath id="clip0_2018_33">
<rect width="35" height="26" fill="white"/>
</clipPath>
</defs>
</svg>
