<svg width="35" height="36" viewBox="0 0 35 36" fill="none" xmlns="http://www.w3.org/2000/svg">
<path d="M29.8309 5.66908H29.8287L33.495 6.40189C33.6919 6.44127 33.8538 6.58564 33.9106 6.78033C33.9394 6.8749 33.9419 6.97549 33.918 7.0714C33.8941 7.16731 33.8447 7.25496 33.775 7.32502L30.7716 10.3306C30.4122 10.6893 29.9252 10.8907 29.4175 10.8906H26.9281L20.6719 17.1491C20.7912 17.5998 20.8132 18.0707 20.7363 18.5305C20.6593 18.9903 20.4853 19.4285 20.2258 19.8158C19.9663 20.2031 19.6272 20.5306 19.2311 20.7766C18.8351 21.0225 18.3912 21.1813 17.9289 21.2422C17.4667 21.3032 16.9968 21.2649 16.5506 21.13C16.1043 20.9951 15.6919 20.7667 15.3409 20.4599C14.9898 20.1531 14.7081 19.7751 14.5147 19.3509C14.3212 18.9268 14.2203 18.4662 14.2188 18C14.2191 17.4967 14.3351 17.0001 14.558 16.5487C14.7808 16.0974 15.1044 15.7033 15.5038 15.3969C15.9032 15.0906 16.3677 14.8801 16.8613 14.7819C17.355 14.6836 17.8647 14.7002 18.3509 14.8303L24.6094 8.5697V6.08252C24.6094 5.57502 24.8106 5.0872 25.1694 4.72845L28.175 1.72283C28.2451 1.65311 28.3327 1.60368 28.4286 1.5798C28.5245 1.55592 28.6251 1.55848 28.7197 1.5872C28.9144 1.64408 29.0588 1.80595 29.0981 2.00283L29.8309 5.66908Z" fill="#3E69B9"/>
<path d="M4.37502 18C4.37726 19.8768 4.78199 21.7313 5.56188 23.4384C6.34178 25.1455 7.47871 26.6654 8.89598 27.8958C10.3133 29.1261 11.9779 30.0381 13.7776 30.5704C15.5774 31.1027 17.4703 31.2428 19.3288 30.9813C21.1873 30.7198 22.9681 30.0628 24.551 29.0545C26.134 28.0463 27.4823 26.7102 28.505 25.1366C29.5278 23.5629 30.2011 21.7883 30.4797 19.9322C30.7582 18.0762 30.6355 16.1821 30.1197 14.3775C30.0473 14.1667 30.0185 13.9434 30.0352 13.7211C30.0519 13.4988 30.1136 13.2822 30.2166 13.0845C30.3197 12.8869 30.4619 12.7122 30.6346 12.5713C30.8072 12.4303 31.0068 12.326 31.2211 12.2646C31.4354 12.2032 31.6599 12.1861 31.8811 12.2143C32.1022 12.2424 32.3153 12.3153 32.5073 12.4285C32.6994 12.5416 32.8664 12.6927 32.9982 12.8724C33.13 13.0522 33.2239 13.2569 33.2741 13.4741C34.2727 16.9687 34.083 20.6959 32.7348 24.0711C31.3865 27.4462 28.9559 30.2783 25.8244 32.123C22.6928 33.9677 19.0375 34.7206 15.4318 34.2637C11.8262 33.8067 8.47426 32.1657 5.90189 29.5982C3.33233 27.0264 1.68959 23.6742 1.23159 20.0677C0.773587 16.4612 1.52626 12.8048 3.37144 9.6724C5.21662 6.54002 8.04981 4.10912 11.4262 2.76136C14.8026 1.41359 18.531 1.22528 22.026 2.22599C22.4421 2.34764 22.7932 2.62907 23.0025 3.00879C23.2118 3.38851 23.2622 3.83562 23.1428 4.25244C23.0235 4.66925 22.7439 5.02186 22.3654 5.23321C21.9868 5.44456 21.54 5.49746 21.1225 5.38036C19.1682 4.81963 17.1103 4.72053 15.1111 5.09088C13.1119 5.46123 11.2261 6.2909 9.60225 7.51448C7.97844 8.73807 6.66105 10.3221 5.75393 12.1417C4.84681 13.9614 4.37477 15.9668 4.37502 18Z" fill="#3E69B9"/>
<path d="M10.9374 17.9999C10.9376 19.1956 11.2641 20.3685 11.8819 21.3922C12.4997 22.4159 13.3853 23.2515 14.4431 23.8089C15.5009 24.3663 16.6908 24.6243 17.8844 24.5551C19.0781 24.4859 20.2302 24.0921 21.2165 23.4162C22.2026 22.7386 22.9847 21.8043 23.4782 20.7143C23.9717 19.6243 24.1579 18.4202 24.0165 17.2321C23.9783 16.9438 24.0176 16.6505 24.1304 16.3824C24.2432 16.1144 24.4254 15.8812 24.6582 15.7069C24.8911 15.5327 25.1662 15.4237 25.4552 15.3911C25.7442 15.3585 26.0366 15.4035 26.3024 15.5215C26.5682 15.638 26.7983 15.8228 26.9693 16.0572C27.1403 16.2917 27.2461 16.5672 27.2759 16.8559C27.5136 18.8861 27.1133 20.9399 26.1308 22.7324C25.1482 24.5248 23.632 25.9669 21.7926 26.8585C19.9532 27.7501 17.8819 28.0469 15.8661 27.7079C13.8503 27.3688 11.9901 26.4107 10.5436 24.9664C9.09713 23.5221 8.13614 21.6633 7.79402 19.6481C7.4519 17.6328 7.74562 15.561 8.63441 13.7203C9.52321 11.8796 10.963 10.3612 12.7539 9.37585C14.5449 8.39054 16.5981 7.98719 18.6287 8.2218C18.8461 8.24197 19.0573 8.30535 19.25 8.40821C19.4426 8.51107 19.6127 8.65134 19.7504 8.82081C19.8881 8.99028 19.9906 9.18554 20.0519 9.39513C20.1131 9.60472 20.1319 9.82443 20.1072 10.0414C20.0824 10.2583 20.0146 10.4682 19.9077 10.6586C19.8008 10.849 19.657 11.0161 19.4846 11.1502C19.3123 11.2843 19.1149 11.3827 18.9041 11.4395C18.6933 11.4963 18.4732 11.5105 18.2568 11.4812C17.3373 11.3744 16.4056 11.4634 15.523 11.7422C14.6403 12.0211 13.8266 12.4836 13.1353 13.0992C12.4441 13.7149 11.8909 14.4698 11.5121 15.3144C11.1333 16.159 10.9374 17.0742 10.9374 17.9999Z" fill="#3E69B9"/>
</svg>
